<svg id="图层_1" data-name="图层 1" xmlns="http://www.w3.org/2000/svg" viewBox="0 0 240 240"><defs><style>.cls-1{fill:#fff;}.cls-2{fill:#cfc2b6;}.cls-3{fill:#bbaea2;}.cls-4{fill:#cabdb1;}.cls-5{fill:#e6e6e6;}.cls-6{fill:#ccc;}.cls-7{fill:#c5b8ac;}.cls-8{fill:#d0cfc9;}.cls-9{fill:#bcbbb5;}.cls-10{fill:#e4e3dd;}.cls-11{fill:#34657c;}.cls-12,.cls-13,.cls-16,.cls-17,.cls-18,.cls-22,.cls-23,.cls-24{fill:none;}.cls-12,.cls-13,.cls-23,.cls-24{stroke:#ccc;}.cls-12,.cls-13,.cls-22{stroke-miterlimit:10;}.cls-12{stroke-width:0.5px;}.cls-14,.cls-19{fill:#b6ce6f;}.cls-14{stroke:#b6ce6f;}.cls-14,.cls-16,.cls-17,.cls-18,.cls-23{stroke-linecap:round;}.cls-14,.cls-16,.cls-17,.cls-18,.cls-23,.cls-24{stroke-linejoin:round;}.cls-15{fill:#7dbf85;}.cls-16,.cls-17{stroke:#907954;}.cls-17{stroke-width:0.72px;}.cls-18{stroke:#796a5d;}.cls-20{fill:#6580a4;}.cls-21{fill:#205168;}.cls-22{stroke:#37546a;}</style></defs><path class="cls-1" d="M240,120a118.3,118.3,0,0,1-.78,13.65q-.5,4.59-1.37,9.06c-.38,2-.81,4-1.31,6A113.58,113.58,0,0,1,232.82,161c-.33.91-.67,1.82-1,2.71a116.2,116.2,0,0,1-5.49,12q-2.52,4.84-5.5,9.42a120,120,0,0,1-201.62,0q-3-4.58-5.5-9.42a116.2,116.2,0,0,1-5.49-12c-.18-.47-.37-.95-.54-1.43a113.77,113.77,0,0,1-4.2-13.59c-.5-2-.93-3.95-1.31-6q-.87-4.47-1.37-9.06A118.3,118.3,0,0,1,0,120a120,120,0,0,1,240,0Z"/><polygon class="cls-2" points="128.19 63.84 128.19 115.07 98.58 115.07 96.49 103.08 92.92 82.6 128.19 63.84"/><polygon class="cls-3" points="174.82 77.15 136.97 115.07 128.19 115.07 128.19 63.84 174.82 77.15"/><polygon class="cls-4" points="204.39 74.11 200.38 115.07 190.37 115.07 174.82 77.15 204.39 74.11"/><polygon class="cls-5" points="76.65 98.75 76.65 115.07 48.43 115.07 48.43 104.73 76.65 98.75"/><polygon class="cls-6" points="98.58 115.07 76.65 115.07 76.65 98.75 95.74 98.75 98.58 115.07"/><polygon class="cls-7" points="190.37 115.07 136.97 115.07 174.82 77.15 190.37 115.07"/><rect class="cls-8" x="51.64" y="140.76" width="4.9" height="39.36"/><rect class="cls-9" x="148.66" y="140.76" width="4.73" height="39.36"/><polygon class="cls-10" points="220.27 115.07 220.27 180.12 153.39 180.12 153.39 140.76 51.64 140.76 51.64 180.12 19.72 180.12 19.72 115.07 220.27 115.07"/><polygon class="cls-11" points="136.97 140.76 136.97 180.12 56.54 180.12 56.54 140.76 76.65 140.76 76.65 156.93 116.87 156.93 116.87 140.76 136.97 140.76"/><line class="cls-12" x1="220.27" y1="136" x2="19.72" y2="136"/><line class="cls-12" x1="19.73" y1="156.93" x2="51.65" y2="156.93"/><line class="cls-12" x1="19.73" y1="125.54" x2="220.28" y2="125.54"/><line class="cls-12" x1="19.73" y1="146.47" x2="51.65" y2="146.47"/><line class="cls-12" x1="153.4" y1="146.47" x2="220.28" y2="146.47"/><line class="cls-12" x1="153.4" y1="156.93" x2="220.28" y2="156.93"/><line class="cls-12" x1="19.73" y1="168.53" x2="51.65" y2="168.53"/><line class="cls-12" x1="153.4" y1="168.53" x2="220.28" y2="168.53"/><line class="cls-13" x1="83.26" y1="156.82" x2="83.26" y2="180.12"/><rect class="cls-11" x="76.65" y="140.58" width="20.11" height="16.36"/><line class="cls-13" x1="110.56" y1="156.34" x2="110.56" y2="180.12"/><polyline class="cls-13" points="96.76 156.58 96.76 166.46 96.76 180.12"/><rect class="cls-11" x="96.76" y="140.58" width="20.11" height="16.36"/><line class="cls-13" x1="103.65" y1="180.12" x2="103.65" y2="156.46"/><line class="cls-13" x1="89.87" y1="156.7" x2="89.87" y2="180.12"/><line class="cls-12" x1="42.01" y1="115.07" x2="42.01" y2="125.54"/><line class="cls-12" x1="64.29" y1="115.07" x2="64.29" y2="125.57"/><line class="cls-12" x1="86.58" y1="115.07" x2="86.58" y2="125.57"/><line class="cls-12" x1="108.86" y1="115.07" x2="108.86" y2="125.54"/><line class="cls-12" x1="131.14" y1="115.07" x2="131.14" y2="125.54"/><line class="cls-12" x1="153.43" y1="115.07" x2="153.43" y2="125.54"/><line class="cls-12" x1="175.71" y1="115.07" x2="175.71" y2="125.57"/><line class="cls-12" x1="197.99" y1="115.07" x2="197.99" y2="125.54"/><line class="cls-12" x1="30.87" y1="125.52" x2="30.87" y2="135.99"/><line class="cls-12" x1="53.15" y1="125.52" x2="53.15" y2="136.02"/><line class="cls-12" x1="75.44" y1="125.52" x2="75.44" y2="136.02"/><line class="cls-12" x1="97.72" y1="125.52" x2="97.72" y2="135.99"/><line class="cls-12" x1="120" y1="125.52" x2="120" y2="135.99"/><line class="cls-12" x1="142.28" y1="125.52" x2="142.28" y2="135.99"/><line class="cls-12" x1="164.57" y1="125.52" x2="164.57" y2="136.02"/><line class="cls-12" x1="186.85" y1="125.52" x2="186.85" y2="135.99"/><line class="cls-12" x1="209.13" y1="125.52" x2="209.13" y2="135.99"/><line class="cls-12" x1="42.01" y1="136" x2="42.01" y2="146.47"/><line class="cls-12" x1="64.3" y1="136" x2="64.3" y2="140.76"/><line class="cls-12" x1="86.58" y1="136" x2="86.58" y2="140.76"/><line class="cls-12" x1="108.86" y1="136" x2="108.86" y2="140.75"/><line class="cls-12" x1="131.14" y1="136" x2="131.14" y2="140.75"/><line class="cls-12" x1="153.43" y1="136" x2="153.43" y2="140.76"/><line class="cls-12" x1="175.71" y1="136" x2="175.71" y2="146.5"/><line class="cls-12" x1="197.99" y1="136" x2="197.99" y2="146.47"/><line class="cls-12" x1="30.87" y1="146.47" x2="30.87" y2="156.93"/><line class="cls-12" x1="164.56" y1="146.47" x2="164.56" y2="156.96"/><line class="cls-12" x1="186.85" y1="146.47" x2="186.85" y2="156.93"/><line class="cls-12" x1="209.13" y1="146.47" x2="209.13" y2="156.93"/><line class="cls-12" x1="42.01" y1="156.93" x2="42.01" y2="168.53"/><line class="cls-12" x1="30.87" y1="168.53" x2="30.87" y2="180.12"/><line class="cls-12" x1="175.71" y1="156.93" x2="175.71" y2="168.53"/><line class="cls-12" x1="197.99" y1="156.93" x2="197.99" y2="168.49"/><line class="cls-12" x1="164.55" y1="168.53" x2="164.55" y2="180.1"/><line class="cls-12" x1="186.84" y1="168.53" x2="186.84" y2="180.06"/><line class="cls-12" x1="209.12" y1="168.53" x2="209.12" y2="180.06"/><path class="cls-14" d="M51.64,180.12A20.66,20.66,0,0,1,41,188.93c-11.08,3.68-16.27,2.1-16.27,2.1l-5-10.91Z"/><path class="cls-14" d="M137,180.12s1.83,8.2,15.09,11.36c8.59,2,25.48,2.12,36.91,1.41,13.41-.85,22.48-3.1,27-6.95a20.88,20.88,0,0,0,4.3-5.82Z"/><path class="cls-15" d="M168.26,168.93A15.07,15.07,0,0,0,183,164a10.32,10.32,0,0,0,2-8.21c-.34-2.27,1.21-1.6,1.32-6,.07-2.3-1.66-5.87-3.49-7-1.49-.93-2.84-2.36-6.44-2.37-3.86,0-1.88-2.15-5.25-3.71-1.64-.76-4.56-2.11-8-1.24a9.29,9.29,0,0,0-5.5,3.91c-1.23,2.08-.36,2.94-1.37,5.55-1.33,3.47-3.52,3.07-4.74,6-1.93,4.62,1.68,9.9,1.84,10.12a12.66,12.66,0,0,0,5.45,4.33,5.91,5.91,0,0,0,2.71,4.55A5.73,5.73,0,0,0,168.26,168.93Z"/><line class="cls-16" x1="168.04" y1="161.1" x2="168.04" y2="186.07"/><line class="cls-17" x1="163.77" y1="151.71" x2="168.03" y2="161.81"/><line class="cls-17" x1="174.19" y1="153.28" x2="168.03" y2="161.81"/><line class="cls-18" x1="168.03" y1="175.28" x2="161.51" y2="188.5"/><line class="cls-18" x1="168.03" y1="175.28" x2="174.55" y2="188.5"/><line class="cls-17" x1="168.04" y1="160.59" x2="168.04" y2="155.4"/><path class="cls-19" d="M211.37,163.06a11.49,11.49,0,0,0,6.9-1.31c2.62-1.48,3.8-3.66,5-5.85a18.71,18.71,0,0,0,2.5-10c-.22-3.88-1.66-3.82-1.62-7.72,0-3.21,1-4.28.37-7.1a11.38,11.38,0,0,0-2.24-4.48c-.79-1-2.68-3.28-5.27-3.35-1.41,0-1.42.65-3,.86s-5.17-2.21-8.31-2.58l-.47,0c-.93,0-2.13.2-4.29,1.75-1.79,1.29-2.68,1.93-3.27,3a7.9,7.9,0,0,0-.79,4.5c.13,2.68,1.06,3.26.87,5.17-.17,1.73-1.12,2-1.91,3.74-2.22,4.94,1.54,11.19,2.4,12.53a18,18,0,0,0,2.9,3.44,9.68,9.68,0,0,0,4.37,6.21A9.47,9.47,0,0,0,211.37,163.06Z"/><line class="cls-16" x1="210.12" y1="158.6" x2="210.12" y2="184.58"/><line class="cls-17" x1="206.91" y1="151.3" x2="210.11" y2="159.49"/><line class="cls-17" x1="214.2" y1="153.81" x2="210.12" y2="160.73"/><line class="cls-18" x1="210.11" y1="171.02" x2="201.92" y2="185.93"/><line class="cls-18" x1="210.11" y1="171.02" x2="218.29" y2="185.93"/><line class="cls-17" x1="210.12" y1="158.6" x2="210.12" y2="147.64"/><path class="cls-15" d="M27.58,168.92a15.12,15.12,0,0,0,8.3-.38,18.77,18.77,0,0,0,6-3.43,15.92,15.92,0,0,0,4.25-4.8c.52-1,2.61-4.74,1.65-9-.81-3.59-3-3.57-3.86-7.62-.61-2.87.3-3.38-.31-6.4a13.17,13.17,0,0,0-4-7.52c-2.79-2.38-7.39-3.57-11-2.24-2.25.84-3.5,2.46-6,2.16-1.35-.17-1.55-.72-3-.79a7.64,7.64,0,0,0-5.13,2,9.46,9.46,0,0,0-2.88,5.23c-.77,3.37.65,4.33-.09,7.32S9.38,146.17,8.41,149c-1.84,5.27,2,10.93,2.56,11.69a16,16,0,0,0,5.35,4.77A6,6,0,0,0,18.05,169C20.2,171.06,24.13,171.14,27.58,168.92Z"/><line class="cls-16" x1="27.35" y1="160.61" x2="27.35" y2="187.11"/><line class="cls-17" x1="22.24" y1="149.19" x2="26.93" y2="160.79"/><line class="cls-17" x1="34.57" y1="151.35" x2="27.34" y2="161.37"/><line class="cls-18" x1="27.34" y1="175.65" x2="22.07" y2="186.35"/><line class="cls-18" x1="27.34" y1="175.65" x2="34.26" y2="189.69"/><line class="cls-17" x1="27.35" y1="160.07" x2="27.35" y2="153.2"/><path class="cls-14" d="M55.52,220.09s32.4-4.51,61.35-5.09,69.41,3.77,69.41,3.77L120.9,239Z"/><path class="cls-20" d="M120,6A114,114,0,0,1,234,120a112.33,112.33,0,0,1-.75,13c-.3,2.84-.74,5.72-1.3,8.59-.37,2-.77,3.81-1.23,5.59v.08a107.76,107.76,0,0,1-3.53,11.66c-.35,1-.66,1.8-1,2.58A110.75,110.75,0,0,1,221,172.92c-1.56,3-3.31,6-5.22,8.93a114,114,0,0,1-191.55,0c-1.9-2.92-3.65-5.93-5.22-9a109.64,109.64,0,0,1-5.2-11.35l-.13-.34c-.12-.32-.24-.63-.35-.94l0-.06,0-.06a110.56,110.56,0,0,1-4-12.88v-.07c-.46-1.78-.86-3.61-1.24-5.63-.55-2.83-1-5.71-1.3-8.6A114,114,0,0,1,120,6m0-6A120,120,0,0,0,0,120a118.3,118.3,0,0,0,.78,13.65q.5,4.59,1.37,9.06c.38,2,.81,4,1.31,6a113.77,113.77,0,0,0,4.2,13.59c.17.48.36,1,.54,1.43a116.2,116.2,0,0,0,5.49,12q2.52,4.84,5.5,9.42a120,120,0,0,0,201.62,0q3-4.58,5.5-9.42a116.2,116.2,0,0,0,5.49-12c.35-.89.69-1.8,1-2.71a113.58,113.58,0,0,0,3.72-12.31c.5-2,.93-3.95,1.31-6q.87-4.47,1.37-9.06A118.3,118.3,0,0,0,240,120,120,120,0,0,0,120,0Z"/><polyline class="cls-11" points="56.54 140.76 136.97 137.27 148.66 140.76"/><polygon class="cls-21" points="148.66 140.76 148.66 180.12 136.97 180.12 136.97 137.27 148.66 140.76"/><line class="cls-22" x1="136.97" y1="137.27" x2="136.97" y2="180.12"/><line class="cls-22" x1="126.92" y1="137.71" x2="126.92" y2="180.12"/><line class="cls-22" x1="66.6" y1="140.33" x2="66.6" y2="180.12"/><line class="cls-22" x1="56.54" y1="167.09" x2="76.65" y2="166.87"/><polyline class="cls-22" points="116.88 166.43 136.97 166.21 148.66 167.09"/><line class="cls-22" x1="86.71" y1="139.45" x2="86.71" y2="156.93"/><line class="cls-22" x1="76.65" y1="156.93" x2="76.65" y2="139.89"/><line class="cls-22" x1="116.87" y1="138.14" x2="116.87" y2="156.93"/><line class="cls-22" x1="106.82" y1="138.58" x2="106.82" y2="156.93"/><line class="cls-22" x1="96.76" y1="139.02" x2="96.76" y2="156.93"/><polyline class="cls-22" points="56.54 153.62 136.97 151.38 148.66 153.28"/><line class="cls-23" x1="76.65" y1="156.93" x2="116.87" y2="156.23"/><line class="cls-13" x1="116.87" y1="180.12" x2="116.87" y2="156.23"/><line class="cls-24" x1="76.65" y1="156.93" x2="76.65" y2="180.12"/></svg>