<svg id="图层_1" data-name="图层 1" xmlns="http://www.w3.org/2000/svg" viewBox="0 0 240 240"><defs><style>.cls-1{fill:#fff;}.cls-2,.cls-20,.cls-22,.cls-25,.cls-5,.cls-6{fill:none;}.cls-2{stroke:#b6ce6f;stroke-width:4px;}.cls-2,.cls-5,.cls-6{stroke-linecap:round;}.cls-2,.cls-26,.cls-5,.cls-6{stroke-linejoin:round;}.cls-26,.cls-3{fill:#f9f1d8;}.cls-4{fill:#d8cbac;}.cls-5{stroke:#ccc;}.cls-6{stroke:#000;}.cls-7{fill:#7e9dc0;}.cls-8{fill:#4c6b8e;}.cls-9{fill:#efe7ce;}.cls-10{fill:#546176;}.cls-11{fill:#aca698;}.cls-12{fill:#7490a4;}.cls-13{fill:#e2d5b6;}.cls-14{fill:#baad8e;}.cls-15{fill:#efe7d2;}.cls-16{fill:#b6ce6f;}.cls-17{fill:#5f7485;}.cls-18{opacity:0.1;}.cls-19{opacity:0.21;}.cls-20{stroke:#7490a4;}.cls-20,.cls-21,.cls-22,.cls-25{stroke-miterlimit:10;}.cls-20,.cls-25,.cls-26{stroke-width:2px;}.cls-21,.cls-23{fill:#f2f2f2;}.cls-21{stroke:#c6ba9a;}.cls-22,.cls-25{stroke:#e6e6e6;}.cls-22{stroke-width:3px;}.cls-24{fill:#6580a4;}.cls-26{stroke:#d8cbac;}</style></defs><path class="cls-1" d="M240,120a118.3,118.3,0,0,1-.78,13.65q-.5,4.59-1.37,9.06c-.38,2-.81,4-1.31,6A113.58,113.58,0,0,1,232.82,161c-.33.91-.67,1.82-1,2.71a116.2,116.2,0,0,1-5.49,12q-2.52,4.84-5.5,9.42a120,120,0,0,1-201.62,0q-3-4.58-5.5-9.42a116.2,116.2,0,0,1-5.49-12c-.18-.47-.37-.95-.54-1.43a113.77,113.77,0,0,1-4.2-13.59c-.5-2-.93-3.95-1.31-6q-.87-4.47-1.37-9.06A118.3,118.3,0,0,1,0,120a120,120,0,0,1,240,0Z"/><line class="cls-2" x1="24.24" y1="186.44" x2="69.41" y2="186.68"/><line class="cls-2" x1="171.18" y1="186.68" x2="216.23" y2="186.68"/><polygon class="cls-3" points="98.15 166.95 98.15 185.11 92.99 185.11 92.99 170.69 74.56 170.69 74.56 185.11 69.41 185.11 69.41 166.95 98.15 166.95"/><path class="cls-3" d="M69.41,130.55V163.1H98.15V130.55ZM86.85,163h-7.3V137.44h7.3Z"/><path class="cls-3" d="M142.43,130.55V163.1h28.75V130.55Zm18,32.46h-7.3V137.44h7.3Z"/><polygon class="cls-3" points="171.18 166.95 171.18 185.11 166.02 185.11 166.02 170.69 147.59 170.69 147.59 185.11 142.43 185.11 142.43 166.95 171.18 166.95"/><rect class="cls-4" x="66.77" y="121.44" width="32.85" height="9.11"/><rect class="cls-4" x="140.38" y="121.44" width="32.85" height="9.11"/><line class="cls-5" x1="116.95" y1="29.92" x2="123.05" y2="29.92"/><path class="cls-3" d="M105.56,55.22V73.93L120,68.71l14.44,5.22V55.22Zm16.62,8.92h-4.36V59.79h4.36Z"/><polygon class="cls-6" points="128.43 73.93 112.67 73.93 120 71.32 128.43 73.93"/><path class="cls-3" d="M134.44,77.45V126H105.56V77.45h11.37v4.49a6.14,6.14,0,0,0,0,10.63v7.15h-5.36v4h16.86v-4h-5.36V92.57a6.14,6.14,0,0,0,0-10.63V77.45Z"/><polygon class="cls-7" points="136.89 52.95 103.11 52.95 120 44.12 136.89 52.95"/><rect class="cls-8" x="103.11" y="52.95" width="33.78" height="2.27"/><polyline class="cls-5" points="120 44.12 120 30.36 120 24.03"/><polygon class="cls-9" points="142.43 133.65 142.43 178.28 125.18 178.28 125.18 178.27 129.35 178.27 129.35 159.57 110.65 159.57 110.65 178.27 114.82 178.27 114.82 178.28 98.15 178.28 98.15 133.65 142.43 133.65"/><rect class="cls-4" x="98.15" y="181.69" width="44.28" height="3.42"/><rect class="cls-3" x="98.15" y="178.26" width="44.28" height="3.41"/><polygon class="cls-10" points="129.35 159.57 129.35 178.26 123.07 178.26 123.07 168.92 116.93 168.92 116.93 178.26 110.65 178.26 110.65 159.57 129.35 159.57"/><rect class="cls-9" x="116.93" y="168.92" width="6.14" height="9.34"/><rect class="cls-4" x="103.11" y="125.99" width="33.78" height="7.66"/><rect class="cls-4" x="69.41" y="163.1" width="28.74" height="3.85"/><rect class="cls-4" x="142.43" y="163.1" width="28.75" height="3.85"/><rect class="cls-11" x="74.56" y="170.69" width="18.43" height="14.42"/><rect class="cls-11" x="147.59" y="170.69" width="18.43" height="14.42"/><rect class="cls-12" x="79.55" y="137.44" width="7.3" height="25.57"/><rect class="cls-12" x="153.15" y="137.44" width="7.3" height="25.57"/><rect class="cls-13" x="103.11" y="99.72" width="2.45" height="4"/><rect class="cls-14" x="134.44" y="99.72" width="2.45" height="4"/><rect class="cls-4" x="103.11" y="73.93" width="33.78" height="3.52"/><polygon class="cls-15" points="128.43 73.93 112.67 73.93 120 71.32 128.43 73.93"/><polygon class="cls-4" points="134.44 73.93 128.43 73.93 120 71.32 112.67 73.93 105.56 73.93 120 68.71 134.44 73.93"/><rect class="cls-10" x="117.82" y="59.79" width="4.36" height="4.35"/><path class="cls-10" d="M123.07,77.45v4.49a6.09,6.09,0,0,0-6.14,0V77.45Z"/><path class="cls-10" d="M123.07,92.57v7.15h-6.14V92.57a6.09,6.09,0,0,0,6.14,0Z"/><rect class="cls-9" x="61.54" y="142.71" width="7.87" height="42.4"/><rect class="cls-9" x="40.83" y="142.71" width="8.25" height="42.4"/><rect class="cls-9" x="20.12" y="142.71" width="8.25" height="42.4"/><path class="cls-9" d="M7.66,142.71v19.55a113.77,113.77,0,0,1-4.2-13.59c-.5-2-.93-3.95-1.31-6Z"/><rect class="cls-9" x="171.18" y="142.71" width="7.76" height="42.4"/><rect class="cls-9" x="191.4" y="142.71" width="8.25" height="42.4"/><rect class="cls-9" x="212.11" y="142.71" width="8.25" height="42.4"/><path class="cls-9" d="M237.85,142.71c-.38,2-.81,4-1.31,6A113.58,113.58,0,0,1,232.82,161V142.71Z"/><path class="cls-16" d="M65.48,220.71a.53.53,0,0,1-.3-.09L34.3,197.75a.5.5,0,0,1,.3-.9H98.15a.5.5,0,0,1,.48.35.52.52,0,0,1-.19.56L65.76,220.62A.47.47,0,0,1,65.48,220.71Z"/><path class="cls-16" d="M98.15,197.35h0m0,0L65.47,220.21,34.6,197.35H98.15m0-1H34.6a1,1,0,0,0-1,.69,1,1,0,0,0,.35,1.12L64.88,221a1,1,0,0,0,.6.19,1,1,0,0,0,.57-.18L98.7,198.19a1,1,0,0,0,.45-.84,1,1,0,0,0-1-1Zm0,2Z"/><path class="cls-16" d="M175.06,220.68a.52.52,0,0,1-.29-.09l-32.62-22.83a.49.49,0,0,1-.19-.56.48.48,0,0,1,.47-.35h63.45a.5.5,0,0,1,.3.9l-30.82,22.83A.49.49,0,0,1,175.06,220.68Z"/><path class="cls-16" d="M205.88,197.35l-30.82,22.83-32.63-22.83h63.45m0-1H142.43a1,1,0,0,0-1,.7,1,1,0,0,0,.38,1.12L174.49,221a1,1,0,0,0,.57.18,1,1,0,0,0,.6-.19l30.82-22.83a1,1,0,0,0,.35-1.12,1,1,0,0,0-1-.69Zm0,2h0Z"/><path class="cls-9" d="M69.41,133.65v9.06H2.15q-.87-4.47-1.37-9.06Z"/><path class="cls-9" d="M239.22,133.65q-.5,4.59-1.37,9.06H171.18v-9.06Z"/><rect class="cls-17" x="49.08" y="142.71" width="12.46" height="42.4"/><rect class="cls-17" x="28.37" y="142.71" width="12.46" height="42.4"/><path class="cls-17" d="M20.12,142.71v42.4h-.93q-3-4.58-5.5-9.42a116.2,116.2,0,0,1-5.49-12c-.18-.47-.37-.95-.54-1.43V142.71Z"/><path class="cls-17" d="M232.82,142.71V161c-.33.91-.67,1.82-1,2.71a116.2,116.2,0,0,1-5.49,12q-2.52,4.84-5.5,9.42h-.45v-42.4Z"/><rect class="cls-17" x="199.65" y="142.71" width="12.46" height="42.4"/><rect class="cls-17" x="178.94" y="142.71" width="12.46" height="42.4"/><rect class="cls-18" x="171.18" y="133.65" width="13.99" height="9.06"/><rect class="cls-18" x="171.18" y="142.71" width="7.76" height="42.4"/><path class="cls-19" d="M237.85,142.71c-.38,2-.81,4-1.31,6H171.18v-6Z"/><path class="cls-19" d="M69.41,142.71v6H3.46c-.5-2-.93-3.95-1.31-6Z"/><line class="cls-20" x1="7.66" y1="151.69" x2="20.12" y2="151.69"/><line class="cls-20" x1="20.12" y1="163.69" x2="8.81" y2="163.69"/><line class="cls-20" x1="20.12" y1="175.69" x2="14.77" y2="175.69"/><rect class="cls-19" x="105.56" y="77.45" width="28.88" height="2.74"/><rect class="cls-19" x="69.41" y="130.55" width="28.74" height="2.74"/><rect class="cls-19" x="142.43" y="130.55" width="28.75" height="2.74"/><rect class="cls-10" x="116.93" y="103.72" width="6.14" height="22.27"/><rect class="cls-19" x="111.57" y="103.72" width="16.86" height="2.74"/><rect class="cls-18" x="123.07" y="77.45" width="2.08" height="48.54"/><rect class="cls-4" x="111.57" y="99.72" width="16.86" height="4"/><path class="cls-21" d="M125.72,87.26a5.68,5.68,0,0,1-2.86,4.94,5.63,5.63,0,0,1-5.72,0,5.71,5.71,0,0,1,0-9.89,5.63,5.63,0,0,1,5.72,0A5.71,5.71,0,0,1,125.72,87.26Z"/><path class="cls-3" d="M111.71,158.57a8.35,8.35,0,0,1,16.58,0Z"/><path class="cls-4" d="M120,152.23a7.35,7.35,0,0,1,7.07,5.34H112.93a7.35,7.35,0,0,1,7.07-5.34m0-2a9.35,9.35,0,0,0-9.35,9.34h18.7a9.35,9.35,0,0,0-9.35-9.34Z"/><rect class="cls-19" x="105.56" y="55.22" width="28.88" height="2.74"/><line class="cls-20" x1="28.47" y1="151.69" x2="40.93" y2="151.69"/><line class="cls-20" x1="28.47" y1="163.69" x2="40.93" y2="163.69"/><line class="cls-20" x1="28.47" y1="175.69" x2="40.93" y2="175.69"/><line class="cls-20" x1="49.08" y1="151.69" x2="61.54" y2="151.69"/><line class="cls-20" x1="49.08" y1="163.69" x2="61.54" y2="163.69"/><line class="cls-20" x1="49.08" y1="175.69" x2="61.54" y2="175.69"/><line class="cls-20" x1="178.94" y1="151.69" x2="191.4" y2="151.69"/><line class="cls-20" x1="178.94" y1="163.69" x2="191.4" y2="163.69"/><line class="cls-20" x1="178.94" y1="175.69" x2="191.4" y2="175.69"/><line class="cls-20" x1="199.65" y1="151.69" x2="212.11" y2="151.69"/><line class="cls-20" x1="199.65" y1="163.69" x2="212.11" y2="163.69"/><line class="cls-20" x1="199.65" y1="175.69" x2="212.11" y2="175.69"/><line class="cls-20" x1="220.36" y1="151.69" x2="232.82" y2="151.69"/><line class="cls-20" x1="230.94" y1="163.69" x2="220.36" y2="163.69"/><line class="cls-20" x1="225.33" y1="175.69" x2="220.36" y2="175.69"/><path class="cls-22" d="M57.38,217.3V94.84a6.93,6.93,0,0,1,5.31-7.48L75,84.89"/><path class="cls-23" d="M81.43,84.76c.07.48.11.64-.42,1.15L69.69,88.49c-1-.26-1.12-.54-1.2-1.19-.17-1.42,2.58-3.14,6.15-3.85S81.26,83.34,81.43,84.76Z"/><path class="cls-12" d="M81,85.91a13,13,0,0,1-5.72,2.7,14.84,14.84,0,0,1-5.6-.12A20.38,20.38,0,0,1,81,85.91Z"/><path class="cls-24" d="M120,6A114,114,0,0,1,234,120a112.33,112.33,0,0,1-.75,13c-.3,2.84-.74,5.72-1.3,8.59-.37,2-.77,3.81-1.23,5.59v.08a107.76,107.76,0,0,1-3.53,11.66c-.35,1-.66,1.8-1,2.58A110.75,110.75,0,0,1,221,172.92c-1.56,3-3.31,6-5.22,8.93a114,114,0,0,1-191.55,0c-1.9-2.92-3.65-5.93-5.22-9a109.64,109.64,0,0,1-5.2-11.35l-.13-.35c-.12-.31-.24-.62-.35-.93l0-.06,0-.06a110.56,110.56,0,0,1-4-12.88v-.07c-.46-1.78-.86-3.61-1.24-5.63-.55-2.83-1-5.71-1.3-8.6A114,114,0,0,1,120,6m0-6A120,120,0,0,0,0,120a118.3,118.3,0,0,0,.78,13.65q.5,4.59,1.37,9.06c.38,2,.81,4,1.31,6a113.77,113.77,0,0,0,4.2,13.59c.17.48.36,1,.54,1.43a116.2,116.2,0,0,0,5.49,12q2.52,4.84,5.5,9.42a120,120,0,0,0,201.62,0q3-4.58,5.5-9.42a116.2,116.2,0,0,0,5.49-12c.35-.89.69-1.8,1-2.71a113.58,113.58,0,0,0,3.72-12.31c.5-2,.93-3.95,1.31-6q.87-4.47,1.37-9.06A118.3,118.3,0,0,0,240,120,120,120,0,0,0,120,0Z"/><path class="cls-25" d="M163,205.82v-91a5.16,5.16,0,0,0-3.95-5.56l-9.12-1.84"/><path class="cls-23" d="M145.1,107.28c0,.36-.09.48.31.86l8.42,1.92c.77-.2.83-.41.89-.89.13-1.06-1.92-2.33-4.57-2.86S145.23,106.23,145.1,107.28Z"/><path class="cls-12" d="M145.41,108.14a9.68,9.68,0,0,0,4.25,2,10.94,10.94,0,0,0,4.17-.08,15,15,0,0,0-4.4-1.64A15.32,15.32,0,0,0,145.41,108.14Z"/><line class="cls-26" x1="98.15" y1="142.71" x2="142.43" y2="142.71"/><rect class="cls-18" x="98.15" y="133.65" width="7.41" height="44.61"/></svg>