<svg id="图层_1" data-name="图层 1" xmlns="http://www.w3.org/2000/svg" viewBox="0 0 240 240"><defs><style>.cls-1{fill:#fff;}.cls-2{fill:#427d99;}.cls-3{fill:#5899ac;}.cls-4{fill:#4d90a1;}.cls-5{fill:#487990;}.cls-6{fill:#e4e1d3;}.cls-11,.cls-12,.cls-13,.cls-15,.cls-7,.cls-9{fill:none;}.cls-8{fill:#d2cdc1;}.cls-9{stroke:#588dac;}.cls-11,.cls-15,.cls-23,.cls-9{stroke-miterlimit:10;}.cls-10{fill:#e9e7da;}.cls-11{stroke:#6099a8;stroke-width:2px;}.cls-12{stroke:#34657c;}.cls-12,.cls-13{stroke-linecap:round;stroke-linejoin:round;}.cls-13{stroke:#e6e6e6;}.cls-14{opacity:0.1;}.cls-15{stroke:#ccc;}.cls-16{opacity:0.21;}.cls-17{fill:#e9e7e1;}.cls-18{fill:#99938b;}.cls-19{fill:#e99a58;}.cls-20{fill:#40b585;}.cls-21{fill:#42accd;}.cls-22,.cls-23{fill:#b6ce6f;}.cls-23{stroke:#b6ce6f;}.cls-24{fill:#79b86a;}.cls-25{fill:#6580a4;}</style></defs><path class="cls-1" d="M240,120c0,1,0,2,0,3-.06,2.6-.21,5.17-.44,7.73,0,.17,0,.34-.05.51-.05.55-.11,1.1-.17,1.64,0,.25-.05.5-.08.75q-.5,4.59-1.37,9.06c-.38,2-.81,4-1.31,6-.26,1.08-.53,2.15-.82,3.21-.06.21-.11.42-.18.63l-.18.62a.79.79,0,0,1-.06.22c-.14.5-.29,1-.43,1.5s-.39,1.27-.6,1.9-.43,1.33-.66,2-.52,1.49-.79,2.24c-.33.91-.67,1.82-1,2.71s-.72,1.8-1.1,2.7-.74,1.73-1.12,2.59l-.07.16c-.32.71-.64,1.4-1,2.1-.12.24-.23.48-.35.71-.36.77-.74,1.53-1.12,2.28l0,.05c0,.11-.11.21-.16.32h0l-.56,1.09-.47.88-.12.22-.57,1.06c-.15.28-.3.56-.46.83-.55,1-1.13,2-1.72,3,0,0,0,0,0,0a1,1,0,0,0-.08.14c-.32.53-.65,1.06-1,1.59s-.72,1.15-1.09,1.72-.83,1.28-1.26,1.91c-.26.39-.53.77-.79,1.15-.62.9-1.25,1.79-1.9,2.67l0,0-.22.3c-.47.63-.93,1.25-1.41,1.87s-.94,1.22-1.43,1.82-1.13,1.4-1.71,2.09c-.36.45-.74.88-1.12,1.32l-.9,1-.11.13a119.55,119.55,0,0,1-8.93,9.08c-.57.53-1.15,1-1.74,1.57-.2.17-.39.35-.59.51-.7.62-1.41,1.22-2.13,1.81l-.08.07c-.77.64-1.56,1.27-2.35,1.89s-1.31,1-2,1.53q-1.57,1.18-3.18,2.31c-.79.57-1.6,1.11-2.41,1.65-.65.44-1.31.87-2,1.29l-1,.63-1.64,1c-.17.1-.34.21-.51.3s-.64.39-1,.57-.76.45-1.14.66l-1.09.62q-1,.54-1.92,1.05l-1.1.57c-1.31.69-2.64,1.35-4,2l-1.27.6-1.69.76-1.72.74-1.72.71-1.74.68c-1.74.68-3.51,1.31-5.29,1.9l-1.72.56c-3,1-6.11,1.79-9.23,2.5l-1.82.4c-1,.22-2.08.43-3.13.62-.58.11-1.17.22-1.76.31-.88.15-1.76.29-2.65.42l-1.63.23c-1.36.18-2.74.34-4.12.47l-1.78.16c-1.75.15-3.5.25-5.27.32l-1.35,0L122,240l-2,0-2,0-1.37,0-1.35,0c-1.77-.07-3.52-.17-5.27-.32l-1.78-.16c-1.38-.13-2.76-.29-4.12-.47l-1.63-.23c-.89-.13-1.77-.27-2.65-.42-.59-.09-1.18-.2-1.76-.31-1-.19-2.09-.4-3.13-.62l-1.82-.4c-3.12-.71-6.2-1.55-9.23-2.5l-1.72-.56c-1.78-.59-3.55-1.22-5.29-1.9l-1.74-.68-1.72-.71-1.72-.74L70,229.13l-1.27-.6c-1.34-.62-2.66-1.28-4-2l-1.1-.57q-1-.51-1.92-1.05l-1.09-.62q-.57-.31-1.14-.66c-.33-.18-.65-.37-1-.57l-.51-.3-1.64-1-1-.63c-.66-.42-1.32-.85-2-1.29-.87-.57-1.72-1.16-2.57-1.76l-.05,0-2.11-1.53-.86-.64c-.67-.51-1.33-1-2-1.53q-2.45-1.92-4.79-4c-.72-.63-1.43-1.26-2.13-1.91-.32-.28-.63-.58-.94-.87l-1.51-1.43q-2.23-2.17-4.35-4.45c-.71-.76-1.4-1.52-2.09-2.3-.4-.45-.8-.9-1.18-1.36s-.65-.75-1-1.13c-.91-1.08-1.79-2.17-2.65-3.28l-.8-1q-.72-.94-1.41-1.89l-.05-.07c-1.32-1.82-2.61-3.67-3.83-5.57-.37-.57-.73-1.14-1.09-1.72s-.66-1.06-1-1.59a1,1,0,0,0-.08-.14s0,0,0,0c-.59-1-1.17-2-1.72-3-.16-.27-.31-.55-.46-.83l-.57-1.06-.12-.22-.47-.88c-.22-.42-.44-.83-.65-1.25h0l-.08-.15,0-.05c-.38-.75-.76-1.51-1.12-2.28-.12-.23-.23-.47-.35-.71-.33-.7-.65-1.39-1-2.1l-.07-.16c-.38-.86-.76-1.72-1.12-2.59s-.74-1.8-1.1-2.7c-.18-.47-.37-.95-.54-1.43-.3-.78-.58-1.57-.86-2.36,0-.12-.09-.24-.13-.37-.27-.76-.52-1.51-.78-2.28a.93.93,0,0,0,0-.13q-.42-1.29-.81-2.61c-.14-.46-.28-.92-.4-1.38h0c-.09-.33-.18-.67-.28-1l-.07-.25c-.29-1.06-.56-2.13-.82-3.21-.5-2-.93-3.95-1.31-6q-.87-4.47-1.37-9.06c0-.25-.06-.51-.08-.76-.07-.58-.13-1.15-.18-1.73,0-.14,0-.28,0-.42s0-.31,0-.46c-.06-.72-.12-1.45-.17-2.17-.12-1.87-.21-3.74-.24-5.63,0-.24,0-.49,0-.73v-.41c0-.45,0-.89,0-1.34,0-1,0-2,0-3,0-.19,0-.39,0-.59,0-.84.05-1.67.1-2.5,0-.13,0-.27,0-.4,0-.73.07-1.45.13-2.17s.11-1.44.18-2.15c.15-1.8.35-3.58.59-5.35q.27-2,.6-4c.22-1.31.46-2.62.73-3.92.13-.66.27-1.32.42-2L3,93.31l.39-1.65c.1-.4.19-.79.29-1.18.15-.58.3-1.15.46-1.72l.12-.47c0-.06,0-.13,0-.19q.3-1.09.63-2.19c.23-.78.47-1.57.72-2.35.41-1.32.86-2.62,1.33-3.92.38-1.1.79-2.18,1.21-3.26l.48-1.22.6-1.45c.12-.28.23-.56.36-.84.2-.49.41-1,.63-1.45s.45-1,.69-1.52a0,0,0,0,1,0,0c.33-.73.68-1.46,1-2.18.74-1.53,1.51-3,2.32-4.54.29-.54.58-1.07.89-1.6a3.1,3.1,0,0,1,.26-.47c.25-.45.5-.9.76-1.34s.55-1,.84-1.42l.51-.84c.44-.72.89-1.44,1.35-2.15.28-.45.58-.9.88-1.35q.66-1,1.35-2l1-1.37c.64-.9,1.29-1.8,2-2.68.49-.67,1-1.34,1.53-2s.9-1.15,1.37-1.71l.66-.81c.54-.65,1.08-1.29,1.63-1.93s1.27-1.44,1.92-2.15,1.2-1.31,1.81-2c.11-.12.22-.24.34-.35.53-.57,1.08-1.13,1.63-1.68l.31-.3c.62-.63,1.25-1.24,1.88-1.84l.33-.32c1.26-1.19,2.55-2.37,3.87-3.51.58-.51,1.17-1,1.77-1.51l1-.81c.51-.42,1-.83,1.55-1.24.15-.12.3-.25.46-.36.41-.33.81-.64,1.22-.94s.79-.61,1.19-.9q2.44-1.83,5-3.51c.54-.37,1.08-.72,1.62-1.07l.43-.27c.52-.34,1-.66,1.56-1l1.11-.68c.68-.41,1.36-.81,2.05-1.2.5-.3,1-.58,1.52-.86l.94-.52,1.14-.61c1-.56,2.1-1.1,3.17-1.62q1.08-.54,2.19-1c.68-.32,1.36-.64,2.05-.94,2.28-1,4.59-2,6.95-2.83l1.85-.67.62-.22,2.16-.72c.77-.25,1.54-.5,2.31-.73l.22-.06c.7-.22,1.41-.42,2.12-.62q2.52-.7,5.1-1.31l1.44-.32,1.13-.25,1.23-.25c.5-.11,1-.2,1.52-.29l1.7-.31.33-.05,2.1-.34.83-.12c1-.14,2-.27,3-.38.6-.08,1.21-.14,1.81-.21h.15c.9-.09,1.79-.17,2.7-.24l.5,0c.86-.06,1.73-.12,2.6-.16l.35,0c.71,0,1.43-.07,2.14-.08l1.11,0c.91,0,1.84,0,2.76,0s1.85,0,2.78,0l1.07,0c.73,0,1.45,0,2.18.08l.31,0c.88,0,1.77.1,2.65.17l.45,0c.91.07,1.82.15,2.72.24h.15c.6.07,1.21.13,1.81.21,1,.11,2,.24,3,.38l.83.12,2.1.34a1.86,1.86,0,0,1,.34.06c.54.08,1.07.18,1.6.28s1.2.22,1.79.35q.44.08.87.18c.56.11,1.13.23,1.69.36l1,.22c.9.21,1.8.43,2.69.66q2.52.65,5,1.4l2,.64.23.08c.68.21,1.36.44,2,.68q2.41.82,4.78,1.76l2.65,1.09c.74.31,1.48.64,2.22,1,.51.22,1,.45,1.51.69l.55.25,1.73.83c.64.32,1.28.63,1.91,1s1.47.76,2.2,1.16c1.61.86,3.2,1.77,4.77,2.71.51.3,1,.61,1.51.92,1,.64,2.06,1.3,3.08,2,.43.28.86.56,1.28.85,1.36.93,2.7,1.88,4,2.87.46.34.92.68,1.37,1l1.63,1.27L195.83,27c.38.32.77.63,1.14,1,.58.48,1.15,1,1.72,1.46q2,1.71,3.84,3.49l.35.34c.62.59,1.24,1.19,1.85,1.81q.17.15.3.3c.57.56,1.12,1.13,1.66,1.7.11.1.21.21.31.32.62.65,1.22,1.3,1.82,2s1.29,1.43,1.92,2.15c.75.87,1.49,1.75,2.21,2.64.49.6,1,1.2,1.45,1.81s1.09,1.4,1.62,2.11l.32.42L217.48,50c.4.55.8,1.11,1.18,1.68s.63.9.93,1.35c.12.18.25.36.37.55.38.57.76,1.15,1.13,1.74s.94,1.47,1.4,2.22l1.18,2c.26.45.52.9.77,1.35q.6,1,1.17,2.1t1.26,2.4c.39.77.78,1.54,1.16,2.32.22.47.45.93.66,1.4s.34.71.5,1.07l.63,1.4.39.91c.28.62.54,1.25.8,1.88v0c.32.75.62,1.5.91,2.26s.58,1.52.86,2.29c.83,2.25,1.58,4.54,2.26,6.85l.09.29c.21.75.43,1.49.63,2.24s.42,1.56.62,2.34c.05.21.11.43.15.64q.27,1.06.51,2.13.89,3.89,1.51,7.86c.13.87.25,1.73.37,2.61.24,1.77.44,3.55.59,5.34.06.63.11,1.27.16,1.9l0,.42c.06.75.11,1.51.14,2.28.06,1,.09,2,.12,3.07S240,119,240,120Z"/><path class="cls-2" d="M11.94,90.77v20c-1,.12-2,.26-3,.39-.81.1-1.61.21-2.41.33-1.1.14-2.19.29-3.28.45l-2.72.38a108.94,108.94,0,0,1,3.75-20Q8,91.51,11.94,90.77Z"/><path class="cls-3" d="M26,88.28v20.79q-7.17.81-14.06,1.7v-20Q18.74,89.48,26,88.28Z"/><path class="cls-2" d="M41.35,86V107.5q-7.83.73-15.35,1.57V88.28Q33.44,87.07,41.35,86Z"/><path class="cls-3" d="M58.16,83.93v22.16q-8.58.63-16.81,1.41V86Q49.51,84.86,58.16,83.93Z"/><path class="cls-2" d="M77.05,82.22v22.7q-9.63.48-18.89,1.17V83.93Q67.34,82.94,77.05,82.22Z"/><path class="cls-3" d="M98.13,81v23.07q-10.74.27-21.08.81V82.22Q87.31,81.45,98.13,81Z"/><path class="cls-2" d="M120,80.63v23.19q-11.11,0-21.83.29V81Q108.79,80.63,120,80.63Z"/><path class="cls-4" d="M141.79,81v68.7c-3.11,0-6.2-.06-9.28-.08V80.77C135.63,80.83,138.73,80.92,141.79,81Z"/><path class="cls-3" d="M132.51,80.77v23.16q-6.21-.12-12.55-.11V80.63Q126.32,80.63,132.51,80.77Z"/><path class="cls-5" d="M162.86,82.22v22.7q-10.34-.53-21.07-.81V81Q152.61,81.44,162.86,82.22Z"/><path class="cls-4" d="M181.75,83.93v22.16q-9.25-.69-18.89-1.17V82.22Q172.57,82.93,181.75,83.93Z"/><path class="cls-5" d="M198.57,86V107.5q-8.25-.78-16.82-1.41V83.93Q190.41,84.85,198.57,86Z"/><path class="cls-4" d="M213.92,88.28l0,20.79q-7.5-.84-15.32-1.57V86Q206.48,87.06,213.92,88.28Z"/><path class="cls-5" d="M228,90.77v20c-4.6-.58-9.29-1.16-14.08-1.69l0-20.79Q221.18,89.48,228,90.77Z"/><path class="cls-4" d="M239.51,112.33l-.71-.1-1.89-.27c-1.29-.18-2.57-.36-3.85-.52-1.7-.24-3.4-.46-5.09-.68v-20c2.65.51,5.25,1,7.79,1.53A108,108,0,0,1,239.51,112.33Z"/><path class="cls-2" d="M11.94,110.76v21.11l-1.65.15c-1.46.12-2.92.25-4.37.39-1.74.15-3.46.31-5.18.48h0c-.07-.58-.13-1.15-.18-1.73,0-.14,0-.28,0-.42s0-.31,0-.46c-.06-.72-.12-1.45-.17-2.17-.12-1.87-.21-3.74-.24-5.63,0-.24,0-.49,0-.73v-.41q0-4.56.48-9l2.72-.38,3.28-.45,2.41-.32Z"/><path class="cls-3" d="M26,109.07v21.68q-7.12.52-14.06,1.13V110.77Q18.83,109.89,26,109.07Z"/><path class="cls-2" d="M41.35,107.5v22.19q-7.77.48-15.35,1.06V109.07Q33.52,108.23,41.35,107.5Z"/><path class="cls-3" d="M58.16,106.09v22.66q-8.52.42-16.81.94V107.5Q49.59,106.72,58.16,106.09Z"/><path class="cls-2" d="M77.05,104.92v23q-9.57.31-18.89.79V106.09Q67.41,105.4,77.05,104.92Z"/><path class="cls-3" d="M98.13,104.11v23.31q-10.69.18-21.08.54v-23Q87.39,104.39,98.13,104.11Z"/><path class="cls-2" d="M120,103.82v23.41q-11.05,0-21.83.19V104.11Q108.86,103.83,120,103.82Z"/><path class="cls-3" d="M132.51,103.93v23.36q-6.22-.06-12.55-.06V103.82Q126.31,103.82,132.51,103.93Z"/><path class="cls-5" d="M162.86,104.92v23q-10.38-.36-21.07-.54V104.11Q152.53,104.38,162.86,104.92Z"/><path class="cls-4" d="M181.75,106.09v22.66q-9.31-.47-18.89-.79v-23Q172.49,105.4,181.75,106.09Z"/><path class="cls-5" d="M198.57,107.5v22.19q-8.3-.52-16.82-.94V106.09Q190.33,106.72,198.57,107.5Z"/><path class="cls-4" d="M240,119.67V123c-.06,2.6-.21,5.17-.44,7.73,0,.17,0,.34-.05.51-.05.55-.11,1.1-.17,1.64-.65-.06-1.29-.13-1.94-.18-1.13-.11-2.25-.22-3.36-.31l-.63-.06-2.89-.26-1.55-.13-1-.09V110.75c1.69.22,3.39.44,5.09.68l3.85.53c.63.09,1.26.17,1.89.27l.71.09Q239.87,116,240,119.67Z"/><path class="cls-2" d="M11.94,131.87v20.82l-.44,0-6.86.41h0c-.09-.33-.18-.67-.28-1l-.07-.25c-.29-1.06-.56-2.13-.82-3.21-.5-2-.93-3.95-1.31-6q-.87-4.47-1.37-9.06c0-.25-.06-.51-.08-.76h0c1.72-.17,3.44-.33,5.18-.48,1.45-.14,2.91-.27,4.37-.39Z"/><path class="cls-3" d="M26,130.75V152l-.61,0q-6.75.33-13.45.72V131.88Q18.89,131.28,26,130.75Z"/><path class="cls-2" d="M41.35,129.69v21.57l-5.3.22L26,152v-21.2Q33.58,130.18,41.35,129.69Z"/><path class="cls-3" d="M58.16,128.75v21.88l-1,0-6.24.22c-2.55.1-5.09.19-7.63.3l-1.92.08V129.69Q49.65,129.17,58.16,128.75Z"/><path class="cls-2" d="M77.05,128v22.15c-1.3,0-2.59,0-3.88.09l-2.18.06-3.36.09c-3.17.08-6.33.18-9.47.28V128.75Q67.48,128.29,77.05,128Z"/><path class="cls-3" d="M98.13,127.42v22.32l-2.87,0H94.7l-3.44.05L84,150l-5.47.12-1.43,0V128Q87.45,127.6,98.13,127.42Z"/><path class="cls-5" d="M198.57,129.69v21.56l-.76,0c-2.69-.12-5.38-.22-8.08-.32l-6.95-.25-1,0V128.75Q190.27,129.17,198.57,129.69Z"/><path class="cls-4" d="M213.86,130.75l0,21.2-1.08,0c-2.95-.15-5.92-.29-8.89-.42l-5.29-.23V129.69Q206.31,130.17,213.86,130.75Z"/><path class="cls-4" d="M239.3,132.9c0,.25-.05.5-.08.75q-.5,4.59-1.37,9.06c-.38,2-.81,4-1.31,6-.26,1.08-.53,2.15-.82,3.21-.06.21-.11.42-.18.63s-.11.41-.17.62h0l-6.43-.38-1-.06V131.87l1,.09,1.55.13,2.89.26.63.06c1.11.09,2.23.2,3.36.31C238,132.77,238.65,132.84,239.3,132.9Z"/><path class="cls-6" d="M84,150v31.69H17c-.59-1-1.17-2-1.72-3-.16-.27-.31-.55-.46-.83l-.57-1.06-.12-.22-.47-.88c-.22-.42-.44-.83-.65-1.25h0l-.08-.15,0-.05c-.38-.75-.76-1.51-1.12-2.28-.12-.23-.23-.47-.35-.71-.33-.7-.65-1.39-1-2.1l-.07-.16c-.38-.86-.76-1.72-1.12-2.59s-.74-1.8-1.1-2.7c-.18-.47-.37-.95-.54-1.43-.3-.78-.58-1.57-.86-2.36,0-.12-.09-.24-.13-.37-.27-.76-.52-1.51-.78-2.28a.93.93,0,0,0,0-.13q-.42-1.29-.81-2.61c-.14-.46-.28-.92-.4-1.38l6.86-.41.44,0q6.69-.39,13.45-.72l.61,0q5-.25,10-.47l5.3-.22,1.92-.09,7.63-.3,3.12-.11,3.12-.11,1,0c3.14-.1,6.3-.2,9.47-.28.75,0,1.49-.05,2.24-.06.37,0,.75,0,1.12,0l2.18-.06,3.88-.09,1.43,0,1.59,0h.34l3.53-.08Z"/><path class="cls-7" d="M225.84,176.79c-.91,1.64-1.86,3.26-2.87,4.85.59-1,1.17-2,1.72-3,.16-.27.31-.55.46-.83l.57-1.06Z"/><path class="cls-8" d="M235.37,153.13a1.87,1.87,0,0,1-.07.22c-.14.5-.29,1-.43,1.5s-.39,1.27-.6,1.9-.43,1.33-.66,2-.52,1.49-.79,2.24c-.33.91-.67,1.82-1,2.71s-.72,1.8-1.1,2.7-.74,1.73-1.12,2.59l-.07.16c-.32.71-.64,1.4-1,2.1-.12.24-.23.48-.35.71-.36.77-.74,1.53-1.12,2.28l0,.05c0,.11-.11.21-.16.32h0l-.56,1.09-.47.88-.12.22-.57,1.06c-.15.28-.3.56-.46.83-.55,1-1.13,2-1.72,3H156V150l3.87.08h0l1.6,0,1.43,0,1.89.05H165l1.75,0,8,.22,7,.21,1,0,3.48.13,3.47.12c2.7.1,5.39.2,8.08.32l.76,0,5.29.23c3,.12,5.94.26,8.89.41l1.08.06.69,0q6.76.33,13.45.72l1,.06,6.43.38Z"/><path class="cls-5" d="M94.64,156.16v25.49H84V156.3c3.55-.06,7.1-.11,10.68-.14Z"/><polygon class="cls-5" points="140.26 156.01 140.26 181.65 99.66 181.65 99.66 156 100.37 156 139.83 156.01 140.26 156.01"/><path class="cls-5" d="M156,156.3v25.35H145.28V156.16Q150.65,156.2,156,156.3Z"/><line class="cls-9" x1="99.66" y1="168.9" x2="140.26" y2="168.9"/><path class="cls-10" d="M99.66,156.1v25.55h-5V156.16l3.58,0h0Z"/><polygon class="cls-10" points="145.28 156.14 145.28 181.67 140.26 181.67 140.26 156.1 145.28 156.14"/><path class="cls-5" d="M228,110.76v21.12c-4.64-.4-9.34-.79-14.11-1.13l0-21.68C218.68,109.6,223.37,110.18,228,110.76Z"/><path class="cls-5" d="M228,131.88V152.7q-6.69-.39-13.45-.72l-.69,0,0-21.2C218.63,131.09,223.33,131.48,228,131.88Z"/><path class="cls-3" d="M132.51,127.29v22.37q-6.3,0-12.55,0V127.23Q126.28,127.23,132.51,127.29Z"/><path class="cls-4" d="M213.89,109.07l0,21.68q-7.55-.57-15.29-1.06V107.5Q206.39,108.23,213.89,109.07Z"/><path class="cls-2" d="M120,127.23v22.39q-9,0-18.2.08l-3.63,0V127.42Q108.9,127.23,120,127.23Z"/><path class="cls-11" d="M3.21,111.94c1.08-.16,2.18-.31,3.28-.45.8-.12,1.6-.23,2.41-.33l3-.4c1.15-.15,2.3-.3,3.46-.43s2.33-.3,3.5-.43l3.53-.43,3.57-.41q3.77-.42,7.6-.81l.35,0c2.44-.25,4.91-.5,7.4-.73l4.14-.37c1.39-.12,2.78-.25,4.18-.35s2.81-.24,4.22-.35l4.27-.32c1-.08,2-.16,3.06-.22s2.05-.15,3.08-.21c2-.14,3.94-.25,5.93-.38l2.16-.12c1.54-.09,3.1-.17,4.66-.24,1.72-.1,3.45-.18,5.19-.25q5.22-.24,10.54-.41c1.77-.06,3.55-.12,5.35-.16s3.59-.09,5.39-.12l3.86-.07,3,0,4.07,0,5.53,0,6.31,0h.28l6,.06c3.05,0,6.15.11,9.28.19q5.25.14,10.64.35,5.15.19,10.43.47c2,.09,4,.2,6,.31l1,.06,4.39.28c1.81.11,3.63.24,5.45.37l2.05.15h.15l3.57.27,1.43.11c1.11.08,2.22.18,3.34.28.73,0,1.47.12,2.21.19,1,.07,2,.16,3,.26s2.1.18,3.15.28c1.29.12,2.59.24,3.89.38q4.36.42,8.79.91l2.64.29,1.39.16c2.49.27,5,.57,7.5.88l5.19.65c1.69.22,3.39.44,5.09.68,1.28.16,2.56.34,3.85.52l1.89.27"/><line class="cls-12" x1="99.66" y1="132.97" x2="107.86" y2="149.66"/><line class="cls-13" x1="94.69" y1="149.79" x2="99.66" y2="132.97"/><line class="cls-12" x1="119.91" y1="130.75" x2="125.29" y2="149.62"/><line class="cls-13" x1="119.96" y1="130.75" x2="119.96" y2="149.62"/><path class="cls-10" d="M100.37,156.1H98.23l1.43,0Z"/><rect class="cls-14" x="159.83" y="149.96" width="4.93" height="6.34"/><path class="cls-4" d="M181.75,128.75v21.88l-7-.21-8-.22c-1.29,0-2.59-.07-3.89-.09V128Q172.43,128.27,181.75,128.75Z"/><path class="cls-5" d="M162.86,128v22.15l-1.43,0L156,150c-4.75-.08-9.47-.16-14.17-.21V127.42Q152.47,127.6,162.86,128Z"/><path class="cls-11" d="M5.92,132.41c1.45-.14,2.9-.27,4.37-.39l1.65-.15,3.48-.29,3.5-.29,7.08-.55,3.8-.28,1.47-.1.26,0q4.88-.34,9.82-.66l4.16-.25,1.44-.09h.17l2.58-.14c2.52-.15,5-.27,7.59-.4l.87,0,1.44-.08c.49,0,1,0,1.45-.06l3.79-.17,2.7-.12,1.1,0c1.22-.06,2.42-.1,3.64-.14h.19c1.52-.06,3-.12,4.58-.16l3.63-.13,1.58,0,1.48,0h.33l3.45-.1q2.63-.08,5.28-.12l5.33-.11,5.4-.08,3.25,0,5.07,0,4,0H120q6.21,0,12.55.07c3.07,0,6.16.06,9.28.12,2.62,0,5.25.1,7.9.17l5.79.15,2.17.06,5.21.17,3.4.12,6.33.25,4.49.19.36,0,4.31.21,5.42.27c1.81.09,3.63.2,5.45.31l1.79.1,4.16.26,1.31.07.44,0,7.77.53.22,0,1.85.13,3.7.27,3.56.27,3.54.28,2.93.24.39,0h.2l3.49.31,1,.08,1.55.13,2.89.26.63.06c1.11.09,2.23.2,3.36.31.65.05,1.29.12,1.94.18"/><line class="cls-12" x1="140.26" y1="132.97" x2="143.16" y2="149.62"/><line class="cls-13" x1="145.28" y1="149.96" x2="140.26" y2="132.97"/><rect class="cls-14" x="83.95" y="156.3" width="2.43" height="25.37"/><line class="cls-9" x1="145.28" y1="168.83" x2="155.96" y2="168.83"/><line class="cls-9" x1="83.95" y1="168.9" x2="94.64" y2="168.83"/><line class="cls-9" x1="89.29" y1="156.3" x2="89.29" y2="181.65"/><line class="cls-9" x1="106.39" y1="156.12" x2="106.39" y2="168.89"/><line class="cls-9" x1="113.2" y1="156" x2="113.2" y2="168.89"/><line class="cls-9" x1="119.95" y1="156" x2="119.96" y2="168.89"/><line class="cls-9" x1="126.58" y1="156.01" x2="126.58" y2="168.89"/><line class="cls-9" x1="133.52" y1="156.01" x2="133.52" y2="168.89"/><line class="cls-9" x1="150.62" y1="156.3" x2="150.62" y2="181.65"/><line class="cls-15" x1="119.96" y1="168.89" x2="126.58" y2="168.89"/><polyline class="cls-15" points="106.39 181.65 106.39 168.89 113.2 168.89"/><polyline class="cls-15" points="119.96 181.65 119.96 168.89 113.2 168.89 113.2 181.65"/><polyline class="cls-15" points="133.52 181.65 133.52 168.89 126.58 168.89 126.58 181.65"/><rect class="cls-16" x="83.94" y="156" width="72.01" height="3.72"/><path class="cls-17" d="M159.83,150v6.34c-3.92-.06-7.85-.11-11.83-.14h0v0H97.48l-1.59,0h0l-4,0h0c-4,0-7.9.08-11.83.14h0V150l8.09-.12,3.81-.05h.62l3.18,0,4,0q10.15-.07,20.16-.08t20,.09l4.17,0h0C149.34,149.8,154.57,149.88,159.83,150Z"/><rect class="cls-14" x="97.91" y="156.12" width="1.75" height="25.53"/><rect class="cls-14" x="143.53" y="156.12" width="1.75" height="25.53"/><rect class="cls-14" x="99.66" y="156.1" width="1.75" height="25.53"/><rect class="cls-14" x="145.28" y="156.12" width="1.75" height="25.53"/><polygon class="cls-18" points="41.35 174.36 41.35 176.79 43.63 176.79 43.63 176.79 44.77 176.79 44.77 166.84 42.49 166.84 42.49 174.36 41.35 174.36"/><polygon class="cls-18" points="58.16 174.28 58.16 176.79 60.79 176.79 60.79 176.79 62.1 176.79 62.1 166.5 59.48 166.5 59.48 174.28 58.16 174.28"/><polygon class="cls-18" points="26 174.47 26 176.79 28.33 176.79 28.33 176.79 29.5 176.79 29.5 167.28 27.17 167.28 27.17 174.47 26 174.47"/><path class="cls-18" d="M15.24,167.8v9h-1l-.12-.22-.47-.88c-.22-.42-.44-.83-.65-1.25V167.8Z"/><polygon class="cls-18" points="198.52 174.36 198.52 176.79 196.24 176.79 196.24 176.79 195.1 176.79 195.1 166.84 197.37 166.84 197.37 174.36 198.52 174.36"/><polygon class="cls-18" points="181.71 174.28 181.71 176.79 179.08 176.79 179.08 176.79 177.77 176.79 177.77 166.5 180.39 166.5 180.39 174.28 181.71 174.28"/><polygon class="cls-18" points="213.87 174.47 213.87 176.79 211.53 176.79 211.53 176.79 210.37 176.79 210.37 167.28 212.69 167.28 212.69 174.47 213.87 174.47"/><path class="cls-18" d="M226.87,174.6l-.56,1.09-.47.88-.12.22h-1.09v-9h2.19v6.8Z"/><rect class="cls-19" x="11.94" y="93.76" width="2.51" height="13.53"/><rect class="cls-19" x="26" y="113.05" width="2.51" height="13.53"/><rect class="cls-19" x="41.35" y="134.06" width="2.51" height="13.53"/><rect class="cls-20" x="11.94" y="115.11" width="2.51" height="13.53"/><rect class="cls-21" x="11.94" y="135.89" width="2.51" height="13.53"/><rect class="cls-20" x="26" y="134.96" width="2.51" height="13.53"/><rect class="cls-21" x="26" y="91.39" width="2.51" height="13.53"/><rect class="cls-21" x="41.35" y="111.38" width="2.51" height="13.53"/><rect class="cls-21" x="58.16" y="133.24" width="2.51" height="13.53"/><ellipse class="cls-22" cx="120" cy="210.73" rx="49.3" ry="12.7"/><path class="cls-23" d="M84,181.66S65.22,184,48.56,189.84C34.81,194.73,31.62,198,31.62,198l-6.79-8,0-.07c-1.29-1.67-2.54-3.37-3.72-5.12-.72-1.05-1.42-2.11-2.09-3.18Z"/><ellipse class="cls-24" cx="120.05" cy="209.09" rx="30.29" ry="7.14"/><path class="cls-23" d="M220.93,181.66c-.67,1.07-1.37,2.13-2.09,3.18q-1.83,2.68-3.83,5.27a0,0,0,0,0,0,0l-6.59,7.76a1.31,1.31,0,0,1-.11.12s-3.19-3.29-16.91-8.18c-16.62-5.89-35.33-8.18-35.33-8.18Z"/><path class="cls-25" d="M120,6c1,0,1.81,0,2.59,0h.19l.74,0h.25c.57,0,1.19,0,1.93.07h.37c.73,0,1.54.08,2.45.15l.23,0h.07l.16,0c.87.06,1.73.14,2.59.22l.29,0h0l.39,0,1.05.12h.14c.83.09,1.72.2,2.81.36l.75.11c.66.1,1.33.2,2,.32h0l.08,0,.35,0c.46.07.92.15,1.4.25s1.06.19,1.58.3l.14,0,.13,0a4.1,4.1,0,0,1,.48.1l.13,0,.13,0c.49.1,1,.2,1.49.32h.11l.76.17,0,0h.05c.85.2,1.71.4,2.56.63,1.52.38,3.13.83,4.73,1.32l1.95.61.14.05.17.06c.55.17,1.15.37,1.78.59l0,0h0c1.44.49,2.91,1,4.5,1.66.86.34,1.7.69,2.55,1.05s1.4.6,2.1.91l0,0h0l1.3.59.07,0,.08,0,.21.09.25.12c.55.25,1.09.51,1.58.75l.57.28c.41.21.83.41,1.28.65.62.32,1.35.69,2.06,1.09h0l0,0c1.43.76,2.91,1.6,4.55,2.59.47.27.93.56,1.41.85.9.56,1.85,1.17,2.89,1.87l0,0h0c.39.25.77.5,1.17.78,1.4.95,2.64,1.84,3.84,2.74.42.31.84.62,1.25.94l0,0h0c.52.4,1,.79,1.53,1.2l0,0,0,0,1.19.95.49.41c.19.15.38.3.56.46l0,0,.05,0c.55.45,1.09.92,1.6,1.36,1.28,1.11,2.51,2.22,3.64,3.31l.05,0,0,0,.16.16.05.05.06,0c.7.67,1.22,1.18,1.71,1.67l.11.12.07.06.06.06.13.13c.44.44.9.91,1.51,1.55l.15.16.06.06h0l.05.05,0,0c.59.62,1.15,1.23,1.74,1.88s1.23,1.36,1.8,2c.77.9,1.45,1.71,2.11,2.52.45.55.9,1.11,1.34,1.68l0,0,0,0c.44.56.92,1.18,1.5,2l0,.07.05.05.15.2,0,.05,0,0,.72,1,.38.53c.32.44.69,1,1,1.48l.05.08.05.07c.29.4.56.8.83,1.2l.18.27.11.16,0,.06,0,.06c.35.53.7,1.06,1,1.6l0,.06,0,.05c.45.68.87,1.37,1.27,2l.59,1,.55.93.71,1.24,0,.05,0,0c.37.63.73,1.28,1.09,2s.8,1.49,1.18,2.24.74,1.46,1.1,2.2c.08.18.17.36.25.53s.23.49.34.73l0,.06,0,.06.13.27c.1.22.21.44.31.68l.33.72.29.65.17.39.21.49,0,0v0l.27.62v0l.48,1.13c.28.64.55,1.31.83,2.05s.56,1.46.82,2.2c.75,2.05,1.47,4.24,2.15,6.51,0,.11.07.21.1.3.06.25.13.49.2.73.13.44.26.88.38,1.35.2.75.4,1.49.59,2.24l.05.17,0,.13,0,.17.05.18c.16.66.32,1.31.47,2,.55,2.39,1,4.89,1.43,7.43.13.84.24,1.67.36,2.51.21,1.55.39,3.21.56,5.1.05.56.1,1.13.14,1.68v.3l0,.2v0c.06.76.1,1.43.13,2v.12c.06.94.09,1.93.11,2.89s0,1.8,0,2.92,0,2,0,2.89c-.05,2.37-.19,4.82-.41,7.26l0,.33v.24c-.05.51-.11,1-.16,1.52v.18a4.35,4.35,0,0,1-.06.52V133c-.31,2.84-.75,5.72-1.3,8.59-.38,2-.78,3.81-1.23,5.6v.07c-.27,1.13-.53,2.12-.78,3h0l-.06.23,0,.09-.08.26-.06.24-.05.17,0,.07-.11.38c-.06.23-.13.46-.19.69s-.15.5-.22.76c-.17.56-.35,1.11-.53,1.67l0,0V155c-.19.61-.39,1.21-.6,1.81l0,0v0c-.2.6-.42,1.2-.63,1.8l-.11.29c-.34.95-.66,1.79-1,2.54s-.69,1.72-1.07,2.62-.67,1.56-1,2.38c0,.1-.09.2-.13.29-.28.63-.57,1.24-.86,1.86l-.14.29c0,.09-.08.17-.13.26l-.06.11-.05.12,0,.1-1.2,2.41c-.16.32-.33.65-.53,1l-.38.72-.11.2,0,0,0,.09-.56,1c-.11.2-.21.41-.33.61l-.05.08,0,.08c-.52,1-1.1,1.93-1.6,2.76l-.51.85-.52.83c-.33.54-.67,1.08-1,1.65s-.77,1.18-1.16,1.76l0,0,0,0-.43.63-.31.44c-.54.78-1,1.49-1.53,2.16l-.37.37-.21.42-.06.08c-.39.53-.78,1-1.19,1.58s-.87,1.13-1.33,1.69v0l0,0c-.53.66-1.07,1.32-1.62,2l0,.06,0,.06c-.25.3-.5.59-.76.88l-.23.28c-.27.31-.53.62-.8.92l-.21.25a113.35,113.35,0,0,1-8.43,8.55v0l0,0c-.52.48-1.05,1-1.59,1.43l-.28.25-.13.11-.11.09-.12.1c-.59.53-1.23,1.07-1.95,1.66l-.23.19,0,0-.06.05h0c-.58.48-1.22,1-2,1.61l0,0,0,0c-.59.47-1.2.95-1.84,1.42-1,.74-2,1.48-3,2.19l0,0,0,0c-.7.5-1.44,1-2.26,1.54-.56.38-1.16.77-1.83,1.2l-.05,0-.06,0c-.25.17-.51.34-.77.49l0,0-.05,0-1.53.94h0l-.2.12-.08,0-.15.07-.18.12-.66.39-.12.06-.12.07q-.47.28-.93.54l-.06,0-.06,0-1,.57c-.59.34-1.18.66-1.77,1L173,221l-.52.27h0c-1.24.66-2.49,1.28-3.71,1.84l-.05,0-.06,0-1.11.53h-.05c-.4.19-.81.37-1.21.54l-.37.17c-.53.23-1.06.47-1.64.7l-1.6.67-1.66.64h0l0,0c-1.56.61-3.2,1.19-5,1.79l-1,.32-.68.22c-2.92.91-5.86,1.71-8.75,2.37l-1.72.37c-1.14.24-2.08.43-3,.59h-.05c-.51.1-1,.19-1.54.27h-.11l-2.52.4-1.54.22c-1.34.17-2.66.32-3.93.44-.52.06-1.05.1-1.56.14l-.13,0c-1.53.13-3.17.23-5,.3l-1.22,0h-.13c-.37,0-.74,0-1.11,0h-.09L120,234l-1.89,0H118c-.36,0-.74,0-1.11,0h-.12l-1.25,0c-1.83-.07-3.46-.17-5-.31h-.12c-.52,0-1-.08-1.61-.14-1.23-.12-2.54-.27-3.92-.45-.51-.06-1-.14-1.52-.21l-2.51-.4h-.1c-.52-.08-1-.17-1.55-.27h0c-.88-.16-1.82-.35-3-.58l-1.74-.39c-2.87-.65-5.81-1.45-8.74-2.36l-.67-.22-1-.32c-1.8-.6-3.43-1.18-5-1.79l0,0h0l-1.62-.63-1.67-.69c-.54-.22-1.07-.46-1.57-.68l-.41-.18q-.6-.25-1.2-.54h0c-.37-.17-.74-.34-1.11-.53l-.06,0-.06,0c-1.15-.53-2.37-1.14-3.76-1.86L67,221l-.53-.28c-.59-.31-1.18-.63-1.79-1l-1-.56-.06,0-.07,0q-.47-.25-.93-.54l-.12-.07-.12-.06-.66-.39-.18-.12-.14-.07-.08,0-.2-.12h0l-1.51-.93-.36-.23c-.17-.11-.35-.21-.52-.33l0,0-.06,0c-.67-.43-1.27-.82-1.82-1.2l0,0,0,0c-.86-.56-1.7-1.14-2.4-1.64l-.18-.13-.48-.34-1.44-1-.33-.25-.46-.34-.11-.08c-.58-.44-1.15-.87-1.71-1.32l0,0,0,0c-1.5-1.17-3-2.44-4.55-3.76-.56-.49-1.29-1.14-2-1.79L43,204l-.07-.06-.53-.5-.25-.23-.08-.08c-.47-.43-.92-.87-1.35-1.28-1.45-1.4-2.84-2.82-4.15-4.24-.67-.71-1.32-1.43-2-2.2-.35-.39-.7-.78-1-1.19l-.07-.09-.08-.08c-.27-.3-.53-.62-.79-.93l0,0,0,0c-.84-1-1.68-2-2.49-3.09l0,0,0,0-.59-.76-.14-.17q-.62-.81-1.2-1.62l-.26-.43-.19-.18c-1.31-1.82-2.39-3.39-3.38-4.93l-1-1.63c-.18-.27-.35-.55-.52-.83l-.51-.84c-.49-.83-1.07-1.8-1.6-2.76l-.05-.08-.05-.09-.35-.63-.53-1-.05-.08-.05-.09,0,0-.12-.2c-.11-.22-.23-.45-.36-.68v-.21l-.77-1.28-.06-.12c-.32-.63-.65-1.3-1-2l-.06-.12-.06-.11-.12-.26-.15-.29L16,166.77c0-.09-.08-.19-.13-.29-.36-.82-.7-1.6-1-2.42s-.7-1.7-1-2.56l-.12-.3c-.12-.31-.24-.63-.35-.94l0-.08,0-.07c-.27-.71-.54-1.47-.8-2.21l-.06-.15v0l0-.06,0-.13c-.22-.6-.42-1.2-.63-1.81l-.07-.22-.1-.32q-.37-1.15-.75-2.4c-.11-.39-.23-.77-.33-1.15l0-.11,0-.12c-.08-.26-.16-.54-.23-.81,0-.08-.05-.16-.07-.25v0c-.25-.91-.5-1.9-.77-3v-.07c-.45-1.79-.86-3.62-1.24-5.63-.55-2.84-1-5.72-1.29-8.56v-.07l-.06-.52v-.25c-.06-.5-.11-1-.16-1.49l0-.36v0a2,2,0,0,0,0-.34v-.15c-.06-.7-.11-1.4-.16-2.06-.13-2-.2-3.73-.23-5.34v-.16c0-.15,0-.32,0-.48v-.54c0-.4,0-.8,0-1.21,0-1,0-2,0-2.78V117c0-.1,0-.2,0-.3v-.15c0-.88.05-1.6.09-2.29v-.51c0-.72.06-1.35.11-1.92v-.08c0-.66.1-1.32.16-2v0c.17-1.88.35-3.54.56-5.08.17-1.25.36-2.52.57-3.77s.45-2.56.69-3.7v-.06c.12-.59.24-1.19.38-1.78v-.06l0-.06.07-.33.06-.3L9,93.87l.19-.81.12-.5c.05-.2.09-.39.14-.57.14-.54.28-1.07.43-1.6l0-.09,0-.08L10,90l0-.16c0-.07,0-.13,0-.19.19-.68.38-1.35.6-2.06s.44-1.48.68-2.23c.41-1.28.82-2.49,1.25-3.7l0,0v0c.38-1.08.78-2.14,1.13-3L14,78l.23-.58L14.8,76h0l.12-.28c.05-.11.09-.23.14-.34l.06-.13.06-.13c.15-.38.33-.78.53-1.22l0-.06,0-.06.2-.45h0l.35-.77,0-.07.59-1.23v0l.44-.91c.76-1.58,1.48-3,2.21-4.32.23-.42.5-.92.78-1.41l.18-.3,0-.07L20.7,64c.22-.41.44-.81.68-1.2l0-.06,0-.05c.21-.38.45-.78.74-1.25l.5-.83c.45-.74.87-1.4,1.27-2l0-.05,0,0c.24-.39.51-.79.77-1.19l0,0,0,0c.4-.62.82-1.23,1.24-1.85L27,54.08c.57-.8,1.19-1.66,1.83-2.49l.05-.06,0-.06c.47-.64,1-1.29,1.43-1.87s.79-1,1.23-1.53l.06-.07.06-.08.35-.43.21-.26c.51-.61,1-1.22,1.55-1.83s1.19-1.35,1.81-2l0,0,0,0c.46-.52,1-1.07,1.68-1.81l0,0,0,0,0,0,.1-.1.17-.17c.4-.44.86-.91,1.48-1.53l.1-.1.12-.11.12-.12c.49-.5,1-1,1.74-1.7l.07-.07,0,0,.07-.07.19-.18c1.31-1.24,2.5-2.31,3.62-3.29h0l0,0c.54-.48,1.09-.94,1.68-1.43l.93-.76c.47-.4,1-.78,1.48-1.19l.17-.14,0,0,.1-.07.17-.14c.37-.29.69-.55,1-.77l.09-.08.1-.07,1-.74,0,0,0,0c1.55-1.16,3.13-2.28,4.69-3.31l0,0,0,0c.5-.34,1-.66,1.48-1l.13-.08.34-.21c.47-.31.94-.61,1.44-.91l1-.64c.63-.38,1.26-.75,1.9-1.11l.07,0,.07,0q.6-.36,1.32-.75l.06,0,.06,0,.55-.3.28-.15,1-.56h0c.93-.5,1.92-1,2.94-1.51h0l0,0c.65-.33,1.33-.65,2-1l0,0h0c.66-.31,1.28-.6,1.92-.88,2.31-1,4.47-1.9,6.64-2.7.57-.22,1.16-.42,1.74-.63l.06,0,.07,0,.38-.13,0,0h0c.67-.23,1.34-.46,2-.68s1.43-.47,2.14-.68l.16,0,.17,0c.64-.2,1.3-.39,1.94-.57C90.8,9.77,92.43,9.35,94,9l1.33-.29.09,0,.1,0,1-.21h0l1.09-.22h.07l.07,0c.42-.09.84-.16,1.28-.24h.09l1.59-.28h.08l.24,0c.66-.12,1.32-.22,2-.32l.39-.06.38-.06c1.07-.15,2-.26,2.8-.35h.13c.35,0,.71-.08,1.06-.12l.39,0h0l.3,0c.85-.08,1.7-.16,2.56-.22l.15,0h.31q1.22-.09,2.46-.15h.41c.71,0,1.33-.06,1.89-.07h.24l.78,0h.2c.75,0,1.59,0,2.56,0m0-6c-.92,0-1.85,0-2.76,0l-1.11,0c-.71,0-1.43,0-2.14.08l-.35,0c-.87,0-1.74.1-2.6.16l-.5,0c-.91.07-1.8.15-2.7.24h-.15c-.6.07-1.21.13-1.81.21-1,.11-2,.24-3,.38l-.83.12-2.1.34-.33.05L97.94,2c-.51.09-1,.18-1.52.29l-1.23.25-1.13.25-1.44.32q-2.58.6-5.1,1.31c-.71.2-1.42.4-2.12.62l-.22.06c-.77.23-1.54.48-2.31.73l-2.16.72-.62.22-1.85.67c-2.36.87-4.67,1.82-6.95,2.83-.69.3-1.37.62-2.05.94s-1.47.69-2.19,1c-1.07.52-2.13,1.06-3.17,1.62l-1.14.61L61.8,15c-.51.28-1,.56-1.52.86-.69.39-1.37.79-2.05,1.2l-1.11.68c-.52.32-1,.64-1.56,1l-.43.27c-.54.35-1.08.7-1.62,1.07q-2.55,1.68-5,3.51c-.4.29-.8.59-1.19.9s-.81.61-1.22.94c-.16.11-.31.24-.46.36-.52.41-1,.82-1.55,1.24l-1,.81c-.6.5-1.19,1-1.77,1.51-1.32,1.14-2.61,2.32-3.87,3.51l-.33.32c-.63.6-1.26,1.21-1.88,1.84l-.31.3c-.55.55-1.1,1.11-1.63,1.68-.12.11-.23.23-.34.35-.61.64-1.22,1.29-1.81,2s-1.29,1.43-1.92,2.15-1.09,1.28-1.63,1.93l-.66.81c-.47.56-.92,1.13-1.37,1.71s-1,1.33-1.53,2c-.68.88-1.33,1.78-2,2.68l-1,1.37q-.69,1-1.35,2c-.3.45-.6.9-.88,1.35-.46.71-.91,1.43-1.35,2.15l-.51.84c-.29.47-.57.94-.84,1.42s-.51.89-.76,1.34a3.1,3.1,0,0,0-.26.47c-.31.53-.6,1.06-.89,1.6-.81,1.49-1.58,3-2.32,4.54-.35.72-.7,1.45-1,2.18a0,0,0,0,0,0,0c-.24.5-.47,1-.69,1.52s-.43,1-.63,1.45c-.13.28-.24.56-.36.84l-.6,1.45-.48,1.22c-.42,1.08-.83,2.16-1.21,3.26-.47,1.3-.91,2.6-1.33,3.92-.25.78-.49,1.57-.72,2.35s-.43,1.46-.63,2.19c0,.06,0,.13,0,.19l-.12.47c-.16.57-.31,1.14-.46,1.72-.1.39-.19.78-.29,1.18L3,93.31,2.83,94c-.15.65-.29,1.31-.42,2-.27,1.3-.51,2.61-.73,3.92s-.42,2.64-.6,4c-.24,1.77-.43,3.56-.59,5.35-.07.71-.13,1.43-.18,2.15s-.1,1.44-.13,2.17c0,.13,0,.27,0,.4,0,.83-.08,1.66-.1,2.5,0,.2,0,.4,0,.59,0,1,0,2,0,3,0,.45,0,.89,0,1.34v.41c0,.24,0,.49,0,.73,0,1.89.12,3.76.24,5.63,0,.72.11,1.45.17,2.17,0,.15,0,.31,0,.46s0,.28,0,.42c0,.58.11,1.15.18,1.73,0,.25.05.51.08.76q.5,4.59,1.37,9.06c.38,2,.81,4,1.31,6,.26,1.08.53,2.15.82,3.21l.07.25c.09.33.19.67.29,1s.26.92.4,1.38q.39,1.32.81,2.61a.93.93,0,0,1,0,.13c.26.77.51,1.52.78,2.28,0,.13.08.25.13.37.28.79.56,1.58.86,2.36.17.48.36,1,.54,1.43.36.9.72,1.8,1.1,2.7s.74,1.73,1.12,2.59l.07.16c.32.71.64,1.4,1,2.1.12.24.23.48.35.71.36.77.74,1.53,1.12,2.28l0,.05.08.15h0c.21.42.43.83.65,1.25l.47.88.12.22.57,1.06c.15.28.3.56.46.83.55,1,1.13,2,1.72,3,0,0,0,0,0,0a1,1,0,0,1,.08.14c.32.53.65,1.06,1,1.59s.72,1.15,1.09,1.72c1.22,1.9,2.51,3.75,3.83,5.57l.05.07q.69.94,1.41,1.89l.8,1c.86,1.11,1.74,2.2,2.65,3.28.31.38.63.76,1,1.13s.78.91,1.18,1.36c.69.78,1.38,1.54,2.09,2.3q2.12,2.28,4.35,4.45L38,207.62c.31.29.62.59.94.87.7.65,1.41,1.28,2.13,1.91,1.56,1.36,3.16,2.69,4.79,4,.65.52,1.31,1,2,1.53l.86.64,2.11,1.53.05,0c.85.6,1.7,1.19,2.57,1.76.65.44,1.31.87,2,1.29l1,.63,1.64,1,.51.3c.32.2.64.39,1,.57s.76.45,1.14.66l1.09.62q1,.54,1.92,1.05l1.1.57c1.32.69,2.64,1.35,4,2l1.27.6,1.69.76,1.72.74,1.72.71,1.74.68c1.74.68,3.51,1.31,5.29,1.9l1.72.56c3,1,6.11,1.79,9.23,2.5l1.82.4c1,.22,2.08.43,3.13.62.58.11,1.17.22,1.76.31.88.15,1.76.29,2.65.42l1.63.23c1.36.18,2.74.34,4.12.47l1.78.16c1.75.15,3.5.25,5.27.32l1.35,0,1.37,0,2,0,2,0,1.37,0,1.35,0c1.77-.07,3.52-.17,5.27-.32l1.78-.16c1.38-.13,2.76-.29,4.12-.47l1.63-.23c.89-.13,1.77-.27,2.65-.42.59-.09,1.18-.2,1.76-.31,1.05-.19,2.09-.4,3.13-.62l1.82-.4c3.12-.71,6.2-1.55,9.23-2.5l1.72-.56c1.78-.59,3.55-1.22,5.29-1.9l1.74-.68,1.72-.71,1.72-.74,1.69-.76,1.27-.6c1.34-.62,2.67-1.28,4-2l1.1-.57q1-.51,1.92-1.05l1.09-.62q.57-.31,1.14-.66c.33-.18.65-.37,1-.57s.34-.2.51-.3l1.64-1,1-.63c.66-.42,1.32-.85,2-1.29.81-.54,1.62-1.08,2.41-1.65q1.6-1.12,3.18-2.31,1-.75,2-1.53c.79-.62,1.58-1.25,2.35-1.89l.08-.07c.72-.59,1.43-1.19,2.13-1.81.2-.16.39-.34.59-.51.59-.52,1.17-1,1.74-1.57a119.55,119.55,0,0,0,8.93-9.08l.11-.13.9-1c.38-.44.76-.87,1.12-1.32.58-.69,1.15-1.39,1.71-2.09s1-1.21,1.43-1.82.94-1.24,1.41-1.87l.22-.3,0,0c.65-.88,1.28-1.77,1.9-2.67.26-.38.53-.76.79-1.15.43-.63.85-1.27,1.26-1.91s.73-1.14,1.09-1.72.66-1.06,1-1.59a1,1,0,0,1,.08-.14s0,0,0,0c.59-1,1.17-2,1.72-3,.16-.27.31-.55.46-.83l.57-1.06.12-.22.47-.88.56-1.09h0c.05-.11.11-.21.16-.32l0-.05c.38-.75.76-1.51,1.12-2.28.12-.23.23-.47.35-.71.33-.7.65-1.39,1-2.1l.07-.16c.38-.86.76-1.72,1.12-2.59s.74-1.8,1.1-2.7.69-1.8,1-2.71c.27-.75.54-1.49.79-2.24s.45-1.32.66-2,.41-1.26.6-1.9.29-1,.43-1.5a1.87,1.87,0,0,0,.07-.22c.06-.21.12-.41.17-.62s.12-.42.18-.63c.29-1.06.56-2.13.82-3.21.5-2,.93-3.95,1.31-6q.87-4.47,1.37-9.06c0-.25.06-.5.08-.75.06-.54.12-1.09.17-1.64,0-.17,0-.34.05-.51.23-2.56.38-5.13.44-7.73,0-1,0-2,0-3s0-2.07,0-3.1-.06-2.05-.12-3.07c0-.77-.08-1.53-.14-2.28l0-.42c0-.63-.1-1.27-.16-1.9-.16-1.79-.35-3.57-.59-5.34-.12-.88-.24-1.74-.37-2.61q-.63-4-1.51-7.86-.24-1.07-.51-2.13c0-.21-.1-.43-.15-.64-.2-.78-.41-1.56-.62-2.34s-.42-1.49-.63-2.24l-.09-.29c-.69-2.31-1.44-4.6-2.26-6.85-.28-.77-.57-1.53-.86-2.29s-.59-1.51-.91-2.26v0c-.26-.63-.52-1.26-.8-1.88l-.39-.91-.63-1.4c-.16-.36-.33-.71-.5-1.07s-.44-.93-.66-1.4c-.38-.78-.77-1.55-1.16-2.32s-.83-1.61-1.26-2.4-.77-1.41-1.17-2.1c-.25-.45-.51-.9-.77-1.35l-1.18-2c-.46-.75-.92-1.49-1.4-2.22s-.75-1.17-1.13-1.74c-.12-.19-.25-.37-.37-.55q-.45-.67-.93-1.35c-.38-.57-.78-1.13-1.18-1.68l-1.14-1.56L216,48c-.53-.71-1.07-1.42-1.62-2.11s-1-1.21-1.45-1.81c-.72-.89-1.46-1.77-2.21-2.64-.63-.72-1.27-1.44-1.92-2.15s-1.2-1.31-1.82-2c-.1-.11-.2-.22-.31-.32-.54-.57-1.09-1.14-1.66-1.7q-.14-.15-.3-.3c-.61-.62-1.23-1.22-1.85-1.81l-.35-.34q-1.87-1.79-3.84-3.49c-.57-.49-1.14-1-1.72-1.46-.37-.32-.76-.63-1.14-1l-1.34-1.07-1.63-1.27c-.45-.35-.91-.69-1.37-1-1.32-1-2.66-1.94-4-2.87-.42-.29-.85-.57-1.28-.85-1-.68-2-1.34-3.08-2-.5-.31-1-.62-1.51-.92-1.57-.94-3.16-1.85-4.77-2.71-.73-.4-1.46-.78-2.2-1.16s-1.27-.64-1.91-1L171,11.34l-.55-.25c-.5-.24-1-.47-1.51-.69-.74-.33-1.48-.66-2.22-1l-2.65-1.09q-2.37-.93-4.78-1.76c-.67-.24-1.35-.47-2-.68L157,5.82l-2-.64q-2.49-.75-5-1.4c-.89-.23-1.79-.45-2.69-.66l-1-.22c-.56-.13-1.13-.25-1.69-.36q-.44-.1-.87-.18c-.59-.13-1.19-.24-1.79-.35s-1.06-.2-1.6-.28a1.86,1.86,0,0,0-.34-.06l-2.1-.34-.83-.12c-1-.14-2-.27-3-.38-.6-.08-1.21-.14-1.81-.21h-.15c-.9-.09-1.81-.17-2.72-.24l-.45,0c-.88-.07-1.77-.13-2.65-.17l-.31,0c-.73,0-1.45-.07-2.18-.08l-1.07,0c-.93,0-1.85,0-2.78,0Z"/></svg>