<svg id="图层_1" data-name="图层 1" xmlns="http://www.w3.org/2000/svg" viewBox="0 0 106 106"><defs><style>.cls-1{fill:#516c90;}.cls-2{fill:none;}.cls-2,.cls-4{stroke:#fbf9f4;stroke-linecap:round;stroke-linejoin:round;stroke-width:2px;}.cls-3,.cls-4{fill:#fbf9f4;}</style></defs><circle class="cls-1" cx="53" cy="53" r="53"/><rect class="cls-2" x="23.21" y="37.97" width="59.57" height="30.06"/><line class="cls-2" x1="18.32" y1="37.97" x2="87.68" y2="37.97"/><polyline class="cls-2" points="70.64 37.97 70.64 68.03 82.79 68.03"/><line class="cls-2" x1="23.22" y1="45.49" x2="82.79" y2="45.49"/><line class="cls-2" x1="23.22" y1="53" x2="82.79" y2="53"/><line class="cls-2" x1="23.22" y1="60.51" x2="82.79" y2="60.51"/><line class="cls-2" x1="54.83" y1="53" x2="54.83" y2="60.51"/><line class="cls-2" x1="70.64" y1="60.51" x2="70.64" y2="68.02"/><rect class="cls-3" x="39.02" y="37.97" width="10.54" height="7.51"/><rect class="cls-4" x="60.1" y="37.97" width="10.54" height="7.51"/><rect class="cls-3" x="54.83" y="45.49" width="15.81" height="7.51"/><rect class="cls-3" x="23.21" y="45.49" width="15.81" height="7.51"/><rect class="cls-3" x="33.75" y="53" width="21.08" height="7.51"/><rect class="cls-3" x="23.22" y="60.51" width="10.54" height="7.51"/><rect class="cls-3" x="49.56" y="60.51" width="10.54" height="7.51"/></svg>