<svg id="图层_1" data-name="图层 1" xmlns="http://www.w3.org/2000/svg" viewBox="0 0 240 240"><defs><style>.cls-1{fill:#fff;}.cls-2{fill:#f9f1d8;}.cls-3{fill:#e6e6e6;}.cls-4{fill:#98c9cd;}.cls-5{fill:#6198a6;}.cls-6{fill:#aca698;}.cls-7{fill:#534741;}.cls-8{fill:#5f4f43;}.cls-9{fill:#736357;}.cls-10{fill:#b6ce6f;}.cls-11{opacity:0.21;}.cls-12,.cls-17{opacity:0.1;}.cls-13,.cls-14,.cls-15{fill:none;}.cls-13{stroke:#4d4d4d;}.cls-13,.cls-15{stroke-miterlimit:10;}.cls-14{stroke:#736357;stroke-linecap:round;stroke-linejoin:round;}.cls-15{stroke:#75acba;stroke-width:2px;}.cls-16{opacity:0.06;}.cls-18{fill:#2c9885;}.cls-19{fill:#6580a4;}</style></defs><path class="cls-1" d="M240,120c0,.72,0,1.44,0,2.15l-.06,2.15c0,.79-.06,1.57-.11,2.36a1.7,1.7,0,0,1,0,.22c-.06,1.14-.14,2.27-.24,3.4l0,.33s0,.06,0,.09c0,.42-.07.84-.12,1.27s-.11,1.12-.18,1.68q-.45,4.24-1.25,8.38c0,.23-.08.45-.12.68-.38,2-.81,4-1.31,6-.26,1.07-.53,2.13-.82,3.19l-.06.22q-.67,2.43-1.44,4.82c-.44,1.37-.91,2.73-1.4,4.08-.22.62-.45,1.24-.69,1.85l-.33.86c-.35.9-.72,1.8-1.09,2.69-.05.13-.11.25-.16.38-.36.85-.73,1.69-1.11,2.53l0,.07c0,.08-.07.15-.1.22q-1.41,3.1-3,6.11-1.11,2.13-2.32,4.22h0c-.2.35-.4.7-.61,1.05-.82,1.4-1.68,2.78-2.56,4.14-.53.82-1.07,1.63-1.63,2.44s-1.11,1.61-1.68,2.4-1.15,1.58-1.74,2.36-1.11,1.45-1.68,2.17l-.11.14c-1.39,1.74-2.82,3.45-4.3,5.11-.7.79-1.41,1.57-2.14,2.34s-1.55,1.64-2.35,2.44c-.38.39-.78.78-1.17,1.16s-.79.77-1.19,1.15c-.79.77-1.6,1.52-2.42,2.25s-1.65,1.47-2.49,2.19c-.41.36-.83.71-1.26,1.06s-.85.71-1.28,1.05l-.92.74q-3.44,2.73-7.06,5.19l-1.38.92c-.47.32-.95.63-1.43.93l-1.56,1c-.52.33-1.05.65-1.58,1-1.35.81-2.71,1.59-4.1,2.35l-1.35.72q-2.15,1.14-4.34,2.18c-.54.27-1.09.52-1.65.78q-3.81,1.74-7.75,3.23l-1.58.58-1.59.56q-4.8,1.65-9.76,2.9l-1.58.39-.15,0-1.6.36-1.53.33-.36.07-1.48.29-1.69.31q-3.41.6-6.86,1l-1.55.17-2.12.21-1.43.11-.24,0-1.64.1c-.59,0-1.17.07-1.76.09l-1.66.07h-.11c-1.18,0-2.37.05-3.56.05s-2.41,0-3.61-.05c-1.81-.06-3.61-.15-5.4-.28-.59,0-1.17-.09-1.75-.15-3-.26-5.93-.64-8.84-1.11-1.71-.29-3.4-.6-5.08-.95l-1.71-.37c-1.13-.26-2.25-.53-3.37-.81l-1.7-.45c-1.11-.3-2.21-.62-3.3-1s-2-.63-3-1l-.23-.08c-1.09-.36-2.17-.74-3.24-1.13l-.07,0c-1.05-.4-2.09-.79-3.13-1.21s-2.13-.86-3.18-1.32l-1.53-.68-1.54-.71L67.64,228l-1.43-.71c-.51-.25-1-.51-1.51-.77-1-.52-2-1.06-3-1.61q-2.55-1.41-5-2.93l-1.26-.8-1-.64c-.47-.3-.94-.62-1.4-.93l-1.4-1c-.46-.32-.92-.64-1.37-1q-2.07-1.47-4.06-3t-3.9-3.18l-1.28-1.1-1.25-1.11-.76-.69c-.35-.31-.7-.64-1-1A119.93,119.93,0,0,1,25,193.27l0-.05c-.44-.57-.87-1.14-1.3-1.72l-.25-.33q-.7-.94-1.38-1.92-1.44-2-2.81-4.14c-.88-1.36-1.74-2.74-2.56-4.14-.21-.35-.41-.7-.61-1.05h0q-1.22-2.08-2.32-4.22a116.2,116.2,0,0,1-5.49-12c-.18-.47-.37-.95-.54-1.43a113.77,113.77,0,0,1-4.2-13.59c-.5-2-.93-3.95-1.31-6,0-.23-.09-.45-.12-.68q-.79-4.14-1.25-8.38Q.68,132.81.6,132c0-.43-.08-.85-.12-1.27,0,0,0-.06,0-.09l0-.33c-.1-1.13-.18-2.26-.24-3.4a1.7,1.7,0,0,1,0-.22c0-.79-.08-1.57-.11-2.36L0,122.15c0-.71,0-1.43,0-2.15,0-1,0-1.89,0-2.83s0-1.66.09-2.48.07-1.51.12-2.26.09-1.45.15-2.17c0-.42.07-.84.11-1.26,0-.18,0-.36,0-.54,0-.5.11-1,.16-1.51s.11-1,.17-1.54.16-1.26.25-1.89.21-1.46.32-2.2c.22-1.46.48-2.91.77-4.35.13-.66.26-1.33.4-2,.07-.36.14-.71.23-1.06q.18-.86.39-1.71c0-.16.07-.32.11-.47.16-.68.33-1.35.51-2s.42-1.58.64-2.37.44-1.53.67-2.29.45-1.46.69-2.19a.5.5,0,0,1,0-.13c.24-.73.48-1.46.74-2.19s.52-1.49.8-2.23.55-1.47.84-2.2c.15-.4.31-.79.47-1.18s.37-.92.57-1.38c.28-.67.57-1.34.87-2s.57-1.29.87-1.93.7-1.5,1.06-2.24c.13-.27.26-.53.4-.79.29-.61.6-1.21.91-1.8q.62-1.2,1.26-2.37T16,60.09q.48-.84,1-1.68c.33-.55.67-1.1,1-1.65.68-1.1,1.38-2.19,2.1-3.26.36-.54.72-1.08,1.09-1.61q1.1-1.59,2.25-3.15c.38-.52.77-1,1.16-1.54s.79-1,1.19-1.53.8-1,1.21-1.51l1-1.22.5-.58c.32-.39.65-.77,1-1.15.61-.71,1.24-1.41,1.88-2.1.44-.5.91-1,1.38-1.49.65-.7,1.32-1.39,2-2.07.26-.27.53-.54.8-.8q.63-.64,1.29-1.26l.67-.64c.59-.57,1.19-1.12,1.8-1.67s1-.92,1.53-1.36l1-.85c.5-.44,1-.86,1.51-1.28l1.46-1.19c.5-.41,1-.8,1.5-1.19s1-.8,1.55-1.19l1.41-1a2.26,2.26,0,0,1,.26-.2l1.46-1c.52-.37,1.05-.74,1.59-1.1l1.35-.91.6-.39,1.29-.83c1-.67,2.1-1.31,3.17-1.94a2,2,0,0,1,.34-.2c.49-.3,1-.58,1.48-.86s1.13-.64,1.7-.95,1.14-.62,1.72-.92q1.73-.91,3.48-1.77l1.68-.79a.34.34,0,0,1,.12-.06c.58-.27,1.16-.54,1.74-.79,1.35-.61,2.71-1.18,4.09-1.73.35-.15.7-.28,1.06-.42,1-.41,2.1-.81,3.16-1.18l1.23-.44,1.46-.49,1.88-.61,1.14-.35,1.31-.39,1.16-.32c.75-.22,1.52-.42,2.29-.62s1.51-.38,2.27-.56l1.27-.29C95,2.59,96.53,2.28,98,2l1.22-.22c.54-.1,1.08-.19,1.63-.27,1-.17,2-.32,3.08-.46L105.25.9q.94-.12,1.89-.21c.43-.06.87-.1,1.31-.13.59-.07,1.19-.12,1.79-.16.3,0,.59-.06.89-.07C112,.26,112.9.2,113.79.16h0c.92,0,1.85-.09,2.77-.11l.72,0c.89,0,1.79,0,2.69,0s1.8,0,2.69,0l.72,0c.92,0,1.85.06,2.77.11h0c.89,0,1.78.1,2.66.17.3,0,.59,0,.89.07.6,0,1.2.09,1.79.16.44,0,.88.07,1.31.13q.94.09,1.89.21l1.28.16c1,.14,2.06.29,3.08.46.55.08,1.09.17,1.63.27L142,2c1.51.27,3,.58,4.49.92l1.27.29c.76.18,1.52.36,2.27.56s1.54.4,2.29.62l1.16.32,1.31.39,1.14.35,1.88.61,1.46.49,1.23.44c1.06.37,2.12.77,3.16,1.18.36.14.71.27,1.06.42,1.38.55,2.74,1.12,4.09,1.73.58.25,1.16.52,1.74.79a.34.34,0,0,1,.12.06l1.68.79q1.75.85,3.48,1.77c.58.3,1.15.61,1.72.92s1.13.62,1.7.95,1,.56,1.48.86a2,2,0,0,1,.34.2c1.07.63,2.13,1.27,3.17,1.94l1.29.83.6.39,1.35.91c.54.36,1.07.73,1.59,1.1l1.46,1a2.26,2.26,0,0,1,.26.2l1.41,1c.52.39,1,.78,1.55,1.19s1,.78,1.5,1.19l1.46,1.19c.51.42,1,.84,1.51,1.28l1,.85c.52.44,1,.89,1.53,1.36s1.21,1.1,1.8,1.67l.67.64q.66.61,1.29,1.26c.27.26.54.53.8.8.68.68,1.35,1.37,2,2.07.47.49.94,1,1.38,1.49.64.69,1.27,1.39,1.88,2.1.34.38.67.76,1,1.15l.5.58,1,1.22c.41.5.81,1,1.21,1.51s.8,1,1.19,1.53.78,1,1.16,1.54q1.17,1.56,2.25,3.15c.37.53.73,1.07,1.09,1.61.72,1.07,1.42,2.16,2.1,3.26.34.55.68,1.1,1,1.65s.67,1.12,1,1.68q.67,1.15,1.32,2.34t1.26,2.37c.31.59.62,1.19.92,1.8l.39.79c.36.74.71,1.49,1.06,2.24s.59,1.28.87,1.93.59,1.33.87,2q.3.69.57,1.38c.16.39.32.78.47,1.18.29.73.57,1.47.84,2.2s.55,1.49.8,2.23.5,1.46.74,2.19a.5.5,0,0,1,0,.13q.36,1.09.69,2.19c.23.76.45,1.52.67,2.29s.44,1.58.64,2.37.35,1.34.51,2c0,.15.08.31.11.47q.21.86.39,1.71c.09.35.16.7.23,1.06.14.66.27,1.33.4,2,.29,1.44.55,2.89.77,4.35.11.74.22,1.47.32,2.2s.17,1.26.25,1.89.12,1,.17,1.54.11,1,.16,1.51c0,.18,0,.36,0,.54,0,.42.08.84.11,1.26.06.72.11,1.45.15,2.17s.09,1.51.12,2.26.07,1.65.09,2.48S240,119.05,240,120Z"/><path class="cls-2" d="M240,117.17c0-.83-.05-1.66-.09-2.48h-14.2V97h12.11c-.13-.66-.26-1.33-.4-2-.07-.36-.14-.71-.23-1.06q-.18-.86-.39-1.71c0-.16-.07-.32-.11-.47-.16-.68-.33-1.35-.51-2s-.42-1.58-.64-2.37h-9.83V69.63h3.27c-.35-.75-.7-1.5-1.06-2.24l-.39-.79c-.3-.61-.61-1.21-.92-1.8q-.62-1.2-1.26-2.37T224,60.09H16q-.68,1.15-1.32,2.34T13.43,64.8c-.31.59-.62,1.19-.91,1.8-.14.26-.27.52-.4.79-.36.74-.71,1.49-1.06,2.24h6.66V87.35H4.5c-.22.79-.44,1.58-.64,2.37s-.35,1.34-.51,2c0,.15-.08.31-.11.47q-.21.86-.39,1.71c-.09.35-.16.7-.23,1.06-.14.66-.27,1.33-.4,2h15.5v17.72H.13c0,.82-.07,1.65-.09,2.48s0,1.88,0,2.83c0,.72,0,1.44,0,2.15l.06,2.15H17.72V142H2c0,.23.08.45.12.68.38,2,.81,4,1.31,6a113.77,113.77,0,0,0,4.2,13.59c.17.48.36,1,.54,1.43a116.2,116.2,0,0,0,5.49,12q1.11,2.13,2.32,4.22H39.84V69.63H216.57V87.35H120v92.56h17.31V149.42h66.13v30.49H224q1.22-2.08,2.32-4.22,1.59-3,3-6.11c0-.07.07-.14.1-.22H216.57V152.08h19.09l.06-.22c.29-1.06.56-2.12.82-3.19.5-2,.93-3.95,1.31-6,0-.23.09-.45.12-.68H128.62V124.3h111.3l.06-2.15c0-.71,0-1.43,0-2.15C240,119.05,240,118.11,240,117.17Zm-23.39-2.48H128.62V97h87.95Z"/><rect class="cls-3" x="164.34" y="154.73" width="12.07" height="19.12"/><rect class="cls-4" x="39.85" y="69.63" width="13.1" height="110.28"/><rect class="cls-4" x="60.23" y="69.63" width="16.06" height="110.28"/><rect class="cls-4" x="83.57" y="69.63" width="16.06" height="110.28"/><rect class="cls-4" x="106.9" y="69.63" width="13.1" height="110.28"/><rect class="cls-5" x="120" y="69.63" width="96.57" height="17.72"/><rect class="cls-5" x="128.62" y="96.97" width="87.95" height="17.72"/><path class="cls-5" d="M239.92,124.3q-.16,4.73-.7,9.35-.45,4.24-1.25,8.38H128.62V124.3Z"/><path class="cls-6" d="M17.72,69.63V87.35H4.5a117.38,117.38,0,0,1,6.56-17.72Z"/><path class="cls-6" d="M17.72,97v17.72H.13A117.5,117.5,0,0,1,2.22,97Z"/><path class="cls-6" d="M17.72,124.3V142H2q-.79-4.14-1.25-8.38Q.24,129,.08,124.3Z"/><rect class="cls-7" x="164.34" y="173.85" width="12.07" height="2.02"/><rect class="cls-8" x="164.34" y="175.87" width="12.07" height="2.02"/><rect class="cls-9" x="164.34" y="177.89" width="12.07" height="2.02"/><rect class="cls-9" x="176.41" y="173.85" width="27.03" height="6.06"/><rect class="cls-9" x="137.31" y="154.73" width="2.86" height="19.12"/><rect class="cls-9" x="200.58" y="154.73" width="2.86" height="19.12"/><polygon class="cls-3" points="200.58 154.73 200.58 173.85 176.41 173.85 176.41 173.84 179.27 173.84 179.27 154.73 200.58 154.73"/><path class="cls-5" d="M216.57,151.86v17.72h12.74c0-.07.07-.14.1-.22q1.26-2.79,2.39-5.67l.33-.86c.24-.61.47-1.23.69-1.85,1.06-2.92,2-5.88,2.84-8.9l.06-.22Z"/><path class="cls-5" d="M235.5,87.35h-9.83V69.63h3.27A117.38,117.38,0,0,1,235.5,87.35Z"/><path class="cls-5" d="M239.87,114.69h-14.2V97h12.11A117.5,117.5,0,0,1,239.87,114.69Z"/><path class="cls-10" d="M39.84,179.92,25,193.27c-2-2.63-4-5.36-5.78-8.16-1.1-1.7-2.17-3.43-3.17-5.19Z"/><polygon class="cls-3" points="164.34 173.84 164.34 173.85 140.17 173.85 140.17 154.73 161.48 154.73 161.48 173.84 164.34 173.84"/><rect class="cls-9" x="137.31" y="173.85" width="27.03" height="6.06"/><polygon class="cls-3" points="203.44 194.62 184.31 194.62 162.91 179.91 177.84 179.91 203.44 194.62"/><path class="cls-10" d="M224,179.92c-1,1.76-2.07,3.49-3.17,5.19-2.13,3.28-4.41,6.46-6.84,9.51H203.44l-25.6-14.7Z"/><polygon class="cls-10" points="184.31 194.62 137.31 194.62 120 179.92 163.09 179.92 184.31 194.62"/><rect class="cls-9" x="161.48" y="154.73" width="2.86" height="19.12"/><rect class="cls-9" x="176.41" y="154.73" width="2.86" height="19.12"/><rect class="cls-11" x="39.85" y="69.63" width="80.15" height="11"/><rect class="cls-12" x="39.85" y="69.63" width="9" height="110.28"/><rect class="cls-12" x="203.44" y="152.07" width="6.87" height="27.83"/><line class="cls-13" x1="148.38" y1="154.72" x2="148.38" y2="173.84"/><line class="cls-13" x1="157.18" y1="154.72" x2="157.18" y2="173.84"/><line class="cls-13" x1="183.58" y1="154.71" x2="183.58" y2="173.83"/><line class="cls-13" x1="192.38" y1="154.72" x2="192.38" y2="173.84"/><line class="cls-14" x1="202.01" y1="169.36" x2="177.84" y2="169.36"/><line class="cls-14" x1="202.01" y1="171.86" x2="177.84" y2="171.86"/><line class="cls-14" x1="162.91" y1="169.36" x2="138.74" y2="169.36"/><line class="cls-14" x1="162.91" y1="171.86" x2="138.74" y2="171.86"/><line class="cls-15" x1="136.36" y1="69.63" x2="136.36" y2="87.35"/><line class="cls-15" x1="152.33" y1="69.64" x2="152.33" y2="87.36"/><line class="cls-15" x1="168.29" y1="69.63" x2="168.29" y2="87.35"/><line class="cls-15" x1="184.25" y1="69.64" x2="184.25" y2="87.36"/><line class="cls-15" x1="200.21" y1="69.64" x2="200.21" y2="87.36"/><line class="cls-15" x1="136.36" y1="96.97" x2="136.36" y2="114.69"/><line class="cls-15" x1="152.33" y1="96.98" x2="152.33" y2="114.7"/><line class="cls-15" x1="168.29" y1="96.97" x2="168.29" y2="114.69"/><line class="cls-15" x1="184.25" y1="96.98" x2="184.25" y2="114.7"/><line class="cls-15" x1="200.21" y1="96.97" x2="200.21" y2="114.69"/><line class="cls-15" x1="136.36" y1="124.3" x2="136.36" y2="142.02"/><line class="cls-15" x1="152.33" y1="124.31" x2="152.33" y2="142.03"/><line class="cls-15" x1="168.29" y1="124.3" x2="168.29" y2="142.02"/><line class="cls-15" x1="184.25" y1="124.31" x2="184.25" y2="142.03"/><line class="cls-15" x1="200.21" y1="124.3" x2="200.21" y2="142.02"/><line class="cls-15" x1="216.17" y1="124.32" x2="216.17" y2="142.04"/><line class="cls-15" x1="232.13" y1="124.3" x2="232.13" y2="142.03"/><polyline class="cls-15" points="232.13 159.43 232.13 152.01 232.13 151.86"/><line class="cls-15" x1="39.85" y1="85.18" x2="120.01" y2="85.18"/><line class="cls-15" x1="39.85" y1="104.97" x2="120" y2="104.97"/><line class="cls-15" x1="39.85" y1="124.77" x2="120.01" y2="124.77"/><line class="cls-15" x1="39.85" y1="144.57" x2="120" y2="144.57"/><line class="cls-15" x1="39.85" y1="164.36" x2="120" y2="164.36"/><rect class="cls-2" x="99.62" y="69.63" width="7.28" height="110.28"/><rect class="cls-2" x="76.29" y="69.63" width="7.28" height="110.28"/><rect class="cls-2" x="52.95" y="69.63" width="7.28" height="110.28"/><rect class="cls-16" x="52.95" y="69.63" width="7.28" height="110.28"/><rect class="cls-12" x="57.6" y="69.63" width="2.63" height="110.28"/><rect class="cls-16" x="76.28" y="69.63" width="7.28" height="110.28"/><rect class="cls-12" x="80.94" y="69.63" width="2.63" height="110.28"/><rect class="cls-16" x="99.62" y="69.63" width="7.28" height="110.28"/><rect class="cls-12" x="104.28" y="69.63" width="2.63" height="110.28"/><g class="cls-17"><path d="M142.34,149.83c0,.42.3.68.82.68s.7-.16.7-.54-.2-.49-.75-.68c-.84-.29-1.15-.63-1.15-1.15s.47-1.23,1.52-1.23,1.48.49,1.5,1.22h-.86c0-.25-.13-.56-.68-.56-.35,0-.61.16-.61.48s.13.37.66.56c.84.29,1.26.63,1.26,1.25s-.4,1.3-1.67,1.3c-1,0-1.58-.52-1.6-1.33Z"/><path d="M146.57,147.66h-1.21l.15-.69h3.26l-.15.69h-1.21l-.72,3.44h-.85Z"/><path d="M149.06,150.12l-.51,1h-.89l2.23-4.13H151l.53,4.13h-.84l-.13-1Zm1.43-.69c-.1-.85-.16-1.44-.18-1.82h0c-.19.42-.52,1.08-.91,1.82Z"/><path d="M153.19,149.42l-.36,1.68H152l.88-4.13h1.58c.79,0,1.26.4,1.26,1.08a1.08,1.08,0,0,1-.85,1.08c.16.08.48.28.34,1a3.65,3.65,0,0,0-.14,1h-.81a3.48,3.48,0,0,1,.12-1c.1-.45,0-.69-.44-.69Zm.14-.68H154c.49,0,.82-.17.82-.61s-.17-.49-.59-.49h-.69Z"/><path d="M156.74,147h1.58c.83,0,1.22.45,1.22,1a1,1,0,0,1-.73,1,.89.89,0,0,1,.53.81c0,.84-.65,1.29-1.62,1.29h-1.85Zm.1,3.48h.81c.46,0,.8-.21.8-.65s-.19-.53-.7-.53h-.67Zm1.1-1.84c.42,0,.74-.15.74-.54s-.28-.45-.56-.45h-.69l-.21,1Z"/><path d="M161.43,147l-.55,2.55c-.14.67.13,1,.67,1s.79-.26.93-.91L163,147h.85l-.57,2.68a1.65,1.65,0,0,1-1.84,1.51c-1,0-1.69-.45-1.42-1.7l.53-2.49Z"/><path d="M167.55,149.81a1.84,1.84,0,0,1-1.9,1.35,1.47,1.47,0,0,1-1.55-1.67,2.37,2.37,0,0,1,2.22-2.58,1.35,1.35,0,0,1,1.52,1.37H167a.65.65,0,0,0-.73-.7c-.82,0-1.23,1-1.23,1.9,0,.56.19,1,.75,1a1,1,0,0,0,.91-.67Z"/><path d="M168.79,147h.84l-.4,1.84c.34-.35,1.33-1.22,2-1.84h1l-2,1.76,1.19,2.37h-.94l-.89-1.87-.56.43-.3,1.44h-.84Z"/><path d="M172.62,149.83c0,.42.3.68.82.68s.7-.16.7-.54-.2-.49-.75-.68c-.84-.29-1.15-.63-1.15-1.15s.47-1.23,1.52-1.23,1.48.49,1.5,1.22h-.86c0-.25-.13-.56-.68-.56-.35,0-.61.16-.61.48s.13.37.67.56c.83.29,1.25.63,1.25,1.25s-.4,1.3-1.67,1.3c-1,0-1.58-.52-1.6-1.33Z"/></g><rect class="cls-9" x="137.31" y="149.42" width="66.13" height="5.31"/><path class="cls-18" d="M138.26,147.86a.72.72,0,0,0,.82.68c.45,0,.71-.17.71-.54s-.2-.49-.75-.68c-.84-.29-1.15-.63-1.15-1.15s.47-1.24,1.51-1.24,1.49.5,1.5,1.22H140c0-.25-.13-.56-.67-.56-.35,0-.61.16-.61.49s.13.37.66.56c.84.29,1.26.63,1.26,1.25s-.4,1.3-1.68,1.3c-1,0-1.57-.52-1.6-1.33Z"/><path class="cls-18" d="M142.49,145.69h-1.2l.15-.7h3.25l-.15.7h-1.2l-.73,3.44h-.84Z"/><path class="cls-18" d="M145,148.15l-.51,1h-.89l2.22-4.14h1.07l.54,4.14h-.85l-.13-1Zm1.42-.69c-.1-.86-.16-1.44-.18-1.82h0c-.19.41-.53,1.08-.91,1.82Z"/><path class="cls-18" d="M149.12,147.44l-.36,1.69h-.84l.88-4.14h1.57c.79,0,1.26.41,1.26,1.09a1.08,1.08,0,0,1-.85,1.08c.17.08.49.28.34,1a3.56,3.56,0,0,0-.14,1h-.8a3.14,3.14,0,0,1,.12-1c.09-.45,0-.7-.44-.7Zm.13-.67h.7c.48,0,.82-.17.82-.61s-.18-.49-.6-.49h-.68Z"/><path class="cls-18" d="M152.67,145h1.57c.83,0,1.23.45,1.23,1a1,1,0,0,1-.73,1,.9.9,0,0,1,.52.82c0,.83-.65,1.29-1.62,1.29h-1.85Zm.09,3.48h.82c.45,0,.79-.21.79-.64s-.18-.53-.69-.53H153Zm1.11-1.83c.42,0,.73-.15.73-.54s-.28-.45-.55-.45h-.69l-.21,1Z"/><path class="cls-18" d="M157.35,145l-.55,2.55c-.14.67.14,1,.67,1s.79-.26.93-.91L159,145h.85l-.57,2.69a1.64,1.64,0,0,1-1.84,1.51c-1,0-1.68-.45-1.42-1.7l.54-2.5Z"/><path class="cls-18" d="M163.47,147.83a1.81,1.81,0,0,1-1.89,1.36,1.47,1.47,0,0,1-1.56-1.67,2.38,2.38,0,0,1,2.22-2.59,1.36,1.36,0,0,1,1.53,1.37h-.88a.66.66,0,0,0-.74-.69c-.82,0-1.22,1-1.22,1.9,0,.56.18,1,.74,1a1,1,0,0,0,.92-.68Z"/><path class="cls-18" d="M164.72,145h.83l-.39,1.85c.33-.35,1.32-1.22,2-1.85h1l-2,1.76,1.18,2.38h-.93l-.89-1.88-.57.44-.3,1.44h-.84Z"/><path class="cls-18" d="M168.54,147.86a.73.73,0,0,0,.83.68c.44,0,.7-.17.7-.54s-.2-.49-.75-.68c-.84-.29-1.15-.63-1.15-1.15s.47-1.24,1.51-1.24,1.49.5,1.5,1.22h-.86c0-.25-.13-.56-.67-.56-.35,0-.61.16-.61.49s.13.37.66.56c.84.29,1.26.63,1.26,1.25s-.4,1.3-1.68,1.3c-1,0-1.57-.52-1.6-1.33Z"/><polygon class="cls-10" points="191.15 216.63 48.85 216.63 120 240 191.15 216.63"/><path class="cls-19" d="M120,6c.86,0,1.71,0,2.56,0h.72c.77,0,1.62,0,2.58.1h.22c.7,0,1.46.08,2.32.15h.27a5,5,0,0,1,.5,0h.19c.58,0,1.06.08,1.49.13l.15,0h.15c.35,0,.64,0,.88.08l.13,0h.14l1.7.19h.07l1.16.15c1.12.15,2,.29,2.9.43h.12c.47.07.94.14,1.4.23h.08l1.06.19.06,0h.06c1.36.24,2.77.53,4.2.86h.12l1.11.26c.71.17,1.41.33,2.15.53s1.45.37,2.11.57l.09,0,.1,0,1,.26,1.28.38h.07l1,.31,1.83.59,1.39.47,1.06.38.06,0,.07,0c.9.32,1.86.68,3,1.11l.27.11q.3.1.6.24l.07,0,.07,0c1.41.56,2.67,1.1,3.84,1.63l0,0,.05,0,1.12.5v0l.58.26,1.58.74c1.1.54,2.21,1.11,3.29,1.68l0,0h0l1.61.86,1.59.89.27.16c.35.2.71.4,1.05.61l.32.19,0,0,.07,0c1.19.7,2.13,1.28,3,1.81l0,0,0,0c.41.25.81.52,1.21.78l.09.06.1,0,.24.17.07,0,.06,0,1.26.85,0,0,0,0c.49.33,1,.66,1.44,1l0,0,0,0c.44.3.88.62,1.31.93l.07.07.25.17,1.32,1c.47.35.94.7,1.39,1.07l0,0,0,0c.46.36.92.72,1.38,1.1l0,0,0,0,1.38,1.13,1.36,1.15,0,0,0,0,.83.73.07.06.08.07c.48.41.9.78,1.29,1.15l.05,0,0,0c.46.41,1.06,1,1.65,1.53l.06,0,.06.06.47.45.08.08.07.07c.37.34.74.7,1.09,1.06l.07.07.06.06c.22.21.43.43.64.64l0,0,0,0c.68.68,1.29,1.31,1.85,1.91l0,0,0,0c.52.54.89.94,1.21,1.3l0,.06.06.06c.63.69,1.2,1.32,1.72,1.93l0,.05,0,0c.29.32.56.63.83,1l.08.09.08.1a1.15,1.15,0,0,1,.14.17l.25.28.46.56.45.55,0,0v0c.39.47.76.94,1.13,1.41l0,0,0,0c.36.45.72.91,1.07,1.38l0,0,0,0c.36.47.73.95,1.1,1.46.73,1,1.44,2,2.15,3,.35.5.69,1,1,1.53.64,1,1.31,2,2,3.06l1,1.61c.31.52.61,1,.9,1.55l0,0v0c.42.71.84,1.45,1.25,2.21s.79,1.46,1.17,2.21l0,0v0c.29.54.57,1.1.87,1.7.12.23.23.46.36.72l1,2.17c.3.62.55,1.2.79,1.75l0,.06,0,.05c.26.57.53,1.18.8,1.83v0l0,0c.17.39.33.79.49,1.18l0,.05,0,0c.13.33.27.67.4,1l0,0,0,0c.27.69.53,1.39.8,2.11s.51,1.38.73,2l0,0v0c.22.61.42,1.21.62,1.82v0l.11.34c.23.69.44,1.37.65,2.06s.43,1.46.63,2.16.42,1.49.61,2.23v.09c.16.61.32,1.22.46,1.83l0,.09,0,.08v0l0,.16,0,.16c.12.51.24,1,.34,1.52l0,.13,0,.12c.06.24.11.47.15.72v.1c.12.53.23,1.08.33,1.62l0,.26c.29,1.47.53,2.81.73,4.12l0,.27c.1.62.19,1.23.27,1.87s.16,1.18.24,1.77.11.92.15,1.41l.09.8.06.61a2.45,2.45,0,0,1,0,.27v.34c0,.37.07.74.1,1.12v.07c.06.66.11,1.34.14,2v.07c0,.7.08,1.4.11,2.1v0c0,.77.07,1.55.09,2.38s0,1.63,0,2.64c0,.68,0,1.36,0,2l0,1,0,1c0,.73-.06,1.45-.1,2.18l0,.21v.07c-.05,1.06-.13,2.13-.22,3.2l0,.13,0,.31v.41c0,.22,0,.44-.07.67v.16c-.05.49-.1,1-.16,1.47V133c-.28,2.6-.67,5.25-1.18,7.88l0,.17,0,.15,0,.12-.06.29c-.37,2-.77,3.79-1.22,5.56v.06c-.26,1.11-.52,2.09-.77,3v0l0,.07,0,.09c-.43,1.57-.89,3.11-1.37,4.6-.39,1.23-.83,2.49-1.34,3.9-.21.59-.42,1.15-.62,1.66v0l0,0c-.1.27-.2.54-.31.82-.34.87-.7,1.74-1,2.56l0,.07h0c0,.1-.09.21-.14.32-.31.74-.65,1.5-1,2.33l-.07.15,0,.1,0,.06q-1.34,3-2.85,5.8c-.43.84-.86,1.63-1.28,2.39l-.94,1.63c-.17.32-.35.63-.54.94l0,0v0c-.72,1.22-1.51,2.5-2.43,3.91-.51.8-1,1.55-1.52,2.29l0,0v0c-.51.76-1.05,1.52-1.58,2.26s-1.1,1.51-1.67,2.26-1.05,1.37-1.57,2l-.11.15c-1.42,1.77-2.76,3.36-4.11,4.87-.71.8-1.36,1.52-2,2.19l0,0,0,0c-.7.76-1.44,1.53-2.19,2.28l0,0,0,0c-.35.36-.71.71-1.06,1.05l0,0,0,0c-.35.35-.72.7-1.08,1l0,0,0,0c-.69.67-1.44,1.37-2.26,2.1s-1.57,1.4-2.37,2.08l0,0,0,0-1.09.92-.06,0-.06,0c-.36.31-.73.61-1.1.9l0,0,0,0-.31.25-.52.42,0,0,0,0c-2.18,1.74-4.43,3.39-6.68,4.92l-1.3.86-.05,0-.05,0c-.37.25-.78.52-1.24.8l0,0,0,0c-.47.31-1,.61-1.44.91l0,0,0,0c-.42.27-.88.55-1.39.85l0,0,0,0c-1.3.77-2.57,1.5-3.89,2.22-.41.23-.82.45-1.29.69-1.37.73-2.75,1.42-4.09,2.06l-.06,0-.06,0c-.39.2-.78.38-1.19.57l-.27.12c-2.46,1.13-4.94,2.16-7.41,3.09l-1.45.53-1.52.54c-3.07,1.05-6.18,2-9.27,2.75h-.07l-1,.24-.36.09-.42.1-.56.13-.77.17-.49.1-.89.2a5.12,5.12,0,0,0-.52.1c-.41.08-.83.17-1.25.24h-.09l-1.58.29c-2.08.37-4.27.69-6.5.95l-.15,0-1.29.14h-.1l-1.33.13-.65.06-.62,0-.77.06h0l-.23,0-1.44.09h-.08c-.52,0-1,.07-1.56.08H125l-1.45.06h-.15c-1.27,0-2.39.05-3.41.05s-2.14,0-3.41-.05c-1.82-.06-3.5-.14-5.14-.26l-.53-.05c-.36,0-.71,0-1.06-.09h-.09c-2.7-.23-5.53-.59-8.36-1-1.81-.3-3.4-.6-4.85-.9l-.81-.18-.84-.18c-1.07-.24-2.12-.5-3.18-.76L90.11,230c-1-.26-2-.56-3.12-.9q-1.44-.44-2.85-.9l-.13,0-.05,0-.11,0c-.92-.3-1.9-.64-3-1l-.31-.1-.31-.12-2.48-1h0l0,0c-1-.39-2-.8-3-1.24-.48-.2-1-.42-1.44-.64l-1.45-.67,0,0h0l-1.48-.7-.69-.34-.73-.37-1.39-.7c-1-.5-1.89-1-2.84-1.54-1.55-.86-3.1-1.77-4.74-2.78l-1.12-.71,0,0,0,0-.88-.56-.05,0,0,0-1.08-.71-.19-.14h0l0,0-.91-.61-.39-.27c-.41-.29-.82-.57-1.23-.87l0,0,0,0c-1.27-.9-2.56-1.86-3.84-2.87s-2.5-2-3.74-3.05c-.4-.33-.79-.67-1.18-1l-1.19-1.05,0,0,0,0-.67-.62,0,0-.05,0-.88-.81,0,0h0a114.35,114.35,0,0,1-12.34-13.56l-.16-.21-1.17-1.54-.05-.08-.09-.11-.07-.1,0,0,0,0c-.42-.57-.84-1.15-1.25-1.75l0,0v0c-1-1.35-1.86-2.68-2.68-3.94s-1.7-2.69-2.42-3.91v0l0,0c-.19-.31-.36-.61-.55-.94l-.4-.7h0c-.59-1-1.19-2.13-1.82-3.34a107.51,107.51,0,0,1-5.19-11.35l-.14-.35c-.12-.31-.24-.62-.35-.93l0-.06,0-.06a106.85,106.85,0,0,1-4-12.88v-.07c-.45-1.77-.85-3.59-1.22-5.56L8,141.34l0-.12,0-.14,0-.18c-.51-2.63-.9-5.28-1.18-7.88v-.11c-.06-.49-.12-1-.16-1.47v-.16l-.06-.67,0-.37,0-.27,0-.22c-.09-1.06-.17-2.13-.22-3.19v-.28c0-.73-.07-1.45-.1-2.18l0-1,0-1c0-.66,0-1.34,0-2,0-1,0-1.85,0-2.69s0-1.56.09-2.33v0c0-.7.06-1.4.11-2.1v-.07c0-.66.09-1.34.14-2v-.07c0-.37.06-.74.1-1.12v-.34a2.45,2.45,0,0,0,0-.27c0-.2,0-.41.07-.61s.06-.54.09-.83c0-.46.1-.92.15-1.38s.15-1.18.24-1.81.17-1.21.26-1.83l0-.27c.2-1.31.44-2.65.72-4.1l.05-.27.33-1.63v-.1c.05-.25.09-.48.16-.72l0-.12,0-.13c.1-.51.22-1,.34-1.52l0-.11,0-.17,0-.08,0-.08,0-.09c.15-.61.3-1.22.47-1.83v-.09c.19-.74.39-1.48.59-2.19s.43-1.47.65-2.21.42-1.36.64-2.05l.12-.34v0c.2-.61.4-1.21.62-1.82v0l0,0c.22-.65.46-1.33.74-2.07s.52-1.38.79-2.06l0-.06,0,0c.13-.34.27-.68.41-1v0l0,0c.15-.39.32-.79.49-1.18v0l0,0c.27-.65.54-1.26.8-1.83l0-.05,0-.06c.24-.55.5-1.13.8-1.76s.67-1.44,1-2.18c.09-.18.18-.37.28-.55l.07-.13.06-.13c.26-.54.54-1.08.81-1.59v0c.39-.75.78-1.49,1.19-2.24s.82-1.47,1.23-2.18l0,0v0c.3-.52.6-1,.93-1.57s.64-1.06,1-1.59c.66-1.06,1.32-2.1,2-3.08.33-.51.67-1,1-1.54.68-1,1.4-2,2.15-3q.52-.72,1.08-1.44l0,0v0q.54-.7,1.08-1.38l0,0,0,0L31.65,48l0,0,0,0,.45-.55.46-.56.24-.28.15-.17.08-.1.08-.09c.27-.33.54-.64.83-1l0,0,0-.05c.52-.61,1.08-1.24,1.72-1.93l.06-.06,0-.06c.32-.36.69-.76,1.2-1.3l0,0,0,0c.56-.6,1.17-1.23,1.85-1.91l0,0,0,0c.2-.21.42-.43.64-.64l.06-.06.07-.07c.35-.36.72-.72,1.08-1.06l.08-.07.08-.08.47-.45.06-.06.06,0c.58-.57,1.19-1.12,1.65-1.53l0,0,0,0c.4-.37.82-.74,1.3-1.15l.08-.07.07-.06c.27-.25.55-.49.83-.73l0,0,0,0c.45-.39.9-.77,1.39-1.17l1.35-1.11,0,0,0,0c.46-.38.92-.74,1.38-1.1l0,0,0,0c.46-.37.93-.72,1.38-1.06s.89-.67,1.34-1l.24-.17.08-.07,1.3-.93,0,0,0,0c.47-.34.95-.67,1.44-1l0,0,0,0,1.27-.86.06,0,.05,0,.25-.17.1,0,.09-.06,1.2-.78,0,0,0,0c.84-.53,1.78-1.11,3-1.81l.06,0,.05,0,.32-.19c.34-.21.7-.41,1-.61l.31-.18c.52-.3,1-.58,1.56-.87L67,19.07h0l0,0c1.08-.57,2.19-1.14,3.27-1.67l1.6-.75.57-.26,0,0,1.12-.5,0,0,0,0c1.18-.53,2.44-1.07,3.85-1.63l.07,0,.07,0a6.25,6.25,0,0,1,.6-.24l.29-.12c1.08-.42,2-.78,2.94-1.1l.07,0,.06,0,1.09-.39,1.39-.47,1.79-.58,1-.31H87l1.24-.37,1-.27.1,0,.1,0c.66-.2,1.37-.38,2.15-.58s1.4-.35,2.12-.52l1.1-.26h.12c1.43-.33,2.84-.62,4.2-.86h.06l.06,0,1-.19h.09c.46-.09.93-.16,1.4-.23h.12c.86-.14,1.78-.28,2.94-.44L106,6.86H106l1.7-.19h.13l.13,0c.25,0,.54-.06.89-.08H109l.15,0c.42,0,.91-.09,1.48-.13h.25a3.27,3.27,0,0,1,.44,0h.28c.86-.07,1.62-.12,2.32-.15h.22c1-.05,1.8-.08,2.57-.1h.73c.84,0,1.7,0,2.55,0m0-6c-.9,0-1.8,0-2.69,0l-.72,0c-.92,0-1.85.06-2.77.11h0c-.89,0-1.78.1-2.66.17-.3,0-.59,0-.89.07-.6,0-1.2.09-1.79.16-.44,0-.88.07-1.31.13q-.94.09-1.89.21L104,1.06c-1,.14-2.06.29-3.08.46-.55.08-1.09.17-1.63.27L98,2c-1.51.27-3,.58-4.49.92l-1.27.29c-.76.18-1.52.36-2.27.56s-1.54.4-2.29.62l-1.16.32-1.31.39-1.14.35-1.88.61-1.46.49L79.54,7c-1.06.37-2.12.77-3.16,1.18-.36.14-.71.27-1.06.42-1.38.55-2.74,1.12-4.09,1.73-.58.25-1.16.52-1.74.79a.34.34,0,0,0-.12.06L67.69,12q-1.75.85-3.48,1.77c-.58.3-1.15.61-1.72.92s-1.13.62-1.7.95-1,.56-1.48.86a2,2,0,0,0-.34.2c-1.07.63-2.13,1.27-3.17,1.94l-1.29.83-.6.39-1.35.91c-.54.36-1.07.73-1.59,1.1l-1.46,1a2.26,2.26,0,0,0-.26.2l-1.41,1c-.52.39-1,.78-1.55,1.19s-1,.78-1.5,1.19l-1.46,1.19c-.51.42-1,.84-1.51,1.28l-1,.85c-.52.44-1,.89-1.53,1.36s-1.21,1.1-1.8,1.67l-.67.64q-.66.61-1.29,1.26c-.27.26-.54.53-.8.8-.68.68-1.35,1.37-2,2.07-.47.49-.94,1-1.38,1.49-.64.69-1.27,1.39-1.88,2.1-.34.38-.67.76-1,1.15l-.5.58-1,1.22c-.41.5-.81,1-1.21,1.51s-.8,1-1.19,1.53-.78,1-1.16,1.54Q22.3,50.3,21.2,51.89c-.37.53-.73,1.07-1.09,1.61-.72,1.07-1.42,2.16-2.1,3.26-.34.55-.68,1.1-1,1.65s-.67,1.12-1,1.68q-.68,1.15-1.32,2.34T13.43,64.8c-.31.59-.62,1.19-.91,1.8-.14.26-.27.52-.4.79-.36.74-.71,1.49-1.06,2.24s-.59,1.28-.87,1.93-.59,1.33-.87,2q-.3.69-.57,1.38c-.16.39-.32.78-.47,1.18-.29.73-.57,1.47-.84,2.2s-.55,1.49-.8,2.23S6.14,82,5.9,82.74a.5.5,0,0,0,0,.13Q5.5,84,5.17,85.06c-.23.76-.45,1.52-.67,2.29s-.44,1.58-.64,2.37-.35,1.34-.51,2c0,.15-.08.31-.11.47q-.21.86-.39,1.71c-.09.35-.16.7-.23,1.06-.14.66-.27,1.33-.4,2-.28,1.44-.54,2.89-.77,4.35-.11.74-.22,1.47-.32,2.2S1,104.78.88,105.41s-.12,1-.17,1.54-.11,1-.16,1.51c0,.18,0,.36,0,.54,0,.42-.08.84-.11,1.26-.06.72-.11,1.45-.15,2.17s-.09,1.51-.12,2.26-.07,1.65-.09,2.48,0,1.88,0,2.83c0,.72,0,1.44,0,2.15l.06,2.15c0,.79.06,1.57.11,2.36a1.7,1.7,0,0,0,0,.22c.06,1.14.14,2.27.24,3.4l0,.33s0,.06,0,.09c0,.42.07.84.12,1.27s.11,1.12.18,1.68Q1.23,137.89,2,142c0,.23.08.45.12.68.38,2,.81,4,1.31,6a113.77,113.77,0,0,0,4.2,13.59c.17.48.36,1,.54,1.43a116.2,116.2,0,0,0,5.49,12q1.11,2.13,2.32,4.22h0c.2.35.4.7.61,1.05.82,1.4,1.68,2.78,2.56,4.14S21,187.89,22,189.25q.67,1,1.38,1.92l.25.33c.43.58.86,1.15,1.3,1.72l0,.05A119.93,119.93,0,0,0,38,207.62c.34.32.69.65,1,1l.76.69,1.25,1.11,1.28,1.1q1.92,1.64,3.9,3.18t4.06,3c.45.33.91.65,1.37,1l1.4,1c.46.31.93.63,1.4.93l1,.64,1.26.8q2.45,1.52,5,2.93c1,.55,2,1.09,3,1.61.5.26,1,.52,1.51.77l1.43.71,1.63.77,1.54.71,1.53.68q1.57.69,3.18,1.32c1,.42,2.08.81,3.13,1.21l.07,0c1.07.39,2.15.77,3.24,1.13l.23.08c1,.33,2,.65,3,1s2.19.65,3.3,1l1.7.45c1.12.28,2.24.55,3.37.81l1.71.37c1.68.35,3.37.66,5.08.95,2.91.47,5.86.85,8.84,1.11.58.06,1.16.1,1.75.15,1.79.13,3.59.22,5.4.28,1.2,0,2.4.05,3.61.05s2.38,0,3.56-.05h.11l1.66-.07c.59,0,1.17,0,1.76-.09l1.64-.1.24,0,1.43-.11,2.12-.21,1.55-.17q3.45-.41,6.86-1l1.69-.31,1.48-.29.36-.07,1.53-.33,1.6-.36.15,0,1.58-.39q5-1.24,9.76-2.9l1.59-.56,1.58-.58q3.94-1.48,7.75-3.23c.56-.26,1.11-.51,1.65-.78q2.19-1,4.34-2.18l1.35-.72c1.39-.76,2.75-1.54,4.1-2.35.53-.31,1.06-.63,1.58-1l1.56-1c.48-.3,1-.61,1.43-.93l1.38-.92q3.63-2.46,7.06-5.19l.92-.74c.43-.34.86-.69,1.28-1.05s.85-.7,1.26-1.06q1.26-1.08,2.49-2.19c.82-.73,1.63-1.48,2.42-2.25.4-.38.8-.76,1.19-1.15s.79-.77,1.17-1.16c.8-.8,1.59-1.62,2.35-2.44s1.44-1.55,2.14-2.34c1.48-1.66,2.91-3.37,4.3-5.11l.11-.14c.57-.72,1.13-1.44,1.68-2.17s1.17-1.57,1.74-2.36,1.13-1.59,1.68-2.4,1.1-1.62,1.63-2.44c.88-1.36,1.74-2.74,2.56-4.14.21-.35.41-.7.61-1.05h0q1.22-2.08,2.32-4.22,1.59-3,3-6.11c0-.07.07-.14.1-.22l0-.07c.38-.84.75-1.68,1.11-2.53,0-.13.11-.25.16-.38.37-.89.74-1.79,1.09-2.69l.33-.86c.24-.61.47-1.23.69-1.85.49-1.35,1-2.71,1.4-4.08q.76-2.39,1.44-4.82l.06-.22c.29-1.06.56-2.12.82-3.19.5-2,.93-3.95,1.31-6,0-.23.09-.45.12-.68q.79-4.14,1.25-8.38.1-.84.18-1.68c0-.43.08-.85.12-1.27,0,0,0-.06,0-.09l0-.33c.1-1.13.18-2.26.24-3.4a1.7,1.7,0,0,0,0-.22c.05-.79.08-1.57.11-2.36l.06-2.15c0-.71,0-1.43,0-2.15,0-1,0-1.89,0-2.83s-.05-1.66-.09-2.48-.07-1.51-.12-2.26-.09-1.45-.15-2.17c0-.42-.07-.84-.11-1.26,0-.18,0-.36,0-.54,0-.5-.11-1-.16-1.51s-.11-1-.17-1.54-.16-1.26-.25-1.89-.21-1.46-.32-2.2c-.23-1.46-.49-2.91-.77-4.35-.13-.66-.26-1.33-.4-2-.07-.36-.14-.71-.23-1.06q-.18-.86-.39-1.71c0-.16-.07-.32-.11-.47-.16-.68-.33-1.35-.51-2s-.42-1.58-.64-2.37-.44-1.53-.67-2.29-.45-1.46-.69-2.19a.5.5,0,0,0,0-.13c-.24-.73-.48-1.46-.74-2.19s-.52-1.49-.8-2.23-.55-1.47-.84-2.2c-.15-.4-.31-.79-.47-1.18s-.37-.92-.57-1.38c-.28-.67-.57-1.34-.87-2s-.57-1.29-.87-1.93-.7-1.5-1.06-2.24l-.39-.79c-.3-.61-.61-1.21-.92-1.8q-.62-1.2-1.26-2.37T224,60.09q-.48-.84-1-1.68c-.33-.55-.67-1.1-1-1.65-.68-1.1-1.38-2.19-2.1-3.26-.36-.54-.72-1.08-1.09-1.61q-1.1-1.59-2.25-3.15c-.38-.52-.77-1-1.16-1.54s-.79-1-1.19-1.53-.8-1-1.21-1.51l-1-1.22-.5-.58c-.32-.39-.65-.77-1-1.15-.61-.71-1.24-1.41-1.88-2.1-.44-.5-.91-1-1.38-1.49-.65-.7-1.32-1.39-2-2.07-.26-.27-.53-.54-.8-.8q-.63-.64-1.29-1.26l-.67-.64c-.59-.57-1.19-1.12-1.8-1.67s-1-.92-1.53-1.36l-1-.85c-.5-.44-1-.86-1.51-1.28l-1.46-1.19c-.5-.41-1-.8-1.5-1.19s-1-.8-1.55-1.19l-1.41-1a2.26,2.26,0,0,0-.26-.2l-1.46-1c-.52-.37-1.05-.74-1.59-1.1l-1.35-.91-.6-.39-1.29-.83c-1-.67-2.1-1.31-3.17-1.94a2,2,0,0,0-.34-.2c-.49-.3-1-.58-1.48-.86s-1.13-.64-1.7-.95-1.14-.62-1.72-.92q-1.72-.91-3.48-1.77l-1.68-.79a.34.34,0,0,0-.12-.06c-.58-.27-1.16-.54-1.74-.79-1.35-.61-2.71-1.18-4.09-1.73-.35-.15-.7-.28-1.06-.42-1-.41-2.1-.81-3.16-1.18l-1.23-.44-1.46-.49-1.88-.61-1.14-.35-1.31-.39-1.16-.32c-.75-.22-1.52-.42-2.29-.62s-1.51-.38-2.27-.56l-1.27-.29c-1.48-.34-3-.65-4.49-.92l-1.22-.22c-.54-.1-1.08-.19-1.63-.27-1-.17-2.05-.32-3.08-.46L134.75.9q-.94-.12-1.89-.21c-.43-.06-.87-.1-1.31-.13C131,.49,130.36.44,129.76.4c-.3,0-.59-.06-.89-.07C128,.26,127.1.2,126.21.16h0c-.92,0-1.85-.09-2.77-.11l-.72,0c-.89,0-1.79,0-2.69,0Z"/><circle class="cls-18" cx="170.38" cy="160.72" r="2.94"/></svg>