<svg id="图层_1" data-name="图层 1" xmlns="http://www.w3.org/2000/svg" viewBox="0 0 240 240"><defs><style>.cls-1{fill:#fff;}.cls-2{fill:#b6ce6f;}.cls-3{fill:#e9e7dd;}.cls-4,.cls-6{fill:#517d99;}.cls-5{fill:#587d90;}.cls-5,.cls-6{stroke:#fff;}.cls-11,.cls-12,.cls-5,.cls-6,.cls-7,.cls-8{stroke-miterlimit:10;}.cls-11,.cls-5,.cls-7{stroke-width:2px;}.cls-11,.cls-12,.cls-14,.cls-7,.cls-8{fill:none;}.cls-7{stroke:#215474;}.cls-8{stroke:#e7e4da;stroke-width:3px;}.cls-9{opacity:0.21;}.cls-10{opacity:0.1;}.cls-11{stroke:#345d79;}.cls-12{stroke:#e9e7dd;}.cls-13{fill:#6580a4;}.cls-14{stroke:#988576;stroke-linecap:round;stroke-linejoin:round;}.cls-15{fill:#7dbf85;}.cls-16{fill:#74ac61;}</style></defs><path class="cls-1" d="M240,120a118.3,118.3,0,0,1-.78,13.65q-.5,4.59-1.37,9.06c-.38,2-.81,4-1.31,6A113.58,113.58,0,0,1,232.82,161c-.33.91-.67,1.82-1,2.71a116.2,116.2,0,0,1-5.49,12q-2.52,4.84-5.5,9.42a120,120,0,0,1-201.62,0q-3-4.58-5.5-9.42a116.2,116.2,0,0,1-5.49-12c-.18-.47-.37-.95-.54-1.43a113.77,113.77,0,0,1-4.2-13.59c-.5-2-.93-3.95-1.31-6q-.87-4.47-1.37-9.06A118.3,118.3,0,0,1,0,120a120,120,0,0,1,240,0Z"/><polygon class="cls-2" points="196.67 212.31 43.55 212.5 77.69 232.32 120 240 159.39 233.02 196.67 212.31"/><path class="cls-3" d="M226,67.68V176.31c-.64,1.21-1.3,2.41-2,3.6H174V104.55H72.47v75.36H16c-.69-1.18-1.35-2.37-2-3.58V67.68H72.47v9.77H197.59V67.68Z"/><rect class="cls-4" x="72.47" y="104.55" width="16.6" height="75.36"/><rect class="cls-4" x="89.07" y="104.55" width="17.08" height="75.36"/><rect class="cls-4" x="106.15" y="104.55" width="17.07" height="75.36"/><rect class="cls-4" x="123.21" y="104.55" width="17.06" height="49.41"/><rect class="cls-4" x="157.34" y="104.55" width="16.6" height="75.36"/><rect class="cls-4" x="140.28" y="104.55" width="17.06" height="49.41"/><rect class="cls-5" x="202.91" y="77.74" width="5.92" height="102.17"/><rect class="cls-5" x="214.73" y="77.74" width="5.92" height="102.17"/><rect class="cls-6" x="76.49" y="86.72" width="8.57" height="7.64"/><rect class="cls-6" x="93.42" y="86.72" width="8.38" height="7.47"/><rect class="cls-6" x="110.4" y="86.72" width="8.57" height="7.64"/><rect class="cls-6" x="127.56" y="86.72" width="8.38" height="7.47"/><rect class="cls-6" x="144.62" y="86.72" width="8.37" height="7.46"/><rect class="cls-6" x="161.36" y="86.72" width="8.57" height="7.64"/><rect class="cls-4" x="181.53" y="85.06" width="11.15" height="3.62"/><rect class="cls-4" x="181.53" y="94.81" width="11.15" height="3.62"/><rect class="cls-4" x="181.53" y="104.55" width="11.15" height="3.62"/><rect class="cls-4" x="181.53" y="114.3" width="11.15" height="3.62"/><rect class="cls-4" x="181.53" y="124.05" width="11.15" height="3.62"/><rect class="cls-4" x="181.53" y="133.79" width="11.15" height="3.62"/><rect class="cls-4" x="181.53" y="143.54" width="11.15" height="3.62"/><rect class="cls-4" x="181.53" y="153.29" width="11.15" height="3.62"/><rect class="cls-4" x="181.53" y="163.03" width="11.15" height="3.62"/><rect class="cls-4" x="123.21" y="153.97" width="34.13" height="25.94"/><line class="cls-7" x1="72.48" y1="115.45" x2="173.95" y2="115.45"/><line class="cls-7" x1="72.48" y1="126.16" x2="173.95" y2="126.16"/><line class="cls-7" x1="72.48" y1="136.87" x2="173.95" y2="136.87"/><line class="cls-7" x1="72.48" y1="158.3" x2="123.21" y2="158.3"/><line class="cls-7" x1="72.48" y1="169.01" x2="123.21" y2="169.01"/><line class="cls-7" x1="157.31" y1="158.3" x2="173.95" y2="158.3"/><line class="cls-7" x1="157.31" y1="169.01" x2="173.95" y2="169.01"/><line class="cls-7" x1="72.48" y1="147.59" x2="173.95" y2="147.59"/><line class="cls-8" x1="89.07" y1="104.55" x2="89.07" y2="179.91"/><line class="cls-8" x1="106.14" y1="104.55" x2="106.14" y2="179.91"/><rect class="cls-9" x="123.21" y="153.97" width="34.13" height="5.36"/><rect class="cls-10" x="123.21" y="153.97" width="5.33" height="25.93"/><line class="cls-8" x1="140.28" y1="104.55" x2="140.28" y2="153.97"/><rect class="cls-10" x="157.31" y="153.97" width="5.33" height="25.93"/><polyline class="cls-8" points="157.34 179.91 157.34 179.9 157.34 169.01 157.34 159.33 157.34 158.3 157.34 153.97 157.34 104.55"/><rect class="cls-10" x="72.47" y="104.55" width="8.31" height="75.36"/><rect class="cls-10" x="90.58" y="104.54" width="2.51" height="75.36"/><rect class="cls-10" x="107.65" y="104.54" width="2.52" height="75.35"/><rect class="cls-10" x="124.71" y="104.55" width="2.52" height="49.41"/><rect class="cls-10" x="141.8" y="104.55" width="2.52" height="49.41"/><rect class="cls-10" x="158.86" y="104.53" width="2.52" height="49.41"/><line class="cls-8" x1="123.21" y1="153.97" x2="157.34" y2="153.97"/><polyline class="cls-8" points="123.22 104.55 123.22 153.97 123.22 158.3 123.22 159.33 123.22 169.01 123.22 179.9 123.22 179.91"/><rect class="cls-4" x="23.37" y="86.72" width="40.47" height="11.04"/><line class="cls-11" x1="31.42" y1="86.72" x2="31.42" y2="97.76"/><line class="cls-11" x1="39.54" y1="86.72" x2="39.54" y2="97.76"/><line class="cls-11" x1="47.67" y1="86.72" x2="47.67" y2="97.76"/><line class="cls-11" x1="55.79" y1="86.72" x2="55.79" y2="97.76"/><line class="cls-12" x1="23.37" y1="90.94" x2="63.84" y2="90.94"/><rect class="cls-10" x="23.37" y="86.72" width="1.44" height="11.04"/><rect class="cls-9" x="23.37" y="86.72" width="40.47" height="1.79"/><rect class="cls-4" x="23.37" y="110.33" width="40.47" height="11.04"/><line class="cls-11" x1="31.42" y1="110.33" x2="31.42" y2="121.37"/><line class="cls-11" x1="39.54" y1="110.33" x2="39.54" y2="121.37"/><line class="cls-11" x1="47.67" y1="110.33" x2="47.67" y2="121.37"/><line class="cls-11" x1="55.79" y1="110.33" x2="55.79" y2="121.37"/><line class="cls-12" x1="23.37" y1="114.55" x2="63.84" y2="114.55"/><rect class="cls-10" x="23.37" y="110.33" width="1.44" height="11.04"/><rect class="cls-9" x="23.37" y="110.33" width="40.47" height="1.79"/><rect class="cls-4" x="23.37" y="133.94" width="40.47" height="11.04"/><line class="cls-11" x1="31.42" y1="133.94" x2="31.42" y2="144.98"/><line class="cls-11" x1="39.54" y1="133.94" x2="39.54" y2="144.98"/><line class="cls-11" x1="47.67" y1="133.94" x2="47.67" y2="144.98"/><line class="cls-11" x1="55.79" y1="133.94" x2="55.79" y2="144.98"/><line class="cls-12" x1="23.37" y1="138.16" x2="63.84" y2="138.16"/><rect class="cls-10" x="23.37" y="133.94" width="1.44" height="11.04"/><rect class="cls-9" x="23.37" y="133.94" width="40.47" height="1.79"/><rect class="cls-4" x="23.37" y="157.56" width="40.47" height="11.04"/><line class="cls-11" x1="31.42" y1="157.56" x2="31.42" y2="168.6"/><line class="cls-11" x1="39.54" y1="157.56" x2="39.54" y2="168.6"/><line class="cls-11" x1="47.67" y1="157.56" x2="47.67" y2="168.6"/><line class="cls-11" x1="55.79" y1="157.56" x2="55.79" y2="168.6"/><line class="cls-12" x1="23.37" y1="161.63" x2="63.84" y2="161.63"/><rect class="cls-10" x="23.37" y="157.56" width="1.44" height="11.04"/><rect class="cls-9" x="23.37" y="157.56" width="40.47" height="1.79"/><path class="cls-2" d="M224,180q-1.51,2.63-3.16,5.16c-1.92,3-4,5.86-6.16,8.64H174L157.34,180Z"/><path class="cls-2" d="M231.37,164.76a115.27,115.27,0,0,1-5.06,10.93l-.33.62V163.08Z"/><path class="cls-2" d="M8.63,164.77l5.4-1.69v13.25c-.12-.21-.23-.43-.34-.64A115.09,115.09,0,0,1,8.63,164.77Z"/><path class="cls-2" d="M123.22,180,108,193.75H25.35c-2.19-2.78-4.24-5.67-6.16-8.64Q17.54,182.58,16,180Z"/><path class="cls-13" d="M120,6A114,114,0,0,1,234,120a112.33,112.33,0,0,1-.75,13c-.3,2.84-.74,5.72-1.3,8.59-.37,2-.77,3.81-1.23,5.59v.08a107.76,107.76,0,0,1-3.53,11.66c-.35,1-.66,1.8-1,2.59l-.38.93v0l0,0A110.83,110.83,0,0,1,221,172.91l-.27.51,0,0,0,0c-.65,1.22-1.26,2.34-1.88,3.4l-.57,1c-.8,1.37-1.63,2.7-2.46,4-1.86,2.88-3.82,5.63-5.85,8.21a113.92,113.92,0,0,1-162.31,18L46,206.5h-.3A114.63,114.63,0,0,1,30.06,190c-2-2.56-4-5.31-5.84-8.2-.74-1.14-1.48-2.33-2.21-3.55h0l-.82-1.4c-.65-1.11-1.27-2.23-1.84-3.32l-.05-.11-.06-.1c0-.08-.09-.17-.14-.26l-.1-.2a108.7,108.7,0,0,1-4.8-10.35l0,0v0c-.13-.31-.25-.63-.37-.92l-.13-.34c-.12-.31-.24-.63-.35-.94l0-.06,0-.06a110.56,110.56,0,0,1-4-12.88v-.07c-.46-1.78-.86-3.61-1.24-5.63-.55-2.83-1-5.71-1.3-8.6A114,114,0,0,1,120,6m0-6A120,120,0,0,0,0,120a118.3,118.3,0,0,0,.78,13.65q.5,4.59,1.37,9.06c.38,2,.81,4,1.31,6a113.77,113.77,0,0,0,4.2,13.59c.17.48.36,1,.54,1.43s.28.72.43,1.08a115.09,115.09,0,0,0,5.06,10.92c.11.21.22.43.34.64.63,1.21,1.29,2.4,2,3.58a.08.08,0,0,0,0,0q1.51,2.63,3.16,5.16c1.92,3,4,5.86,6.16,8.64a120,120,0,0,0,18.2,18.75h0a120,120,0,0,0,171.07-18.77c2.19-2.78,4.24-5.67,6.16-8.64q1.65-2.54,3.16-5.16l0,0c.69-1.19,1.35-2.39,2-3.6l.33-.62a115.27,115.27,0,0,0,5.06-10.93c.15-.36.29-.71.43-1.07.35-.89.69-1.8,1-2.71a113.58,113.58,0,0,0,3.72-12.31c.5-2,.93-3.95,1.31-6q.87-4.47,1.37-9.06A118.3,118.3,0,0,0,240,120,120,120,0,0,0,120,0Z"/><line class="cls-14" x1="49.03" y1="188.93" x2="49.03" y2="178.02"/><line class="cls-14" x1="52.48" y1="162.87" x2="49.03" y2="178.02"/><line class="cls-14" x1="61.23" y1="169.24" x2="49.81" y2="174.62"/><circle class="cls-15" cx="49.81" cy="164.31" r="4.93"/><circle class="cls-16" cx="58.4" cy="170.1" r="3.66"/><line class="cls-14" x1="39.19" y1="167.91" x2="49.03" y2="178.02"/><circle class="cls-2" cx="40.7" cy="167.85" r="4.08"/><circle class="cls-15" cx="38.97" cy="170.86" r="3.51"/><circle class="cls-16" cx="44.11" cy="172.97" r="3.26"/><circle class="cls-2" cx="52.48" cy="167.36" r="4"/><line class="cls-14" x1="95.35" y1="188.58" x2="95.35" y2="178.41"/><line class="cls-14" x1="98.57" y1="164.28" x2="95.35" y2="178.41"/><line class="cls-14" x1="106.73" y1="170.22" x2="95.35" y2="178.41"/><circle class="cls-15" cx="98.88" cy="166.93" r="4.6"/><circle class="cls-16" cx="104.82" cy="170.86" r="3.41"/><line class="cls-14" x1="86.17" y1="168.98" x2="95.35" y2="181.22"/><circle class="cls-2" cx="87.58" cy="168.92" r="3.8"/><circle class="cls-15" cx="85.44" cy="171.93" r="3.27"/><circle class="cls-16" cx="90.38" cy="173.76" r="3.04"/><circle class="cls-2" cx="95.62" cy="167.61" r="3.73"/><line class="cls-14" x1="190.84" y1="189.81" x2="190.84" y2="178.51"/><line class="cls-14" x1="194.41" y1="162.81" x2="190.84" y2="178.51"/><line class="cls-14" x1="201.24" y1="169.01" x2="190.84" y2="181.28"/><circle class="cls-15" cx="191.64" cy="164.3" r="5.11"/><circle class="cls-16" cx="199.83" cy="170.66" r="3.79"/><line class="cls-14" x1="180.64" y1="168.03" x2="190.84" y2="178.51"/><circle class="cls-2" cx="182.78" cy="167.81" r="3.24"/><circle class="cls-16" cx="181.53" cy="170.55" r="3.89"/><circle class="cls-2" cx="193.23" cy="169.41" r="4.14"/><rect class="cls-9" x="72.47" y="104.55" width="101.48" height="7.5"/></svg>