<svg id="图层_1" data-name="图层 1" xmlns="http://www.w3.org/2000/svg" viewBox="0 0 106 106"><defs><style>.cls-1{fill:#516c90;}.cls-2{fill:#fbf9f4;}.cls-2,.cls-3{stroke:#516c90;stroke-linecap:round;stroke-linejoin:round;stroke-width:3px;}.cls-3{fill:none;}</style></defs><circle class="cls-1" cx="53" cy="53" r="53"/><rect class="cls-2" x="25.67" y="48.72" width="8.9" height="23.4"/><rect class="cls-2" x="34.57" y="48.72" width="8.9" height="23.4"/><rect class="cls-2" x="62.53" y="48.72" width="8.9" height="23.4"/><rect class="cls-2" x="71.43" y="48.72" width="8.9" height="23.4"/><line class="cls-3" x1="83.42" y1="48.72" x2="80.33" y2="48.72"/><line class="cls-3" x1="25.67" y1="48.72" x2="22.58" y2="48.72"/><line class="cls-3" x1="25.67" y1="72.12" x2="22.58" y2="72.12"/><polygon class="cls-2" points="62.53 48.72 62.53 72.12 56.52 72.12 56.52 63.73 49.48 63.73 49.48 72.12 43.47 72.12 43.47 48.72 62.53 48.72"/><line class="cls-3" x1="56.52" y1="72.12" x2="49.48" y2="72.12"/><line class="cls-3" x1="83.42" y1="72.12" x2="80.33" y2="72.12"/><polygon class="cls-2" points="69.37 48.72 36.63 48.72 42.65 36.83 63.76 33.89 69.37 48.72"/><rect class="cls-2" x="49.48" y="63.73" width="7.04" height="8.39"/></svg>