<svg id="图层_1" data-name="图层 1" xmlns="http://www.w3.org/2000/svg" viewBox="0 0 240 240"><defs><style>.cls-1{fill:#fff;}.cls-2{fill:#e9e7dd;}.cls-3{fill:#517d99;}.cls-4{fill:#ddddd3;}.cls-13,.cls-14,.cls-15,.cls-5,.cls-6{fill:none;}.cls-5,.cls-6{stroke:#215474;stroke-miterlimit:10;}.cls-5{stroke-width:2px;}.cls-7{opacity:0.1;}.cls-8{opacity:0.06;}.cls-9{opacity:0.21;}.cls-10{fill:#b6ce6f;}.cls-11{fill:#f9f1d8;}.cls-12{fill:#7dbf85;}.cls-13,.cls-14{stroke:#907954;}.cls-13,.cls-14,.cls-15{stroke-linecap:round;stroke-linejoin:round;}.cls-14{stroke-width:0.72px;}.cls-15{stroke:#4d4d4d;stroke-width:0.5px;}.cls-16{fill:#6580a4;}</style></defs><path class="cls-1" d="M240,120a118.3,118.3,0,0,1-.78,13.65q-.5,4.59-1.37,9.06c-.38,2-.81,4-1.31,6A113.58,113.58,0,0,1,232.82,161c-.33.91-.67,1.82-1,2.71a116.2,116.2,0,0,1-5.49,12q-2.52,4.84-5.5,9.42a120,120,0,0,1-201.62,0q-3-4.58-5.5-9.42a116.2,116.2,0,0,1-5.49-12c-.18-.47-.37-.95-.54-1.43a113.77,113.77,0,0,1-4.2-13.59c-.5-2-.93-3.95-1.31-6q-.87-4.47-1.37-9.06A118.3,118.3,0,0,1,0,120a120,120,0,0,1,240,0Z"/><path class="cls-2" d="M22.18,122.34V112h0v12.12h7.05v-1.74Zm0-24.8v4.62h7V97.54Zm0,36.33v1.76h7v-1.76Zm0,21.93v4.63h7V155.8Zm12.51-33.46V112h0v12.12H46.35v-1.74Zm0,33.46v4.63H46.36V155.8Zm0-58.26v4.62H46.37V97.54Zm0,36.33v1.76H46.37v-1.76ZM51.84,97.54v4.62H58.9V97.54Zm0,36.33v1.76H58.9v-1.76Zm0-11.53V112h0v12.12H63.5v-1.74Zm0,33.46v4.63H63.51V155.8ZM69,122.34V112h0v12.12H76v-1.74Zm-4.61-24.8v4.62H76V97.54Zm0,36.33v1.76H76v-1.76ZM69,155.8v4.63H76V155.8Z"/><path class="cls-2" d="M12.79,77V174q.44.87.9,1.74c.93,1.78,1.9,3.53,2.93,5.26h68.8V77ZM51.84,90H58.9v12.12H51.84Zm-5.47,56H34.7V133.87H46.37Zm-11.68,9.8H46.36v12.12H34.69ZM34.7,90H46.37v12.12H34.7Zm0,21.93H46.35v12.12H34.68Zm-12.52,0h7.05v12.12h-7Zm7.06,56h-7V155.8h7Zm0-21.92h-7V133.87h7Zm0-43.85h-7V90h7ZM51.83,112H63.5v12.12H51.83Zm7.07,21.91V146H51.84V133.87Zm4.61,34H51.84V155.8H63.51Zm12.53,0H69V155.8H76ZM76,146H64.37V133.87H76ZM69,124.08V112H76v12.12ZM76,102.15H64.37V90H76Z"/><rect class="cls-3" x="22.18" y="155.8" width="7.05" height="12.12"/><rect class="cls-3" x="34.69" y="155.8" width="11.67" height="12.12"/><rect class="cls-3" x="34.7" y="90.04" width="11.67" height="12.12"/><rect class="cls-3" x="51.84" y="90.04" width="7.06" height="12.12"/><rect class="cls-3" x="51.84" y="155.8" width="11.67" height="12.12"/><rect class="cls-3" x="64.37" y="90.04" width="11.67" height="12.12"/><rect class="cls-3" x="68.98" y="155.8" width="7.06" height="12.12"/><path class="cls-4" d="M85.42,86v11.5H227.79V86Zm15.27,7.5H93.4V90.08h7.29Zm18.51,0h-7.3V90.08h7.3Zm18.5,0h-7.31V90h7.31Zm18.5,0h-7.31V90h7.31Zm18.51,0H167.4V90h7.31Zm18.49,0h-7.3V90h7.3Zm18.5,0h-7.29V90h7.29Z"/><rect class="cls-4" x="85.42" y="103.9" width="45.54" height="8.37"/><rect class="cls-4" x="85.42" y="123.77" width="45.54" height="10.42"/><rect class="cls-2" x="85.42" y="97.49" width="142.38" height="6.41"/><rect class="cls-4" x="130.95" y="103.9" width="6.75" height="77.05"/><rect class="cls-4" x="140.61" y="103.9" width="7.15" height="8.37"/><rect class="cls-4" x="140.61" y="122.34" width="7.15" height="20.09"/><rect class="cls-4" x="140.61" y="145.69" width="7.15" height="35.26"/><rect class="cls-4" x="150.66" y="145.69" width="7.15" height="35.26"/><rect class="cls-4" x="150.66" y="103.9" width="7.15" height="38.52"/><rect class="cls-4" x="160.72" y="122.34" width="7.15" height="58.61"/><rect class="cls-4" x="160.72" y="103.9" width="7.15" height="8.37"/><rect class="cls-4" x="170.77" y="103.9" width="7.15" height="38.52"/><rect class="cls-4" x="170.77" y="145.69" width="7.15" height="35.26"/><rect class="cls-4" x="180.82" y="122.34" width="7.15" height="20.09"/><path class="cls-4" d="M227.79,103.9v68.9c-.48,1-1,1.93-1.48,2.89q-1.4,2.67-2.92,5.26H221v-77Z"/><rect class="cls-4" x="210.99" y="145.69" width="7.15" height="35.26"/><rect class="cls-4" x="210.99" y="103.9" width="7.15" height="38.52"/><rect class="cls-4" x="200.93" y="145.69" width="7.15" height="35.26"/><rect class="cls-4" x="200.93" y="122.34" width="7.15" height="20.09"/><rect class="cls-4" x="200.93" y="103.9" width="7.15" height="8.37"/><rect class="cls-4" x="190.88" y="103.9" width="7.15" height="77.05"/><rect class="cls-4" x="180.82" y="103.9" width="7.15" height="8.37"/><rect class="cls-4" x="180.82" y="145.69" width="7.15" height="35.26"/><rect class="cls-3" x="22.18" y="90.04" width="7.05" height="12.12"/><rect class="cls-3" x="93.4" y="90.08" width="7.3" height="3.42"/><rect class="cls-3" x="111.9" y="90.08" width="7.3" height="3.42"/><rect class="cls-3" x="130.39" y="90.08" width="7.31" height="3.41"/><rect class="cls-3" x="148.89" y="90.08" width="7.31" height="3.41"/><rect class="cls-3" x="167.4" y="90.08" width="7.31" height="3.41"/><rect class="cls-3" x="185.9" y="90.08" width="7.3" height="3.41"/><rect class="cls-3" x="204.43" y="90.08" width="7.3" height="3.41"/><rect class="cls-3" x="140.61" y="112.27" width="7.15" height="11.51"/><rect class="cls-3" x="160.72" y="112.27" width="7.15" height="11.51"/><rect class="cls-3" x="180.82" y="112.27" width="7.15" height="11.51"/><rect class="cls-3" x="200.93" y="112.27" width="7.15" height="11.51"/><rect class="cls-3" x="85.42" y="112.27" width="45.54" height="11.51"/><rect class="cls-3" x="85.42" y="134.19" width="45.54" height="11.5"/><rect class="cls-3" x="140.61" y="140.99" width="7.15" height="4.7"/><rect class="cls-3" x="150.66" y="140.99" width="7.15" height="4.7"/><rect class="cls-3" x="170.77" y="140.99" width="7.15" height="4.7"/><rect class="cls-3" x="180.82" y="140.99" width="7.15" height="4.7"/><rect class="cls-3" x="200.93" y="140.99" width="7.15" height="4.7"/><rect class="cls-3" x="210.99" y="140.99" width="7.15" height="4.7"/><rect class="cls-3" x="34.7" y="133.87" width="11.67" height="12.13"/><rect class="cls-3" x="51.84" y="133.87" width="7.06" height="12.13"/><rect class="cls-3" x="64.37" y="133.87" width="11.67" height="12.13"/><rect class="cls-3" x="22.18" y="133.87" width="7.05" height="12.13"/><rect class="cls-3" x="22.16" y="111.96" width="7.05" height="12.12"/><rect class="cls-3" x="34.68" y="111.96" width="11.67" height="12.12"/><rect class="cls-3" x="51.83" y="111.96" width="11.67" height="12.12"/><rect class="cls-3" x="68.97" y="111.96" width="7.06" height="12.12"/><rect class="cls-4" x="85.42" y="145.69" width="45.54" height="10.42"/><line class="cls-5" x1="40.52" y1="90.08" x2="40.52" y2="102.16"/><line class="cls-5" x1="70.2" y1="90.08" x2="70.2" y2="102.16"/><line class="cls-5" x1="40.52" y1="111.96" x2="40.52" y2="124.08"/><line class="cls-5" x1="57.68" y1="111.96" x2="57.67" y2="124.08"/><line class="cls-5" x1="40.52" y1="133.87" x2="40.52" y2="146.01"/><line class="cls-5" x1="70.2" y1="133.87" x2="70.2" y2="146.01"/><line class="cls-6" x1="40.52" y1="155.8" x2="40.52" y2="167.92"/><line class="cls-5" x1="57.67" y1="155.8" x2="57.67" y2="167.92"/><rect class="cls-7" x="85.42" y="85.99" width="6.22" height="11.5"/><line class="cls-5" x1="96.83" y1="112.27" x2="96.83" y2="123.77"/><line class="cls-5" x1="108.21" y1="112.27" x2="108.21" y2="123.77"/><line class="cls-5" x1="119.58" y1="112.27" x2="119.58" y2="123.77"/><line class="cls-5" x1="96.83" y1="134.19" x2="96.83" y2="145.69"/><line class="cls-5" x1="108.21" y1="134.19" x2="108.21" y2="145.69"/><line class="cls-5" x1="119.58" y1="134.19" x2="119.58" y2="145.69"/><polygon class="cls-3" points="85.46 180.95 130.96 180.95 130.96 156.11 85.42 156.11 85.42 180.95 85.46 180.95"/><line class="cls-5" x1="96.83" y1="156.11" x2="96.83" y2="180.95"/><line class="cls-5" x1="119.58" y1="156.11" x2="119.58" y2="180.95"/><line class="cls-5" x1="85.46" y1="167.61" x2="130.95" y2="167.61"/><line class="cls-5" x1="108.21" y1="156.11" x2="108.21" y2="167.61"/><line class="cls-5" x1="140.61" y1="118.02" x2="147.76" y2="118.02"/><line class="cls-5" x1="160.72" y1="118.02" x2="167.86" y2="118.02"/><line class="cls-5" x1="180.82" y1="118.02" x2="187.97" y2="118.02"/><line class="cls-5" x1="200.93" y1="118.02" x2="208.08" y2="118.02"/><rect class="cls-8" x="85.44" y="103.9" width="45.53" height="77.05"/><rect class="cls-7" x="85.46" y="103.9" width="6.18" height="77.05"/><rect class="cls-9" x="85.46" y="103.9" width="45.5" height="12.55"/><rect class="cls-9" x="130.95" y="103.9" width="96.84" height="6.4"/><rect class="cls-2" x="137.7" y="103.9" width="2.91" height="77.05"/><rect class="cls-2" x="147.76" y="103.9" width="2.9" height="77.05"/><rect class="cls-2" x="157.81" y="103.9" width="2.91" height="77.05"/><rect class="cls-2" x="167.86" y="103.9" width="2.9" height="77.05"/><rect class="cls-2" x="177.91" y="103.9" width="2.91" height="77.05"/><rect class="cls-2" x="187.97" y="103.9" width="2.91" height="77.05"/><rect class="cls-2" x="198.03" y="103.9" width="2.9" height="77.05"/><rect class="cls-2" x="208.08" y="103.9" width="2.91" height="77.05"/><rect class="cls-2" x="218.13" y="103.9" width="2.9" height="77.05"/><rect class="cls-7" x="139.64" y="103.9" width="0.97" height="77.05"/><rect class="cls-7" x="149.69" y="103.9" width="0.97" height="77.05"/><rect class="cls-7" x="159.75" y="103.9" width="0.97" height="77.05"/><rect class="cls-7" x="169.8" y="103.9" width="0.97" height="77.05"/><rect class="cls-7" x="179.85" y="103.9" width="0.97" height="77.05"/><rect class="cls-7" x="189.91" y="103.9" width="0.97" height="77.05"/><rect class="cls-7" x="199.96" y="103.9" width="0.97" height="77.05"/><rect class="cls-7" x="210.02" y="103.9" width="0.97" height="77.05"/><rect class="cls-7" x="220.07" y="103.9" width="0.97" height="77.05"/><polygon class="cls-10" points="68.21 180.95 47.12 194.38 29.21 194.38 16.62 180.95 68.21 180.95"/><polygon class="cls-10" points="223.39 180.95 210.99 194.38 167.86 194.38 147.76 180.95 223.39 180.95"/><path class="cls-11" d="M167.86,194.38c-14.89,3.49-39.74,7.9-52.31,8.71-16.41,1.06-23.17,1.31-43-1C63.26,201,54,196.75,47.12,194.38L68.21,181h79.55Z"/><path class="cls-12" d="M180.37,174.1a1.84,1.84,0,0,1,.5-.67c5-4.57,5.33-7,4.89-8.74a11,11,0,0,1-.94-4c0-1.95.8-2.43.47-3.86s-1.53-1-2.3-3.33-1.56-2.75-2.57-3a3.76,3.76,0,0,0-2.85.22c-1.47.64-1.47,1.65-2.58,2.78-1.27,1.31-2.87-1.06-5.31-.3a5.33,5.33,0,0,0-3.62,5c-.05,2.16,1.25,2.82.91,4.32-.29,1.33-1.48,1.54-1.94,2.44-.71,1.34-.43,6.67,3.95,7.66,1.29.29,2.93,5.18,5.1,3.55,1.75-1.31,1.21.08,3-.23C178.39,175.63,180.1,174.72,180.37,174.1Z"/><line class="cls-13" x1="175.32" y1="172.17" x2="175.32" y2="188.82"/><line class="cls-14" x1="172.11" y1="165" x2="175.05" y2="172.29"/><line class="cls-14" x1="179.86" y1="166.36" x2="175.32" y2="172.65"/><line class="cls-15" x1="175.32" y1="181.62" x2="170.97" y2="190.44"/><line class="cls-15" x1="175.32" y1="181.62" x2="179.66" y2="190.44"/><line class="cls-14" x1="175.32" y1="171.83" x2="175.32" y2="167.51"/><path class="cls-12" d="M209.72,174.36c.1-.22,1.46-.33,1.68-.41,2.75-1,2.49-5.18,3.69-6.08,1-.78,1.24-3.26.28-4.55s-1.75-1.35-1.93-2.08c-.27-1.13.14-1.09-.19-1.93-.2-.49-.68-.7-1.72-.95s-1.19-1.58-3-1a4.21,4.21,0,0,1-3.63-.11c-1.44-.53-2.31-1.32-3.67-.94a4.17,4.17,0,0,0-2.82,2.09c-.84,1.93-.42,2.62-.32,3,.54,2,.74,1.58.46,2.84a7.15,7.15,0,0,1-1.15,2.23c-.59,1.13-.36,5.61,3.32,6.44,1.09.25,2.46,4.35,4.29,3,1.47-1.1,1,.06,2.5-.19A2.94,2.94,0,0,0,209.72,174.36Z"/><line class="cls-13" x1="206.1" y1="172.53" x2="206.1" y2="186.53"/><line class="cls-14" x1="203.39" y1="166.5" x2="205.87" y2="172.63"/><line class="cls-14" x1="209.91" y1="167.64" x2="206.09" y2="172.93"/><line class="cls-15" x1="206.09" y1="180.48" x2="202.44" y2="187.89"/><line class="cls-15" x1="206.09" y1="180.48" x2="209.74" y2="187.89"/><line class="cls-14" x1="206.1" y1="172.25" x2="206.1" y2="168.62"/><path class="cls-12" d="M44.84,174.26a1.76,1.76,0,0,1,.44-.61c4.5-4.1,4.8-6.31,4.41-7.85a9.69,9.69,0,0,1-.85-3.59c0-1.76.72-2.19.42-3.47s-1.39-.37-2.24-2.38a2.81,2.81,0,0,0-2.21-1.91,5.66,5.66,0,0,0-2.76.57,3.41,3.41,0,0,1-2.72-.15c-1.77-.76-1.68-1.25-4-1.59-1.84-.26-2.62.79-3.42,1.61-1.29,1.33-.35,1.9-1.26,3.08-2.37,3.1.51,4.46.45,5.84-.09,1.88-1.27,2.11-1.27,4.34a5.78,5.78,0,0,0,4.83,5.41c1.16.26,2.6,3.95,4.56,2.49,1.57-1.18,1.08.07,2.67-.2C43.05,175.64,44.6,174.82,44.84,174.26Z"/><line class="cls-13" x1="40.3" y1="172.53" x2="40.3" y2="187.5"/><line class="cls-14" x1="37.4" y1="166.07" x2="40.06" y2="172.63"/><line class="cls-14" x1="44.37" y1="167.3" x2="40.29" y2="172.96"/><line class="cls-15" x1="40.29" y1="181.03" x2="36.38" y2="188.96"/><line class="cls-15" x1="40.29" y1="181.03" x2="44.2" y2="188.96"/><line class="cls-14" x1="40.3" y1="172.22" x2="40.3" y2="168.34"/><path class="cls-16" d="M120,6a114,114,0,0,1,80.61,194.61A114,114,0,1,1,39.39,39.39,113.26,113.26,0,0,1,120,6m0-6A120,120,0,1,0,240,120,120,120,0,0,0,120,0Z"/></svg>