<svg id="图层_1" data-name="图层 1" xmlns="http://www.w3.org/2000/svg" viewBox="0 0 240 240"><defs><style>.cls-1{fill:#fff;}.cls-2{fill:#efe7ce;}.cls-3{fill:#f9f1d8;}.cls-4{fill:#98c9cd;}.cls-5{fill:#6198a6;}.cls-6{fill:#aca698;}.cls-7{fill:#b6ce6f;}.cls-8{opacity:0.21;}.cls-9{opacity:0.1;}.cls-10{fill:none;stroke:#75acba;stroke-miterlimit:10;stroke-width:2px;}.cls-11{opacity:0.06;}.cls-12{fill:#6580a4;}</style></defs><path class="cls-1" d="M240,120c0,1.44,0,2.87-.08,4.3q-.16,4.73-.7,9.35-.45,4.24-1.25,8.38c0,.23-.08.45-.12.68-.38,2-.81,4-1.31,6q-1.06,4.43-2.48,8.72c-.17.51-.34,1-.52,1.54s-.39,1.11-.59,1.67c0,.13-.08.25-.13.38-.15.43-.31.86-.48,1.28-.08.24-.18.48-.27.72l-.27.71a116.2,116.2,0,0,1-5.49,12q-1.11,2.13-2.32,4.22-1.52,2.64-3.18,5.2a120,120,0,0,1-201.62,0q-1.67-2.56-3.18-5.2-1.22-2.08-2.32-4.22c-.26-.5-.53-1-.78-1.51-.44-.86-.87-1.72-1.28-2.59s-.7-1.48-1-2.23q-1.26-2.79-2.39-5.67c-.18-.47-.37-.95-.54-1.43q-1.89-5-3.32-10.18l-.06-.22q-.23-.8-.42-1.59c-.14-.53-.27-1.07-.4-1.6-.5-2-.93-3.95-1.31-6,0-.23-.09-.45-.12-.68q-.79-4.14-1.25-8.38Q.68,132.81.6,132c0-.43-.08-.85-.12-1.27,0,0,0-.06,0-.09l0-.33c0-.19,0-.38,0-.57,0-.42-.07-.85-.1-1.28,0-.59-.08-1.17-.11-1.76,0-.79-.08-1.58-.11-2.37C0,122.87,0,121.44,0,120c0-1.78,0-3.55.13-5.31,0-.75.07-1.51.12-2.26s.09-1.45.15-2.17l.09-1.12c0-.4.07-.79.11-1.19.07-.74.16-1.48.25-2.22s.18-1.47.28-2.21.21-1.46.32-2.2c.22-1.46.48-2.91.77-4.35.13-.66.26-1.33.4-2,.07-.36.14-.71.23-1.06q.18-.86.39-1.71c0-.16.07-.31.11-.47.16-.68.33-1.35.51-2s.41-1.59.64-2.37a117.38,117.38,0,0,1,6.56-17.72c.35-.75.7-1.5,1.06-2.24.13-.26.26-.53.4-.79.29-.61.6-1.21.91-1.8q.62-1.2,1.26-2.37T16,60.09a120,120,0,0,1,208,0q.67,1.15,1.32,2.34t1.26,2.37c.31.59.62,1.19.92,1.8l.39.79c.36.74.71,1.49,1.06,2.24a117.38,117.38,0,0,1,6.56,17.72c.23.78.44,1.57.64,2.37s.35,1.34.51,2c0,.16.08.31.11.47q.21.86.39,1.71c.09.35.16.7.23,1.06.14.66.27,1.33.4,2a117.5,117.5,0,0,1,2.09,17.72C240,116.45,240,118.22,240,120Z"/><path class="cls-2" d="M7.66,142.71v19.55a113.77,113.77,0,0,1-4.2-13.59c-.5-2-.93-3.95-1.31-6Z"/><path class="cls-3" d="M239.92,124.3c.05-1.43.08-2.86.08-4.3,0-1.78,0-3.55-.13-5.31H222.28V97h15.5c-.13-.66-.26-1.33-.4-2-.07-.36-.14-.71-.23-1.06q-.18-.86-.39-1.71c0-.16-.07-.31-.11-.47-.16-.68-.33-1.35-.51-2s-.41-1.59-.64-2.37H222.28V69.63h6.66c-.35-.75-.7-1.5-1.06-2.24l-.39-.79c-.3-.61-.61-1.21-.92-1.8q-.62-1.2-1.26-2.37T224,60.09H16q-.68,1.15-1.32,2.34T13.43,64.8c-.31.59-.62,1.19-.91,1.8-.14.26-.27.53-.4.79-.36.74-.71,1.49-1.06,2.24h3.27V87.35H4.5c-.23.78-.44,1.57-.64,2.37s-.35,1.34-.51,2c0,.16-.08.31-.11.47q-.21.86-.39,1.71c-.09.35-.16.7-.23,1.06-.14.66-.27,1.33-.4,2H14.33v17.72H.13C0,116.45,0,118.22,0,120c0,1.44,0,2.87.08,4.3h111.3V142H2c0,.23.08.45.12.68.38,2,.81,4,1.31,6,.13.53.26,1.07.4,1.6s.27,1.06.42,1.59l.06.22H23.43v17.28H10.59c.34.75.68,1.49,1,2.23s.84,1.73,1.28,2.59c.25.51.52,1,.78,1.51q1.11,2.13,2.32,4.22H120V87.35H23.43V69.63H200.16V179.91H224q1.22-2.08,2.32-4.22a116.2,116.2,0,0,0,5.49-12l.27-.71c.09-.24.19-.48.27-.72.21-.55.41-1.1.61-1.66s.4-1.11.59-1.67.35-1,.52-1.54q1.41-4.29,2.48-8.72c.5-2,.93-3.95,1.31-6,0-.23.09-.45.12-.68H222.28V124.3ZM111.38,97v17.72H23.43V97Z"/><rect class="cls-4" x="187.06" y="69.63" width="13.1" height="110.28"/><rect class="cls-4" x="163.72" y="69.63" width="16.06" height="110.28"/><rect class="cls-4" x="140.38" y="69.63" width="16.06" height="110.28"/><rect class="cls-4" x="120" y="69.63" width="13.1" height="110.28"/><rect class="cls-5" x="23.43" y="69.63" width="96.56" height="17.72"/><rect class="cls-5" x="23.43" y="96.97" width="87.95" height="17.72"/><path class="cls-5" d="M.08,124.3q.16,4.73.7,9.35Q1.23,137.89,2,142H111.38V124.3Z"/><path class="cls-6" d="M222.28,69.63V87.35H235.5a117.38,117.38,0,0,0-6.56-17.72Z"/><path class="cls-6" d="M222.28,97v17.72h17.59A117.5,117.5,0,0,0,237.78,97Z"/><path class="cls-6" d="M222.28,124.3V142H238q.79-4.14,1.25-8.38.54-4.62.7-9.35Z"/><path class="cls-5" d="M4.28,151.86l.06.22c.83,3,1.78,6,2.84,8.9.22.62.45,1.24.69,1.85l.33.86q1.13,2.88,2.39,5.67c0,.08.07.15.1.22h93V151.86Z"/><path class="cls-5" d="M4.5,87.35h9.83V69.63H11.06A117.38,117.38,0,0,0,4.5,87.35Z"/><path class="cls-5" d="M.13,114.69h14.2V97H2.22A117.5,117.5,0,0,0,.13,114.69Z"/><path class="cls-7" d="M200.16,179.92,215,193.27c2-2.63,4-5.36,5.78-8.16,1.1-1.7,2.17-3.43,3.17-5.19Z"/><path class="cls-7" d="M120,179.91l-16.38,14.71H26c-2.43-3.05-4.71-6.23-6.84-9.51-1.1-1.7-2.18-3.44-3.18-5.2Z"/><rect class="cls-8" x="120" y="69.63" width="80.15" height="11" transform="translate(320.15 150.26) rotate(-180)"/><rect class="cls-9" x="120" y="69.63" width="9" height="110.28" transform="translate(248.99 249.54) rotate(-180)"/><line class="cls-10" x1="103.64" y1="69.63" x2="103.64" y2="87.35"/><line class="cls-10" x1="87.68" y1="69.64" x2="87.68" y2="87.36"/><line class="cls-10" x1="71.72" y1="69.63" x2="71.72" y2="87.35"/><line class="cls-10" x1="55.75" y1="69.64" x2="55.75" y2="87.36"/><line class="cls-10" x1="39.79" y1="69.64" x2="39.79" y2="87.36"/><line class="cls-10" x1="103.64" y1="96.97" x2="103.64" y2="114.69"/><line class="cls-10" x1="87.68" y1="96.98" x2="87.68" y2="114.7"/><line class="cls-10" x1="71.72" y1="96.97" x2="71.72" y2="114.69"/><line class="cls-10" x1="55.75" y1="96.98" x2="55.75" y2="114.7"/><line class="cls-10" x1="39.79" y1="96.97" x2="39.79" y2="114.69"/><line class="cls-10" x1="103.64" y1="124.3" x2="103.64" y2="142.02"/><line class="cls-10" x1="87.68" y1="124.31" x2="87.68" y2="142.03"/><line class="cls-10" x1="71.72" y1="124.3" x2="71.72" y2="142.02"/><line class="cls-10" x1="55.75" y1="124.31" x2="55.75" y2="142.03"/><line class="cls-10" x1="39.79" y1="124.3" x2="39.79" y2="142.02"/><line class="cls-10" x1="23.83" y1="124.32" x2="23.83" y2="142.04"/><line class="cls-10" x1="7.87" y1="124.3" x2="7.87" y2="142.03"/><polyline class="cls-10" points="7.87 151.86 7.87 152.08 7.87 159.37"/><line class="cls-10" x1="200.16" y1="85.18" x2="120" y2="85.18"/><line class="cls-10" x1="200.16" y1="104.97" x2="120" y2="104.97"/><line class="cls-10" x1="200.16" y1="124.77" x2="120" y2="124.77"/><line class="cls-10" x1="200.16" y1="144.57" x2="120" y2="144.57"/><line class="cls-10" x1="200.16" y1="164.36" x2="120" y2="164.36"/><rect class="cls-3" x="133.1" y="69.63" width="7.28" height="110.28"/><rect class="cls-3" x="156.44" y="69.63" width="7.28" height="110.28"/><rect class="cls-3" x="179.78" y="69.63" width="7.28" height="110.28"/><rect class="cls-11" x="179.78" y="69.63" width="7.28" height="110.28"/><rect class="cls-9" x="184.43" y="69.63" width="2.63" height="110.28" transform="translate(371.49 249.54) rotate(-180)"/><rect class="cls-11" x="156.44" y="69.63" width="7.28" height="110.28"/><rect class="cls-9" x="161.1" y="69.63" width="2.63" height="110.28" transform="translate(324.82 249.54) rotate(-180)"/><rect class="cls-11" x="133.1" y="69.63" width="7.28" height="110.28"/><rect class="cls-9" x="137.76" y="69.63" width="2.63" height="110.28" transform="translate(278.14 249.54) rotate(-180)"/><line class="cls-10" x1="87.27" y1="151.87" x2="87.27" y2="169.59"/><line class="cls-10" x1="71.31" y1="151.86" x2="71.31" y2="169.59"/><line class="cls-10" x1="55.35" y1="151.87" x2="55.35" y2="169.59"/><line class="cls-10" x1="39.39" y1="151.86" x2="39.39" y2="169.58"/><line class="cls-10" x1="23.43" y1="151.88" x2="23.43" y2="169.6"/><polygon class="cls-7" points="191.16 216.63 48.84 216.63 120.75 240 191.16 216.63"/><path class="cls-12" d="M120,6a113.92,113.92,0,0,1,98.81,57.12c.41.71.83,1.44,1.24,2.21s.79,1.46,1.18,2.21v0c.29.54.58,1.1.87,1.69l.17.36.19.38c.34.7.67,1.41,1,2.14A111.89,111.89,0,0,1,229.72,89v.08c.19.63.38,1.32.58,2.12v.11c.17.61.32,1.22.47,1.83v.09l0,.09,0,.08,0,.11,0,.16c.12.51.24,1,.34,1.52l0,.13,0,.13c.06.23.1.46.15.7v.11c.11.53.22,1.08.32,1.62l.06.27a111.87,111.87,0,0,1,2,16.82V115c.09,1.58.13,3.27.13,5,0,1.28,0,2.62-.08,4.09-.11,3-.33,6-.66,8.86V133c-.28,2.6-.67,5.25-1.18,7.88l0,.18,0,.14,0,.12-.06.29c-.37,2-.77,3.79-1.22,5.56v.08c-.66,2.75-1.45,5.53-2.34,8.22l-.1.32c-.13.38-.25.75-.38,1.12v0l0,0c-.13.41-.28.82-.43,1.23l-.12.35-.05.12,0,.13,0,.09,0,.08c-.13.36-.25.7-.38,1l-.06.17-.06.18-.08.2-.12.31-.24.64A111.73,111.73,0,0,1,221,172.92c-.75,1.43-1.47,2.73-2.21,4-.93,1.63-1.94,3.29-3,4.93a114,114,0,0,1-191.55,0c-1.06-1.63-2.07-3.29-3-5-.72-1.24-1.44-2.54-2.18-4l-.24-.45-.48-.93,0,0,0,0c-.49-.95-.87-1.72-1.2-2.42v0l0,0-1-2.08c-.81-1.81-1.58-3.62-2.25-5.35l-.14-.34c-.11-.31-.24-.63-.35-.94l0-.07,0-.06c-1.2-3.14-2.25-6.38-3.15-9.64v-.06l0-.2c-.13-.47-.25-.93-.37-1.39v-.1c-.11-.41-.21-.83-.31-1.25l-.08-.3c-.45-1.77-.85-3.59-1.22-5.56L8,141.34v-.09l0-.18,0-.17c-.51-2.63-.9-5.28-1.18-7.88v-.11c-.06-.49-.11-1-.16-1.47v-.16c0-.23,0-.45-.07-.67l0-.37,0-.27,0-.23v-.09c0-.08,0-.17,0-.26v-.25c0-.37-.06-.75-.09-1.13v-.09c0-.52-.06-1-.09-1.55v-.08c0-.74-.07-1.48-.1-2.2C6,122.62,6,121.28,6,120c0-1.74,0-3.42.12-5v-.07c0-.7.07-1.4.11-2.1v-.07c0-.66.08-1.34.14-2l0-.54,0-.52.06-.61c0-.17,0-.35.05-.55.06-.68.15-1.36.23-2.07v-.07c.07-.65.16-1.28.24-1.92l0-.12.27-1.88,0-.25c.19-1.29.44-2.65.72-4.08l.05-.26c.11-.55.22-1.1.34-1.65v-.09c0-.25.09-.48.15-.72l0-.12,0-.13c.1-.51.22-1,.34-1.52l0-.16,0-.11,0-.08,0-.1v-.07c.14-.62.3-1.23.46-1.84v0l0,0c.2-.81.39-1.5.57-2.13V89a112.47,112.47,0,0,1,6.22-16.8c.34-.72.67-1.43,1-2.14l.09-.18.21-.41.07-.13.06-.13c.26-.54.54-1.08.81-1.59v0l0,0c.38-.74.77-1.49,1.19-2.24s.81-1.47,1.24-2.21A113.94,113.94,0,0,1,120,6m0-6A119.93,119.93,0,0,0,16,60.09q-.68,1.15-1.32,2.34T13.43,64.8c-.31.59-.62,1.19-.91,1.8-.14.26-.27.53-.4.79-.36.74-.71,1.49-1.06,2.24A117.38,117.38,0,0,0,4.5,87.35c-.23.78-.44,1.57-.64,2.37s-.35,1.34-.51,2c0,.16-.08.31-.11.47q-.21.86-.39,1.71c-.09.35-.16.7-.23,1.06-.14.66-.27,1.33-.4,2-.29,1.44-.55,2.89-.77,4.35-.11.74-.22,1.47-.32,2.2s-.2,1.47-.28,2.21S.67,107.21.6,108c0,.4-.07.79-.11,1.19L.4,110.26c-.06.72-.11,1.45-.15,2.17s-.09,1.51-.12,2.26C0,116.45,0,118.22,0,120c0,1.44,0,2.87.08,4.3,0,.79.06,1.58.11,2.37,0,.59.06,1.17.11,1.76,0,.43.06.86.1,1.28,0,.19,0,.38,0,.57l0,.33s0,.06,0,.09c0,.42.07.84.12,1.27s.11,1.12.18,1.68Q1.23,137.89,2,142c0,.23.08.45.12.68.38,2,.81,4,1.31,6,.13.53.26,1.07.4,1.6s.27,1.06.42,1.59l.06.22q1.43,5.19,3.32,10.18c.17.48.36,1,.54,1.43q1.13,2.88,2.39,5.67c.34.75.68,1.49,1,2.23s.84,1.73,1.28,2.59c.25.51.52,1,.78,1.51q1.11,2.13,2.32,4.22,1.51,2.64,3.18,5.2a120,120,0,0,0,201.62,0q1.66-2.56,3.18-5.2,1.22-2.08,2.32-4.22a116.2,116.2,0,0,0,5.49-12l.27-.71c.09-.24.19-.48.27-.72.17-.42.33-.85.48-1.28.05-.13.09-.25.13-.38.2-.56.4-1.11.59-1.67s.35-1,.52-1.54q1.41-4.29,2.48-8.72c.5-2,.93-3.95,1.31-6,0-.23.09-.45.12-.68q.79-4.14,1.25-8.38.54-4.62.7-9.35c.05-1.43.08-2.86.08-4.3,0-1.78,0-3.55-.13-5.31A117.5,117.5,0,0,0,237.78,97c-.13-.66-.26-1.33-.4-2-.07-.36-.14-.71-.23-1.06q-.18-.86-.39-1.71c0-.16-.07-.31-.11-.47-.16-.68-.33-1.35-.51-2s-.41-1.59-.64-2.37a117.38,117.38,0,0,0-6.56-17.72c-.35-.75-.7-1.5-1.06-2.24l-.39-.79c-.3-.61-.61-1.21-.92-1.8q-.62-1.2-1.26-2.37T224,60.09A119.93,119.93,0,0,0,120,0Z"/></svg>