<svg id="图层_1" data-name="图层 1" xmlns="http://www.w3.org/2000/svg" viewBox="0 0 240 240"><defs><style>.cls-1,.cls-17{fill:#fff;}.cls-2{fill:#527e9a;}.cls-3{fill:#e7e7e7;}.cls-4{fill:#999;}.cls-5{fill:#487490;}.cls-6{fill:#2a5672;}.cls-7{fill:#a4a4a4;}.cls-8{fill:#d2d2d2;}.cls-9{fill:#d8d8d8;}.cls-10,.cls-14,.cls-21{fill:none;}.cls-10{stroke:#000;}.cls-10,.cls-14{stroke-miterlimit:10;}.cls-11{fill:#b6ce6f;}.cls-12{fill:#e6e6e6;}.cls-13{opacity:0.1;}.cls-14{stroke:#34607d;}.cls-15,.cls-17{opacity:0.21;}.cls-16{fill:#f1f1f1;}.cls-18{fill:#c1e1dd;}.cls-19{fill:#b0cdc6;}.cls-20{fill:#74ac61;}.cls-21{stroke:#856a61;stroke-linecap:round;stroke-linejoin:round;}.cls-22{fill:#7dbf85;}.cls-23{fill:#6580a4;}</style></defs><path class="cls-1" d="M240,120a118.3,118.3,0,0,1-.78,13.65q-.5,4.59-1.37,9.06c-.38,2-.81,4-1.31,6A113.58,113.58,0,0,1,232.82,161c-.33.91-.67,1.82-1,2.71a116.2,116.2,0,0,1-5.49,12q-2.52,4.84-5.5,9.42a120,120,0,0,1-201.62,0q-3-4.58-5.5-9.42a116.2,116.2,0,0,1-5.49-12c-.18-.47-.37-.95-.54-1.43a113.77,113.77,0,0,1-4.2-13.59c-.5-2-.93-3.95-1.31-6q-.87-4.47-1.37-9.06A118.3,118.3,0,0,1,0,120a120,120,0,0,1,240,0Z"/><path class="cls-2" d="M238.21,99.22l-14.08,1.5-5.95.63-5.94.63-5.94.64-6,.64V90.73l6-.72,5.94-.72,5.94-.71,5.95-.72,11.13-1.34c.26.88.51,1.77.74,2.66.47,1.76.9,3.52,1.27,5.31C237.62,96.05,237.93,97.63,238.21,99.22Z"/><path class="cls-3" d="M238.75,102.67l-18.61,2L217,105l-23.19,2.48-3.2.34-24.08,2.58v-3.54l10.61-1.13,6.75-.72,6.75-.72,6.5-.69,3.2-.34,6-.64,5.94-.64,5.94-.63,5.95-.63,14.08-1.5Q238.51,100.93,238.75,102.67Z"/><polygon class="cls-2" points="216.95 109.94 216.95 126.19 193.76 127.92 193.76 112.42 216.95 109.94"/><polygon class="cls-3" points="216.95 126.19 216.95 129.79 193.76 131.46 193.76 127.92 216.95 126.19"/><polygon class="cls-4" points="216.95 129.79 216.95 131.17 193.76 132.19 193.76 131.46 216.95 129.79"/><polygon class="cls-2" points="216.95 131.17 216.95 150.11 193.76 150.11 193.76 132.19 216.95 131.17"/><rect class="cls-2" x="193.76" y="153.75" width="23.19" height="15.82"/><path class="cls-3" d="M236.28,149.72c-.31,1.25-.64,2.48-1,3.71l-15.14.32v-3.64l3.27-.08,6.66-.16Z"/><path class="cls-3" d="M239.91,124.49c0,1.23-.1,2.45-.18,3.67l-19.59,1.41V126l9.93-.74Z"/><path class="cls-2" d="M240,119.35V120c0,1.5,0,3-.09,4.49l-9.84.73-9.93.74V109.6l3.27-.35,6.66-.71h0l9.29-1c.13,1.29.25,2.59.33,3.89q.28,3.93.3,7.92Z"/><path class="cls-4" d="M239.73,128.16c0,.67-.1,1.35-.16,2l-.39,0-2.35.09-6.76.28h0l-6.66.27-3.27.14v-1.42Z"/><path class="cls-2" d="M239.57,130.18c-.08.94-.17,1.89-.28,2.83,0,.21,0,.43-.07.64q-.5,4.59-1.37,9.06c-.11.56-.21,1.11-.32,1.66-.3,1.44-.63,2.88-1,4.3-.08.35-.17.7-.26,1.05l-6.21.15-6.66.16-3.27.08V131l3.27-.14,6.66-.27h0l6.76-.28,2.35-.09Z"/><path class="cls-2" d="M235.28,153.43c-.26.92-.54,1.83-.83,2.73-.5,1.62-1,3.23-1.63,4.82-.33.91-.67,1.82-1,2.71l-.21.54c-.72,1.8-1.47,3.57-2.27,5.32v0h-9.17V153.75Z"/><rect class="cls-5" x="157.1" y="132.17" width="33.46" height="17.94"/><path class="cls-4" d="M239.36,107.54l-9.29,1h0l-6.66.71-3.27.35v-2.67l-1.25.13-1.94.2v2.68l-5.43.58-.87.09-2.43.26-2.64.29-11.82,1.26v-2.74l-1.26.13-1.94.2v2.45l-6.72.08-20.24.26-6.5.08V111.4l9.38-1,24.08-2.58,3.2-.34L217,105l3.19-.34,18.61-2C239,104.28,239.19,105.91,239.36,107.54Z"/><polygon class="cls-6" points="155.68 90.55 155.68 107.33 152.26 106.07 152.26 88.59 155.68 90.55"/><polygon class="cls-6" points="150.84 87.78 150.84 105.55 145.59 103.62 145.59 84.76 150.84 87.78"/><polygon class="cls-7" points="157.1 107.86 157.1 111.4 152.26 109.68 152.26 106.07 157.1 107.86"/><polygon class="cls-7" points="151.16 105.67 151.16 109.28 145.59 107.3 145.59 103.62 151.16 105.67"/><polygon class="cls-6" points="150.82 109.16 150.84 127.57 145.59 126.52 145.59 107.3 150.82 109.16"/><polygon class="cls-6" points="155.68 110.89 155.68 127.92 152.26 127.92 152.26 109.68 155.68 110.89"/><polygon class="cls-7" points="150.84 127.57 150.84 131.2 145.59 130.16 145.59 126.52 150.84 127.57"/><polygon class="cls-7" points="152.26 88.59 152.26 150.11 150.84 150.11 150.84 87.78 152.26 88.59"/><rect class="cls-7" x="151.16" y="153.75" width="1.42" height="15.82"/><rect class="cls-6" x="152.58" y="153.75" width="4.52" height="15.82"/><rect class="cls-6" x="145.59" y="153.75" width="5.57" height="15.82"/><path class="cls-8" d="M138.48,80.68v92.56h-4.35V152.92H4.58c-.36-1.25-.69-2.5-1-3.76H134.07V128.84H.32c-.09-1.25-.16-2.5-.21-3.76h134V104.76H1c.16-1.26.34-2.52.54-3.76H134.13V80.68Z"/><path class="cls-5" d="M134.07,104.76v20.32H.11C0,123.4,0,121.7,0,120a121.67,121.67,0,0,1,1-15.24Z"/><path class="cls-5" d="M134.07,128.84v20.32H3.58l-.12-.49c-.5-2-.93-3.95-1.31-6q-.87-4.47-1.37-9.06c-.19-1.59-.34-3.2-.46-4.81Z"/><path class="cls-5" d="M227.57,173.24a.91.91,0,0,0-.07.14H12.5a.91.91,0,0,0-.07-.14s0,0,0,0c-.67-1.36-1.32-2.72-1.94-4.11-.81-1.78-1.56-3.59-2.28-5.42-.18-.47-.37-.95-.54-1.43q-1.74-4.57-3.08-9.34H134.13v20.32Z"/><path class="cls-8" d="M138.48,72.31v8.37H6.6C7,79.45,7.46,78.24,7.93,77c.3-.81.62-1.61,1-2.4s.64-1.55,1-2.32Z"/><rect class="cls-9" x="157.1" y="83" width="39.99" height="8.36"/><rect class="cls-5" x="157.1" y="153.75" width="33.46" height="15.82"/><polygon class="cls-7" points="157.1 83 157.1 91.36 152.58 88.77 151.16 87.96 146.3 85.17 146.3 85.16 144.88 84.35 138.48 80.68 138.48 72.31 157.1 83"/><path class="cls-3" d="M233.71,81.55l-33.42,9.18-3.2.63V83l34.64-6.87c.44,1.14.87,2.28,1.28,3.43C233.25,80.22,233.48,80.88,233.71,81.55Z"/><path class="cls-5" d="M138.48,80.68V101H1.5A117.64,117.64,0,0,1,4.91,85.93c.41-1.39.84-2.77,1.3-4.13.13-.38.25-.75.39-1.12Z"/><polygon class="cls-6" points="144.17 83.95 144.17 103.1 138.48 101 138.48 80.68 144.17 83.95"/><polygon class="cls-7" points="144.88 103.36 144.88 107.04 138.48 104.76 138.48 101 144.88 103.36"/><polygon class="cls-6" points="144.17 106.79 144.17 126.23 138.48 125.08 138.48 104.76 144.17 106.79"/><polygon class="cls-7" points="144.88 126.37 144.88 130.03 138.48 128.84 138.48 125.08 144.88 126.37"/><polygon class="cls-6" points="144.17 129.9 144.17 149.94 138.48 149.16 138.48 128.84 144.17 129.9"/><polygon class="cls-7" points="144.88 149.94 144.88 153.6 138.48 152.92 138.48 149.16 144.88 149.94"/><polygon class="cls-6" points="144.17 153.52 144.17 173.24 138.48 173.24 138.48 152.92 144.17 153.52"/><line class="cls-10" x1="138.48" y1="173.38" x2="138.48" y2="173.24"/><polygon class="cls-3" points="200.29 90.73 200.29 103.26 197.09 103.6 197.09 91.36 200.29 90.73"/><polygon class="cls-5" points="197.09 91.36 197.09 103.6 157.1 107.86 157.1 91.36 197.09 91.36"/><line class="cls-10" x1="190.56" y1="173.38" x2="190.56" y2="173.24"/><line class="cls-10" x1="193.76" y1="173.38" x2="193.76" y2="173.24"/><path class="cls-11" d="M227.58,173.22s0,0,0,0a.91.91,0,0,0-.07.14c-.39.77-.79,1.54-1.19,2.31q-2.52,4.84-5.5,9.42-1.71,2.65-3.57,5.21H22.76q-1.86-2.55-3.57-5.21-3-4.58-5.5-9.42c-.4-.77-.8-1.54-1.19-2.31a.91.91,0,0,0-.07-.14s0,0,0,0Z"/><polygon class="cls-7" points="145.59 84.73 145.59 169.57 144.17 169.57 144.17 83.95 145.59 84.73"/><rect class="cls-3" x="193.76" y="150.11" width="23.19" height="3.64"/><line class="cls-10" x1="193.76" y1="150.11" x2="192.93" y2="150.11"/><line class="cls-10" x1="193.76" y1="153.75" x2="192.5" y2="153.75"/><rect class="cls-6" x="152.26" y="131.46" width="3.42" height="18.65"/><polygon class="cls-6" points="150.84 131.2 150.84 150.11 145.59 150.11 145.59 130.16 150.84 131.2"/><rect class="cls-12" x="87.38" y="80.68" width="3.5" height="20.32"/><rect class="cls-12" x="92.18" y="80.68" width="3.51" height="20.32"/><rect class="cls-12" x="96.99" y="80.68" width="3.5" height="20.32"/><rect class="cls-12" x="101.8" y="80.68" width="3.5" height="20.32"/><rect class="cls-12" x="106.6" y="80.68" width="3.5" height="20.32"/><rect class="cls-12" x="111.41" y="80.68" width="3.5" height="20.32"/><rect class="cls-12" x="116.22" y="80.68" width="3.5" height="20.32"/><rect class="cls-12" x="121.02" y="80.68" width="3.5" height="20.32"/><rect class="cls-12" x="125.83" y="80.68" width="3.5" height="20.32"/><rect class="cls-12" x="130.63" y="80.68" width="3.5" height="20.32"/><rect class="cls-12" x="72.96" y="104.76" width="3.5" height="20.32"/><rect class="cls-12" x="77.77" y="104.76" width="3.5" height="20.32"/><rect class="cls-12" x="82.57" y="104.76" width="3.5" height="20.32"/><rect class="cls-12" x="87.38" y="104.76" width="3.5" height="20.32"/><rect class="cls-12" x="92.18" y="104.76" width="3.51" height="20.32"/><rect class="cls-12" x="96.99" y="104.76" width="3.5" height="20.32"/><rect class="cls-12" x="101.8" y="104.76" width="3.5" height="20.32"/><rect class="cls-12" x="106.6" y="104.76" width="3.5" height="20.32"/><rect class="cls-12" x="111.41" y="104.76" width="3.5" height="20.32"/><rect class="cls-12" x="116.22" y="104.76" width="3.5" height="20.32"/><rect class="cls-12" x="10.48" y="128.84" width="3.5" height="20.32"/><rect class="cls-12" x="15.29" y="128.84" width="3.5" height="20.32"/><rect class="cls-12" x="20.09" y="128.84" width="3.5" height="20.32"/><rect class="cls-12" x="24.9" y="128.84" width="3.5" height="20.32"/><rect class="cls-12" x="29.7" y="128.84" width="3.51" height="20.32"/><rect class="cls-12" x="34.51" y="128.84" width="3.5" height="20.32"/><rect class="cls-12" x="39.32" y="128.84" width="3.5" height="20.32"/><rect class="cls-12" x="44.12" y="128.84" width="3.5" height="20.32"/><rect class="cls-12" x="48.93" y="128.84" width="3.5" height="20.32"/><rect class="cls-12" x="53.74" y="128.84" width="3.5" height="20.32"/><rect class="cls-12" x="24.9" y="80.68" width="3.5" height="20.32"/><rect class="cls-12" x="29.7" y="80.68" width="3.51" height="20.32"/><rect class="cls-12" x="34.51" y="80.68" width="3.5" height="20.32"/><rect class="cls-12" x="39.32" y="80.68" width="3.5" height="20.32"/><rect class="cls-12" x="44.12" y="80.68" width="3.5" height="20.32"/><rect class="cls-12" x="48.93" y="80.68" width="3.5" height="20.32"/><rect class="cls-12" x="53.74" y="80.68" width="3.5" height="20.32"/><rect class="cls-12" x="58.54" y="80.68" width="3.5" height="20.32"/><rect class="cls-12" x="63.35" y="104.76" width="3.5" height="20.32"/><rect class="cls-12" x="68.15" y="104.76" width="3.5" height="20.32"/><rect class="cls-12" x="53.74" y="104.76" width="3.5" height="20.32"/><rect class="cls-12" x="58.54" y="104.76" width="3.5" height="20.32"/><rect class="cls-12" x="96.99" y="152.92" width="3.5" height="20.32"/><rect class="cls-12" x="101.8" y="152.92" width="3.5" height="20.32"/><rect class="cls-12" x="106.6" y="152.92" width="3.5" height="20.32"/><rect class="cls-12" x="111.41" y="152.92" width="3.5" height="20.32"/><rect class="cls-12" x="116.22" y="152.92" width="3.5" height="20.32"/><rect class="cls-12" x="121.02" y="152.92" width="3.5" height="20.32"/><rect class="cls-12" x="125.83" y="152.92" width="3.5" height="20.32"/><rect class="cls-12" x="130.63" y="152.92" width="3.5" height="20.32"/><rect class="cls-12" x="34.51" y="152.92" width="3.5" height="20.32"/><rect class="cls-12" x="39.32" y="152.92" width="3.5" height="20.32"/><rect class="cls-12" x="44.12" y="152.92" width="3.5" height="20.32"/><rect class="cls-12" x="48.93" y="152.92" width="3.5" height="20.32"/><rect class="cls-12" x="53.74" y="152.92" width="3.5" height="20.32"/><rect class="cls-12" x="58.54" y="152.92" width="3.5" height="20.32"/><rect class="cls-12" x="63.35" y="152.92" width="3.5" height="20.32"/><rect class="cls-12" x="68.15" y="152.92" width="3.5" height="20.32"/><rect class="cls-12" x="15.29" y="104.76" width="3.5" height="20.32"/><rect class="cls-12" x="20.09" y="104.76" width="3.5" height="20.32"/><rect class="cls-12" x="24.9" y="104.76" width="3.5" height="20.32"/><rect class="cls-12" x="29.7" y="104.76" width="3.51" height="20.32"/><rect class="cls-12" x="34.51" y="104.76" width="3.5" height="20.32"/><rect class="cls-12" x="10.48" y="104.76" width="3.5" height="20.32"/><rect class="cls-12" x="5.67" y="104.76" width="3.5" height="20.32"/><rect class="cls-12" x="5.67" y="128.84" width="3.5" height="20.32"/><path class="cls-12" d="M14,152.92v20.32H12.43s0,0,0,0c-.67-1.36-1.32-2.72-1.94-4.11V152.92Z"/><rect class="cls-12" x="15.29" y="152.92" width="3.5" height="20.32"/><rect class="cls-12" x="20.09" y="152.92" width="3.5" height="20.32"/><rect class="cls-12" x="24.9" y="152.92" width="3.5" height="20.32"/><rect class="cls-12" x="29.7" y="152.92" width="3.51" height="20.32"/><polygon class="cls-5" points="190.56 112.46 190.56 127.92 157.1 127.92 157.1 112.88 190.56 112.46"/><rect class="cls-13" x="29.7" y="80.68" width="1.31" height="20.32"/><rect class="cls-13" x="34.51" y="80.68" width="1.31" height="20.32"/><rect class="cls-13" x="39.32" y="80.68" width="1.31" height="20.32"/><rect class="cls-13" x="44.12" y="80.68" width="1.31" height="20.32"/><rect class="cls-13" x="48.93" y="80.68" width="1.31" height="20.32"/><rect class="cls-13" x="53.74" y="80.68" width="1.31" height="20.32"/><rect class="cls-13" x="58.54" y="80.68" width="1.31" height="20.32"/><rect class="cls-13" x="92.18" y="80.68" width="1.31" height="20.32"/><rect class="cls-13" x="96.99" y="80.68" width="1.31" height="20.32"/><rect class="cls-13" x="101.8" y="80.68" width="1.31" height="20.32"/><rect class="cls-13" x="106.6" y="80.68" width="1.31" height="20.32"/><rect class="cls-13" x="111.41" y="80.68" width="1.31" height="20.32"/><rect class="cls-13" x="116.22" y="80.68" width="1.31" height="20.32"/><rect class="cls-13" x="121.02" y="80.68" width="1.31" height="20.32"/><rect class="cls-13" x="125.83" y="80.68" width="1.31" height="20.32"/><rect class="cls-13" x="130.63" y="80.68" width="1.31" height="20.32"/><rect class="cls-13" x="10.48" y="104.76" width="1.31" height="20.32"/><rect class="cls-13" x="15.29" y="104.76" width="1.31" height="20.32"/><rect class="cls-13" x="20.09" y="104.76" width="1.31" height="20.32"/><rect class="cls-13" x="24.9" y="104.76" width="1.31" height="20.32"/><rect class="cls-13" x="29.7" y="104.76" width="1.31" height="20.32"/><rect class="cls-13" x="34.51" y="104.76" width="1.31" height="20.32"/><rect class="cls-13" x="58.54" y="104.76" width="1.31" height="20.32"/><rect class="cls-13" x="63.35" y="104.76" width="1.31" height="20.32"/><rect class="cls-13" x="68.15" y="104.76" width="1.31" height="20.32"/><rect class="cls-13" x="72.96" y="104.76" width="1.31" height="20.32"/><rect class="cls-13" x="77.77" y="104.76" width="1.31" height="20.32"/><rect class="cls-13" x="82.57" y="104.76" width="1.31" height="20.32"/><rect class="cls-13" x="87.38" y="104.76" width="1.31" height="20.32"/><rect class="cls-13" x="92.18" y="104.76" width="1.31" height="20.32"/><rect class="cls-13" x="96.99" y="104.76" width="1.31" height="20.32"/><rect class="cls-13" x="101.8" y="104.76" width="1.31" height="20.32"/><rect class="cls-13" x="106.6" y="104.76" width="1.31" height="20.32"/><rect class="cls-13" x="111.41" y="104.76" width="1.31" height="20.32"/><rect class="cls-13" x="116.22" y="104.76" width="1.31" height="20.32"/><rect class="cls-13" x="119.71" y="104.76" width="2.63" height="20.32"/><rect class="cls-13" x="62.04" y="80.68" width="2.63" height="20.32"/><rect class="cls-13" x="38.01" y="104.76" width="2.63" height="20.32"/><rect class="cls-13" x="10.48" y="128.84" width="1.31" height="20.32"/><rect class="cls-13" x="15.29" y="128.84" width="1.31" height="20.32"/><rect class="cls-13" x="20.09" y="128.84" width="1.31" height="20.32"/><rect class="cls-13" x="24.9" y="128.84" width="1.31" height="20.32"/><rect class="cls-13" x="29.7" y="128.84" width="1.31" height="20.32"/><rect class="cls-13" x="34.51" y="128.84" width="1.31" height="20.32"/><rect class="cls-13" x="39.32" y="128.84" width="1.31" height="20.32"/><rect class="cls-13" x="44.12" y="128.84" width="1.31" height="20.32"/><rect class="cls-13" x="48.93" y="128.84" width="1.31" height="20.32"/><rect class="cls-13" x="53.74" y="128.84" width="1.31" height="20.32"/><rect class="cls-13" x="15.29" y="152.92" width="1.31" height="20.32"/><rect class="cls-13" x="20.09" y="152.92" width="1.31" height="20.32"/><rect class="cls-13" x="24.9" y="152.92" width="1.31" height="20.32"/><rect class="cls-13" x="29.7" y="152.92" width="1.31" height="20.32"/><rect class="cls-13" x="34.51" y="152.92" width="1.31" height="20.32"/><rect class="cls-13" x="39.32" y="152.92" width="1.31" height="20.32"/><rect class="cls-13" x="44.12" y="152.92" width="1.31" height="20.32"/><rect class="cls-13" x="48.93" y="152.92" width="1.31" height="20.32"/><rect class="cls-13" x="53.74" y="152.92" width="1.31" height="20.32"/><rect class="cls-13" x="58.54" y="152.92" width="1.31" height="20.32"/><rect class="cls-13" x="63.35" y="152.92" width="1.31" height="20.32"/><rect class="cls-13" x="68.15" y="152.92" width="1.31" height="20.32"/><rect class="cls-13" x="101.8" y="152.92" width="1.31" height="20.32"/><rect class="cls-13" x="106.6" y="152.92" width="1.31" height="20.32"/><rect class="cls-13" x="111.41" y="152.92" width="1.31" height="20.32"/><rect class="cls-13" x="116.22" y="152.92" width="1.31" height="20.32"/><rect class="cls-13" x="121.02" y="152.92" width="1.31" height="20.32"/><rect class="cls-13" x="125.83" y="152.92" width="1.31" height="20.32"/><rect class="cls-13" x="130.63" y="152.92" width="1.31" height="20.32"/><rect class="cls-13" x="57.23" y="128.84" width="2.63" height="20.32"/><rect class="cls-13" x="71.65" y="152.99" width="2.63" height="20.32"/><polygon class="cls-4" points="190.56 131.46 190.56 132.16 155.68 132.19 152.26 131.46 190.56 131.46"/><polygon class="cls-7" points="157.1 91.32 157.1 169.57 155.68 169.57 155.68 90.55 157.1 91.32"/><rect class="cls-9" x="152.26" y="127.92" width="8.34" height="3.54"/><rect class="cls-9" x="160.59" y="127.92" width="29.96" height="3.54"/><rect class="cls-9" x="145.59" y="150.11" width="9.59" height="3.64"/><rect class="cls-9" x="155.18" y="150.11" width="35.38" height="3.64"/><line class="cls-14" x1="12.44" y1="80.68" x2="12.44" y2="101"/><line class="cls-14" x1="18.67" y1="80.68" x2="18.67" y2="101"/><line class="cls-14" x1="68.48" y1="80.68" x2="68.48" y2="101"/><line class="cls-14" x1="74.71" y1="80.68" x2="74.71" y2="101"/><line class="cls-14" x1="80.94" y1="80.68" x2="80.94" y2="101"/><line class="cls-14" x1="42.75" y1="104.76" x2="42.75" y2="125.08"/><line class="cls-14" x1="48.98" y1="104.76" x2="48.98" y2="125.08"/><line class="cls-14" x1="123.66" y1="104.76" x2="123.66" y2="125.08"/><line class="cls-14" x1="129.89" y1="104.76" x2="129.89" y2="125.08"/><line class="cls-14" x1="63.96" y1="128.84" x2="63.96" y2="149.16"/><line class="cls-14" x1="70.27" y1="128.84" x2="70.27" y2="149.16"/><line class="cls-14" x1="76.57" y1="128.84" x2="76.57" y2="149.16"/><line class="cls-14" x1="82.88" y1="128.84" x2="82.88" y2="149.16"/><line class="cls-14" x1="89.18" y1="128.84" x2="89.18" y2="149.16"/><line class="cls-14" x1="95.49" y1="128.84" x2="95.49" y2="149.16"/><line class="cls-14" x1="101.79" y1="128.84" x2="101.79" y2="149.16"/><line class="cls-14" x1="108.1" y1="128.84" x2="108.1" y2="149.16"/><line class="cls-14" x1="114.4" y1="128.84" x2="114.4" y2="149.16"/><line class="cls-14" x1="120.79" y1="128.84" x2="120.79" y2="149.16"/><line class="cls-14" x1="127.1" y1="128.84" x2="127.1" y2="149.16"/><line class="cls-14" x1="78.09" y1="152.92" x2="78.09" y2="173.24"/><line class="cls-14" x1="84.32" y1="152.92" x2="84.32" y2="173.24"/><line class="cls-14" x1="90.55" y1="152.92" x2="90.55" y2="173.24"/><line class="cls-14" x1="163.6" y1="91.36" x2="163.6" y2="107.17"/><line class="cls-14" x1="170.35" y1="91.36" x2="170.35" y2="106.45"/><line class="cls-14" x1="177.09" y1="91.36" x2="177.09" y2="105.73"/><line class="cls-14" x1="183.84" y1="91.36" x2="183.84" y2="105.01"/><line class="cls-14" x1="190.58" y1="91.36" x2="190.58" y2="104.29"/><line class="cls-14" x1="163.6" y1="112.8" x2="163.6" y2="127.92"/><line class="cls-14" x1="170.35" y1="112.72" x2="170.35" y2="127.92"/><line class="cls-14" x1="177.09" y1="112.68" x2="177.09" y2="127.96"/><line class="cls-14" x1="183.84" y1="112.54" x2="183.84" y2="127.92"/><line class="cls-14" x1="163.71" y1="132.19" x2="163.71" y2="150.11"/><line class="cls-14" x1="170.46" y1="132.19" x2="170.46" y2="150.11"/><line class="cls-14" x1="177.2" y1="132.19" x2="177.2" y2="150.11"/><line class="cls-14" x1="183.95" y1="132.19" x2="183.95" y2="150.11"/><line class="cls-14" x1="163.71" y1="153.75" x2="163.71" y2="169.53"/><line class="cls-14" x1="170.46" y1="153.75" x2="170.46" y2="169.53"/><line class="cls-14" x1="177.2" y1="153.75" x2="177.2" y2="169.57"/><line class="cls-14" x1="183.95" y1="153.75" x2="183.95" y2="169.53"/><line class="cls-14" x1="206.3" y1="90.01" x2="206.3" y2="102.62"/><line class="cls-14" x1="212.24" y1="89.29" x2="212.24" y2="101.99"/><line class="cls-14" x1="218.18" y1="88.58" x2="218.18" y2="101.35"/><line class="cls-14" x1="224.13" y1="87.86" x2="224.13" y2="100.72"/><line class="cls-14" x1="230.07" y1="87.18" x2="230.07" y2="100.09"/><line class="cls-14" x1="199.63" y1="111.82" x2="199.63" y2="127.48"/><line class="cls-14" x1="205.58" y1="111.16" x2="205.58" y2="127.04"/><line class="cls-14" x1="211.52" y1="110.52" x2="211.52" y2="126.59"/><line class="cls-14" x1="223.41" y1="109.25" x2="223.41" y2="125.72"/><line class="cls-14" x1="230.07" y1="108.53" x2="230.07" y2="125.22"/><line class="cls-14" x1="199.63" y1="131.83" x2="199.63" y2="150.11"/><line class="cls-14" x1="205.58" y1="131.59" x2="205.58" y2="150.11"/><line class="cls-14" x1="211.52" y1="131.46" x2="211.52" y2="150.11"/><line class="cls-14" x1="223.41" y1="130.85" x2="223.41" y2="150.03"/><line class="cls-14" x1="230.07" y1="130.58" x2="230.07" y2="149.87"/><line class="cls-14" x1="199.63" y1="153.75" x2="199.63" y2="169.57"/><line class="cls-14" x1="205.58" y1="153.75" x2="205.58" y2="169.57"/><line class="cls-14" x1="211.52" y1="153.75" x2="211.52" y2="169.57"/><line class="cls-14" x1="223.41" y1="153.75" x2="223.41" y2="169.57"/><path class="cls-3" d="M62,80.68,7.93,77c.3-.81.62-1.61,1-2.4Z"/><path class="cls-15" d="M62,80.68H6.6C7,79.45,7.46,78.24,7.93,77Z"/><path class="cls-16" d="M233.71,81.55l-33.42,9.18L233,79.56C233.25,80.22,233.48,80.88,233.71,81.55Z"/><path class="cls-15" d="M235.26,86.52l-11.13,1.34-5.95.72-5.94.71L206.3,90l-6,.72,33.42-9.17Q234.53,84,235.26,86.52Z"/><path class="cls-15" d="M59.85,80.68v5.25H4.91c.41-1.39.84-2.77,1.3-4.13.13-.38.25-.75.39-1.12Z"/><rect class="cls-15" x="62.04" y="80.68" width="25.34" height="2.17"/><rect class="cls-15" x="134.13" y="80.75" width="4.35" height="2.17"/><rect class="cls-15" x="38.01" y="104.76" width="15.73" height="2.17"/><rect class="cls-15" x="119.71" y="104.76" width="14.35" height="2.17"/><rect class="cls-15" x="57.23" y="128.84" width="76.83" height="2.17"/><rect class="cls-15" x="71.65" y="152.92" width="25.33" height="2.17"/><polygon class="cls-15" points="138.48 80.75 155.68 90.55 155.68 92.47 138.48 82.92 138.48 80.75"/><polygon class="cls-15" points="138.48 104.76 155.68 110.89 155.68 112.68 138.48 106.93 138.48 104.76"/><polygon class="cls-15" points="138.48 128.86 155.68 132.19 155.68 134 138.48 131.03 138.48 128.86"/><polygon class="cls-15" points="138.48 152.99 144.17 153.52 144.17 155.82 138.48 155.16 138.48 152.99"/><rect class="cls-15" x="157.1" y="91.36" width="39.99" height="1.11"/><polygon class="cls-15" points="190.56 116.12 157.1 113.99 157.1 112.88 190.56 112.46 190.56 116.12"/><path class="cls-15" d="M239.69,111.43l-9.62,1-6.66.68-3.27.33-1.25.13-1.94.2-5.43.55-5.94.6-5.94.61-5.88.6v-3.69l11.82-1.26h0l2.64-.28,2.43-.26.87-.09,5.43-.58,1.94-.21,1.25-.13,3.27-.35,6.66-.72,9.29-1C239.49,108.83,239.61,110.13,239.69,111.43Z"/><path class="cls-15" d="M236,89.18l-5.93.26-5.94.26-5.95.26-5.94.25-5.94.26-6,.26,6-.72,5.94-.72,5.94-.71,5.95-.72,11.13-1.34C235.52,87.4,235.77,88.29,236,89.18Z"/><rect class="cls-15" x="157.1" y="132.19" width="33.49" height="2.81"/><path class="cls-15" d="M239.57,130.18c-.08.94-.17,1.89-.28,2.83l-9.22.4-6.66.29-3.27.15-1.25.05L217,134l-5.43.23-11.88.52-5.88.26v-2.81l5.88-.26,5.94-.26,11.37-.5,1.94-.08,1.25-.06,3.27-.14,6.66-.29,9.11-.4Z"/><rect class="cls-15" x="157.1" y="153.75" width="59.85" height="2.81"/><path class="cls-15" d="M235.28,153.43c-.26.92-.54,1.83-.83,2.73l-11,.31-3.27.09v-2.81Z"/><polygon class="cls-3" points="193.76 109.68 193.76 173.22 190.56 173.22 190.56 110.01 193.76 109.68"/><polygon class="cls-13" points="193.76 173.24 192.5 173.24 192.5 109.81 193.76 109.68 193.76 173.24"/><path class="cls-17" d="M238.21,99.22l-8.14.86-5.94.63h0l-5.95.63-11.88,1.26-6,.64-3.2.34-6.5.7-6.75.72-6.75.71-6.74.72-6.75.72-5.35.57v-5.19l5.35-.55,6.75-.68,6.74-.69,13.5-1.38,6.5-.66,3.2-.32,6-.62,5.94-.6,5.94-.61,5.95-.6,5.94-.61,7.2-.73C237.62,96.05,237.93,97.63,238.21,99.22Z"/><rect class="cls-17" x="158.25" y="122.72" width="32.31" height="5.2"/><rect class="cls-17" x="158.25" y="144.91" width="32.31" height="5.2"/><rect class="cls-17" x="158.25" y="164.33" width="32.31" height="5.2"/><path class="cls-17" d="M240,119.35V120c0,1.5,0,3-.09,4.49l-9.84.73-6.66.49-3.27.25-1.25.09-1.94.14-5.43.4-5.94.44-5.94.45-5.88.44v-5.2l5.88-.43,11.88-.86L217,121l1.94-.14,1.25-.09,3.27-.24,6.66-.49,9.92-.72Z"/><polygon class="cls-3" points="220.14 106.43 220.14 172.74 216.95 172.74 216.95 106.76 220.14 106.43"/><polygon class="cls-13" points="220.14 169.57 218.88 169.57 218.88 107.06 220.14 106.93 220.14 169.57"/><polygon class="cls-17" points="193.76 144.91 193.76 150.11 216.95 150.11 216.88 144.91 193.76 144.91"/><rect class="cls-17" x="193.76" y="164.33" width="23.19" height="5.24"/><path class="cls-17" d="M237.53,144.37c-.3,1.44-.63,2.88-1,4.3-.08.35-.17.7-.26,1.05l-6.21.15-6.66.16-3.27.08v-5.2l3.26-.1,6.66-.21Z"/><rect class="cls-9" x="138.48" y="169.55" width="4.87" height="3.67"/><path class="cls-9" d="M229.32,169.55v0c-.55,1.23-1.13,2.44-1.73,3.65H143.35v-3.67Z"/><path class="cls-17" d="M231.59,164.23c-.72,1.8-1.47,3.57-2.27,5.32v0h-9.17v-5.24l3.27,0Z"/><polygon class="cls-18" points="28.75 190.24 59.56 221.95 120 240 182.48 221.1 211.25 190.24 28.75 190.24"/><rect class="cls-13" x="157.1" y="83" width="11.8" height="8.36"/><rect class="cls-13" x="152.26" y="127.92" width="8.34" height="3.54"/><rect class="cls-13" x="145.59" y="150.11" width="9.59" height="3.64"/><rect class="cls-13" x="138.48" y="169.55" width="4.87" height="3.67"/><polygon class="cls-3" points="166.48 106.86 166.48 110.4 157.1 111.4 157.1 107.86 166.48 106.86"/><polygon class="cls-13" points="166.48 106.86 166.48 110.4 157.1 111.4 157.1 107.86 166.48 106.86"/><polygon class="cls-19" points="27.43 190.24 30.14 194.39 210.93 194.39 215.91 190.34 27.43 190.24"/><path class="cls-20" d="M33.71,175.59c-1.94-2.09-4.63-1.57-6.33-2.34a4.26,4.26,0,0,1-2.33-2.17,2.16,2.16,0,0,1-.05-1.89,8.44,8.44,0,0,0,.81-1.82,3.47,3.47,0,0,0-.95-2.77,26.86,26.86,0,0,1-2-2.3,6,6,0,0,1-.7-4.53,9.89,9.89,0,0,1,2.17-4.14,10.91,10.91,0,0,0,2.05-2.8c.27-.7.35-1.47.67-2.15a4.42,4.42,0,0,1,2.54-2.16,13.59,13.59,0,0,1,3.36-.64c1.39-.14,3.08-.16,3.87,1,.32.47.43,1.07.79,1.52a2.52,2.52,0,0,0,2.49.67c.89-.19,1.7-.63,2.58-.87a2.87,2.87,0,0,1,2.59.32c.89.74,2.18,2.53,2.19,3.68,0,2,.57,1.2,1,3.16.28,1.19-.81,4.35-.22,5.41s1.5,1.69,1.91,2.75c.86,2.18-.23,5.34-1.65,7.2A17.09,17.09,0,0,1,43,175a12.16,12.16,0,0,1-3.93,1.58c-1.41.22-4.4,0-5.4-1Z"/><line class="cls-21" x1="36.54" y1="182.5" x2="32.79" y2="169.25"/><line class="cls-21" x1="36.54" y1="182.5" x2="39.11" y2="164.88"/><line class="cls-21" x1="40.55" y1="172.14" x2="36.54" y2="182.5"/><path class="cls-22" d="M69.38,177.13c-2.07-2.23-4.95-1.68-6.77-2.5-1.31-.59-1.72-.79-2.32-1.93a2.74,2.74,0,0,1-.44-2.36c.15-.64.3-.94.44-1.64a4.18,4.18,0,0,0-.44-2.81c-.62-.9-.3-1-1.31-2.74a15.49,15.49,0,0,1-2-5.75c-.06-1.52.4-4.29,1.48-5.58.8-1,1.59-.7,2.5-1.55a5,5,0,0,0,1.22-1.77c.52-1.11.31-1.39,1.46-2.34s1.85-.51,3.27-1.15,1.69-1.51,5.37-1.51c3.06,0,4.38,1.79,5.15,2.31s1,1.57,2,1.37a7.3,7.3,0,0,1,2.35-.05,3.87,3.87,0,0,1,2.7,1.32c.73.71,1,1.46.54,3.11-.54,1.83,1.5,1.9,2,4,.3,1.27-1.72,4.14-1.08,5.28a26.5,26.5,0,0,1,1.89,3.08c.91,2.34-.57,6-2.1,8a18.25,18.25,0,0,1-5.9,4.6,12.67,12.67,0,0,1-4.21,1.69c-1.51.24-4.71,0-5.79-1.08Z"/><line class="cls-21" x1="72.42" y1="184.53" x2="68.4" y2="170.34"/><line class="cls-21" x1="72.42" y1="184.53" x2="75.17" y2="165.66"/><line class="cls-21" x1="76.71" y1="173.43" x2="72.42" y2="184.53"/><path class="cls-20" d="M114.37,177.09c-1.42-1.26-1.07-2.12-2.55-3.12-1.29-.88-1.72-.32-2.8-1.2a5.26,5.26,0,0,1-1.82-4.29,6.53,6.53,0,0,1,.25-1.28,11.48,11.48,0,0,0,1.12-3,7.47,7.47,0,0,0-.34-3.06,3.87,3.87,0,0,1-.06-.46,10.6,10.6,0,0,1-.07-1.12,7.86,7.86,0,0,1,.78-3.57,6.5,6.5,0,0,1,2-2.17,9.72,9.72,0,0,1,2.37-1.17,15.62,15.62,0,0,0,2.21-.73c1-.57,1-1,1.79-1.69a5.25,5.25,0,0,1,4.74-.64,5.32,5.32,0,0,1,2.2,1.54c1.1,1.21.94,2,2,3.2.78.88,1.06.63,2.25,1.57,2.64,2.09,3.56,5.13,3.24,6,0,.08-.17.54-.32,1.17a3.79,3.79,0,0,0-.09.62c-.11,1.63.57,2.44.84,3.69a7.11,7.11,0,0,1-.88,4.64,8.07,8.07,0,0,1-4.17,4.22,12.31,12.31,0,0,1-3.59.62,5.6,5.6,0,0,0-2.31.25c-1,.43-1,1-1.8,1.37C117.87,179.24,115.65,178.22,114.37,177.09Z"/><line class="cls-21" x1="120.67" y1="184.21" x2="116.15" y2="173.45"/><line class="cls-21" x1="120.67" y1="184.21" x2="118.88" y2="168.95"/><line class="cls-21" x1="123.42" y1="175.71" x2="120.67" y2="184.21"/><path class="cls-23" d="M120,6A114,114,0,0,1,234,120a112.33,112.33,0,0,1-.75,13c-.3,2.84-.74,5.72-1.3,8.59-.37,2-.77,3.81-1.23,5.6v.07a108.53,108.53,0,0,1-3.52,11.67c-.35.95-.66,1.79-1,2.56-1,2.55-2,4.85-3.06,7.08-.62,1.33-1.28,2.66-2,3.95l-.11.22,0,.07,0,.05,0,0c-1.42,2.72-2.93,5.33-4.47,7.74l0,.06,0,.05q-.33.54-.69,1.08A114,114,0,0,1,32.56,193.14a112.25,112.25,0,0,1-8.34-11.29c-1.06-1.64-2.09-3.33-3.06-5l0,0v0c-.71-1.2-1.42-2.49-2.11-3.84l0-.07,0,0,0-.07a2.26,2.26,0,0,1-.11-.22c-.68-1.29-1.35-2.62-2-4-1-2.18-2-4.48-3-7l-.12-.32-.36-.94,0-.06,0-.06a108,108,0,0,1-4-12.87v-.05l0-.13-.09-.35,0-.11,0-.11c-.41-1.67-.76-3.27-1.07-5-.55-2.84-1-5.72-1.3-8.61A114,114,0,0,1,120,6m0-6A120,120,0,0,0,0,120a118.3,118.3,0,0,0,.78,13.65q.5,4.59,1.37,9.06c.33,1.77.71,3.51,1.14,5.25,0,.24.11.47.17.71a113.77,113.77,0,0,0,4.2,13.59c.17.48.36,1,.54,1.43,1,2.52,2.05,5,3.21,7.43q1,2.15,2.1,4.23l.18.34q1.08,2.09,2.26,4.11,1.55,2.7,3.24,5.31A117.59,117.59,0,0,0,28,197a120,120,0,0,0,192.84-11.89c.26-.4.52-.81.77-1.22q2.55-4,4.73-8.2l.18-.34q1.09-2.08,2.1-4.23c1.16-2.43,2.22-4.91,3.21-7.43.35-.89.69-1.8,1-2.71a113.58,113.58,0,0,0,3.72-12.31c.5-2,.93-3.95,1.31-6q.87-4.47,1.37-9.06A118.3,118.3,0,0,0,240,120,120,120,0,0,0,120,0Z"/></svg>