<svg id="图层_1" data-name="图层 1" xmlns="http://www.w3.org/2000/svg" viewBox="0 0 240 240"><defs><style>.cls-1{fill:#fff;}.cls-2{fill:#c1dde1;}.cls-3{fill:#d2d2d2;}.cls-4{fill:#e6e6e6;}.cls-5{fill:#b3b3b3;}.cls-6{fill:#e05665;}.cls-7{fill:#f46a79;}.cls-8{fill:#ccc;}.cls-9{fill:#f9f1e1;}.cls-10{fill:#f9f1dd;}.cls-11{fill:#f4e9da;}.cls-12,.cls-17,.cls-21,.cls-22{fill:none;}.cls-12{stroke:#a4c5cd;stroke-miterlimit:10;}.cls-13{fill:#e1e6e6;}.cls-14{opacity:0.06;}.cls-15{opacity:0.1;}.cls-16{opacity:0.21;}.cls-17{stroke:#f2f2f2;}.cls-17,.cls-21,.cls-22{stroke-linecap:round;stroke-linejoin:round;}.cls-18{fill:#f2f2f2;}.cls-19{fill:#b6ce6f;}.cls-20{fill:#74ac61;}.cls-21{stroke:#796a5d;}.cls-22{stroke:#907954;}.cls-23{fill:#7dbf85;}.cls-24{fill:#6580a4;}</style></defs><path class="cls-1" d="M240,120a118.3,118.3,0,0,1-.78,13.65q-.5,4.59-1.37,9.06c-.38,2-.81,4-1.31,6A113.58,113.58,0,0,1,232.82,161c-.33.91-.67,1.82-1,2.71a116.2,116.2,0,0,1-5.49,12q-2.52,4.84-5.5,9.42a120,120,0,0,1-201.62,0q-3-4.58-5.5-9.42a116.2,116.2,0,0,1-5.49-12c-.18-.47-.37-.95-.54-1.43a113.77,113.77,0,0,1-4.2-13.59c-.5-2-.93-3.95-1.31-6q-.87-4.47-1.37-9.06A118.3,118.3,0,0,1,0,120a120,120,0,0,1,240,0Z"/><path class="cls-2" d="M221.1,122.64V171H145.18V117.7c27.19.7,52.41,2.51,75.41,4.94Z"/><path class="cls-2" d="M145.18,117.7V171H20V122.64h.53a950.89,950.89,0,0,1,100-5.27q11.88,0,23.32.29C144.32,117.66,144.75,117.68,145.18,117.7Z"/><path class="cls-3" d="M228.59,171q-1,2.21-2.1,4.33H150.73V171Z"/><path class="cls-4" d="M150.73,171v4.33H13.51q-1.1-2.13-2.1-4.33Z"/><path class="cls-3" d="M230,118.31v4.33c0-.56-.43-1.1-1.28-1.64-.14-.09-.29-.17-.46-.26s-.34-.18-.52-.27a22,22,0,0,0-3-1.11c-.48-.14-1-.29-1.53-.43-1.09-.29-2.3-.56-3.62-.83l-2.06-.41c-1.08-.21-2.22-.41-3.42-.59-.8-.12-1.62-.26-2.49-.38-2.56-.37-5.34-.73-8.36-1.07l-3.08-.33L197,115c-2.87-.27-5.9-.53-9.07-.78l-3.21-.23-5-.33c-1.7-.12-3.42-.21-5.17-.31h0l-3.55-.19-3.65-.17c-3.68-.17-7.45-.33-11.33-.45-1.72-.07-3.47-.12-5.23-.16V108c7.46.21,14.59.5,21.31.84C206.52,110.68,230,114.22,230,118.31Z"/><path class="cls-4" d="M150.73,108v4.34c-3.54-.1-7.14-.19-10.81-.25-3.14,0-6.32-.1-9.56-.12s-6.48-.05-9.79-.05-6.58,0-9.8.05-6.41.07-9.55.12q-8.25.15-16,.41-5.84.19-11.34.45l-3.64.17-3.56.19c-1.76.1-3.48.19-5.18.31l-5,.33-3.22.23c-3.17.25-6.2.51-9.07.78l-3.22.32-3.08.33c-3,.34-5.8.7-8.36,1.07l-2.49.38c-1.19.18-2.33.38-3.41.59l-2.06.41c-1.33.27-2.54.54-3.61.83l-1.54.43a21.7,21.7,0,0,0-3,1.11,5,5,0,0,0-.52.27c-.17.09-.32.17-.46.26-.85.54-1.28,1.08-1.28,1.64v-4.33c0-4.08,23.34-7.61,57.66-9.42,15.41-.8,33-1.26,51.75-1.26C131,107.63,141.15,107.77,150.73,108Z"/><path class="cls-5" d="M230,122.63c0,1.5-3.17,2.93-8.9,4.22v-4.22h-.5a955.2,955.2,0,0,0-200,0h-.52v4.22c-5.72-1.29-8.89-2.72-8.89-4.22,0-.55.43-1.09,1.28-1.64.14-.08.29-.17.46-.25a5,5,0,0,1,.52-.26,23,23,0,0,1,3-1.12c.49-.15,1-.28,1.54-.43,1.07-.29,2.28-.57,3.61-.84l2.06-.4,3.41-.6,2.49-.38c2.56-.37,5.34-.72,8.36-1.07l3.08-.33L44.2,115c2.87-.27,5.9-.53,9.07-.77l3.22-.24,5-.33,5.18-.31,3.56-.18c1.21-.06,2.41-.13,3.64-.17,3.67-.18,7.45-.32,11.34-.46q7.77-.25,16-.41c3.14-.05,6.32-.08,9.55-.12s6.49,0,9.8,0,6.58,0,9.79,0,6.42.07,9.56.12c5.5.1,10.86.24,16,.41,3.88.14,7.67.28,11.33.46l3.65.17,3.55.18h0l5.17.31,5,.33,3.21.24c3.17.24,6.2.5,9.07.77l3.22.32,3.08.33c3,.35,5.8.7,8.36,1.07l2.49.38q1.8.3,3.42.6l2.06.4c1.32.27,2.53.55,3.62.84.54.13,1.05.28,1.53.43a23.31,23.31,0,0,1,3,1.12c.18.08.36.17.52.26s.32.17.46.25C229.56,121.54,230,122.08,230,122.63Z"/><path class="cls-6" d="M172.18,108.88c-10.07-.53-21.09-.9-32.74-1.09l-7.2-36.22c9.77-2,19-3.6,27.61-4.78q6,20.42,12,40.84Z"/><path class="cls-7" d="M139.44,107.79c-6.09-.11-12.35-.16-18.73-.16-18.72,0-36.34.46-51.75,1.26l.64-1.26h0L80.68,86.08A394,394,0,0,1,120.57,74.2q6-1.44,11.67-2.63Z"/><polygon class="cls-5" points="168.39 95.92 185.11 95.92 185.11 107.63 171.82 107.63 168.39 95.92"/><polygon class="cls-8" points="75.63 95.92 59.47 95.92 59.47 107.63 69.62 107.63 75.63 95.92"/><path class="cls-9" d="M221.1,126.85c-30.55-2.88-64.21-4.74-100.53-4.74S50.59,124,20,126.85v-4.21a963.3,963.3,0,0,1,201.06,0Z"/><path class="cls-10" d="M95.68,165.87h3.71V171H20.05V166.8Q57.36,166.07,95.68,165.87Z"/><path class="cls-11" d="M221.09,166.8V171H145.18v-5.15Q183.64,166.05,221.09,166.8Z"/><path class="cls-10" d="M145.18,165.87V171h-3.72v-5.16h3.72Z"/><line class="cls-12" x1="112.05" y1="122.15" x2="112.05" y2="171.02"/><line class="cls-12" x1="129.1" y1="122.15" x2="129.1" y2="171.02"/><line class="cls-12" x1="83.09" y1="122.77" x2="83.09" y2="165.95"/><line class="cls-12" x1="70.14" y1="123.3" x2="70.14" y2="166.06"/><line class="cls-12" x1="45.69" y1="124.74" x2="45.69" y2="166.36"/><line class="cls-12" x1="35.51" y1="125.5" x2="35.51" y2="166.52"/><line class="cls-12" x1="158.06" y1="122.77" x2="158.06" y2="165.95"/><line class="cls-12" x1="171.01" y1="123.3" x2="171.01" y2="166.06"/><line class="cls-12" x1="195.46" y1="124.74" x2="195.46" y2="166.36"/><line class="cls-12" x1="205.64" y1="125.5" x2="205.64" y2="166.52"/><path class="cls-11" d="M221.09,143.07v4.6q-36.71-1.69-75.91-2.17v-5.17Q181.71,140.82,221.09,143.07Z"/><path class="cls-9" d="M145.18,140.33v5.17c-.43,0-.86,0-1.3,0l-2.42,0q-10.35-.1-20.89-.1c-32.12,0-65.68.71-100.52,2.32v-4.6c31.7-1.84,65.27-2.93,100.52-2.93q10.32,0,20.89.14l2.42,0C144.32,140.3,144.75,140.32,145.18,140.33Z"/><path class="cls-12" d="M20.05,135.11c31.33-2.19,64.92-3.51,100.52-3.51s69.19,1.32,100.53,3.51"/><path class="cls-12" d="M20.05,157.65q49-1.38,100.52-1.41t100.53,1.41"/><path class="cls-4" d="M58.17,118v1.46c-.81,0-1.62.1-2.42.15V118Z"/><path class="cls-4" d="M59.47,119.33V171H55.75V119.56c.8,0,1.61-.11,2.42-.15C58.61,119.38,59,119.34,59.47,119.33Z"/><path class="cls-13" d="M26.13,120.64V122l-2.42.23v-1.61Z"/><path class="cls-13" d="M27.42,121.89V171H23.71V122.25l2.42-.23Z"/><path class="cls-4" d="M98.1,116.25v1.4c-.81,0-1.61,0-2.42.07v-1.47Z"/><path class="cls-4" d="M99.39,117.63V171H95.68v-53.3c.81,0,1.61,0,2.42-.07Z"/><path class="cls-4" d="M143.88,116.25v1.42l-2.42-.07v-1.35Z"/><path class="cls-4" d="M145.18,117.69V171h-3.72V117.6l2.42.07Z"/><path class="cls-4" d="M183.81,118v1.51l-2.42-.16V118Z"/><path class="cls-14" d="M221.09,122.64V171H145.17V117.7c27.2.7,52.42,2.51,75.41,4.94Z"/><path class="cls-4" d="M185.1,119.55V171h-3.71V119.3l2.42.16C184.26,119.49,184.69,119.51,185.1,119.55Z"/><path class="cls-4" d="M215.86,120.64v1.47l-2.42-.25v-1.22Z"/><path class="cls-4" d="M217.15,122.23V171h-3.71V121.86l2.42.25Q216.51,122.16,217.15,122.23Z"/><line class="cls-12" x1="120.57" y1="156.24" x2="120.58" y2="171.02"/><path class="cls-13" d="M27.42,120.64v1.25l-1.29.13v-1.38Z"/><path class="cls-15" d="M27.42,121.89V171H26.13V122Z"/><path class="cls-15" d="M59.47,119.33V171h-1.3v-51.6C58.61,119.38,59,119.34,59.47,119.33Z"/><path class="cls-4" d="M99.39,116.25v1.38l-1.29,0v-1.4Z"/><path class="cls-15" d="M99.39,117.63V171H98.1V117.65Z"/><path class="cls-4" d="M145.18,116.25v1.44l-1.3,0v-1.42Z"/><path class="cls-15" d="M145.18,117.7V171h-1.29V117.67Z"/><path class="cls-4" d="M185.1,118v1.6c-.41,0-.84-.06-1.29-.09V118Z"/><path class="cls-15" d="M185.1,119.55V171h-1.29V119.46C184.26,119.49,184.69,119.51,185.1,119.55Z"/><path class="cls-4" d="M217.15,120.64v1.59q-.65-.08-1.29-.12v-1.47Z"/><path class="cls-15" d="M217.15,122.23V171h-1.29V122.11Q216.51,122.16,217.15,122.23Z"/><path class="cls-16" d="M221.09,122.64v6.63l-3.94-.32c-.43,0-.86-.08-1.29-.1l-2.42-.2q-13.81-1.07-28.34-1.83c-.41,0-.84,0-1.29-.07l-2.42-.13q-17.61-.89-36.21-1.28l-1.3,0c-.81,0-1.6,0-2.42,0q-10.29-.18-20.89-.19t-21.18.2c-.43,0-.86,0-1.29,0-.81,0-1.62,0-2.42,0q-18.59.39-36.21,1.29l-1.3.08c-.81,0-1.62.07-2.42.12q-14.49.78-28.33,1.85l-1.29.1-2.42.19-3.66.3v-6.63l3.66-.39,2.42-.23,1.29-.13q13.71-1.33,28.33-2.33c.8,0,1.61-.11,2.42-.15.44,0,.87-.07,1.3-.08,11.67-.75,23.74-1.31,36.21-1.61.81,0,1.61,0,2.42-.07l1.29,0q10.42-.24,21.18-.25t20.89.22l2.42.07,1.3,0q18.7.48,36.21,1.61l2.42.16c.45,0,.88.05,1.29.09,9.75.64,19.19,1.43,28.34,2.31l2.42.25q.64,0,1.29.12Z"/><path class="cls-4" d="M59.47,118v1.38c-.43,0-.86,0-1.3.08V118Z"/><path class="cls-15" d="M59.47,118v1.38c-.43,0-.86,0-1.3.08V118Z"/><path class="cls-16" d="M59.47,118v1.38c-.43,0-.86,0-1.3.08V118Z"/><path class="cls-16" d="M58.17,118v1.46c-.81,0-1.62.1-2.42.15V118Z"/><path class="cls-15" d="M27.42,120.64v1.25l-1.29.13v-1.38Z"/><path class="cls-16" d="M27.42,120.64v1.25l-1.29.13v-1.38Z"/><path class="cls-16" d="M26.13,120.64V122l-2.42.23v-1.61Z"/><path class="cls-15" d="M99.39,116.25v1.38l-1.29,0v-1.4Z"/><path class="cls-16" d="M98.1,116.25v1.4c-.81,0-1.61,0-2.42.07v-1.47Z"/><path class="cls-16" d="M99.39,116.25v1.38l-1.29,0v-1.4Z"/><path class="cls-15" d="M145.18,116.24v1.44l-1.3,0v-1.41Z"/><path class="cls-16" d="M145.18,116.25v1.44l-1.3,0v-1.42Z"/><path class="cls-16" d="M143.88,116.25v1.42l-2.42-.07v-1.35Z"/><path class="cls-15" d="M185.1,117.91v1.6q-.61-.06-1.29-.09v-1.51Z"/><path class="cls-16" d="M185.1,118v1.6c-.41,0-.84-.06-1.29-.09V118Z"/><path class="cls-16" d="M183.81,118v1.51l-2.42-.16V118Z"/><path class="cls-15" d="M217.15,120.64v1.59q-.65-.08-1.29-.12v-1.47Z"/><path class="cls-16" d="M217.15,120.64v1.59q-.65-.08-1.29-.12v-1.47Z"/><path class="cls-16" d="M215.86,120.64v1.47l-2.42-.25v-1.22Z"/><rect class="cls-16" x="99.39" y="145.35" width="42.07" height="3.05"/><rect class="cls-15" x="146.27" y="141.33" width="1.96" height="3.32"/><line class="cls-17" x1="104.79" y1="117.38" x2="97.54" y2="141.33"/><line class="cls-17" x1="120.57" y1="117.38" x2="120.4" y2="141.33"/><line class="cls-17" x1="136.21" y1="117.5" x2="143.32" y2="141.33"/><rect class="cls-18" x="94.58" y="141.33" width="51.69" height="4.02"/><path class="cls-19" d="M30.35,196l-.13,0a.54.54,0,0,1-.32-.25L19.6,175.58a.49.49,0,0,1,.44-.72H62.63a.5.5,0,0,1,.26.92L30.61,195.94A.5.5,0,0,1,30.35,196Z"/><path class="cls-19" d="M62.63,175.35,30.35,195.52,20,175.35H62.63m0-1H20a1,1,0,0,0-.85.48,1,1,0,0,0,0,1L29.46,196a1,1,0,0,0,.62.5.84.84,0,0,0,.27,0,1,1,0,0,0,.53-.15L63.16,176.2a1,1,0,0,0-.53-1.85Zm0,2Z"/><path class="cls-19" d="M208.72,194.78a.56.56,0,0,1-.27-.08L178,175.78a.5.5,0,0,1-.21-.56.49.49,0,0,1,.48-.36l44.49.3a.52.52,0,0,1,.44.28.53.53,0,0,1-.05.53l-14,18.61A.51.51,0,0,1,208.72,194.78Z"/><path class="cls-19" d="M178.25,175.35l44.48.32-14,18.61-30.47-18.93m0-1a1,1,0,0,0-1,.73,1,1,0,0,0,.43,1.12l30.47,18.93a1,1,0,0,0,1.33-.25l14-18.61a1,1,0,0,0,.1-1.05,1,1,0,0,0-.89-.55l-44.48-.32Z"/><path class="cls-20" d="M216.11,120.85c-8.11,7-13.32,18.13-14.31,29a21.89,21.89,0,0,0,1,10,13.88,13.88,0,0,0,11.55,8.68A13.69,13.69,0,0,0,227,161.68c2.31-4.09,2.5-9.12,2-13.83-1.05-9.49-7.06-19.59-12.86-27Z"/><line class="cls-21" x1="215.56" y1="172.5" x2="208.72" y2="185.45"/><line class="cls-21" x1="215.56" y1="172.5" x2="221.09" y2="182.98"/><line class="cls-22" x1="215.57" y1="161.7" x2="215.57" y2="184.28"/><path class="cls-23" d="M68.55,152.24c-.67,2,.2,5.66.39,6.1.65,1.55-.44,4.84-1.5,6.09-.8,1-1.12,2.08-2.08,3.24A5.89,5.89,0,0,1,62.22,170c-1.3.43-1,1.15-2.29,2.09-2.49,1.76-5.72,2.06-10.55,2.34-5.48.31-7.72-1.71-10-2.85-2.65-1.34-2-3.14-3.59-5.53-2-3-3-2.42-4.25-4.75-1.8-3.37-1.13-7.15-.88-8.57.62-3.52,1.81-3.5,2-6.42.17-3.45-1.36-4.07-.82-6.86.35-1.84,1.64-4.71,4-5.63,1.87-.72,3.4.13,5.66-1.25.84-.52.68-.66,1.44-1.16,2.53-1.66,5.75-1,8.91-.28,2.33.51,3.52.78,4.43,1.74,1.07,1.13.93,2.16,2.09,3s2.5.59,3.85.8c4.52.7,9.2,6.66,8.13,11.32C70.11,149.14,69,150.71,68.55,152.24Z"/><line class="cls-22" x1="48.34" y1="171.28" x2="48.34" y2="177.36"/><path class="cls-22" d="M45.39,169.71a15.43,15.43,0,0,1,1.75,2.58,11.43,11.43,0,0,1,1.2,3.74"/><path class="cls-22" d="M51.47,170.39a5.91,5.91,0,0,0-1.83,1.88,22.09,22.09,0,0,0-1.3,2.84"/><path class="cls-20" d="M49.24,157.37a23.38,23.38,0,0,1-1.41,3.91,13.09,13.09,0,0,0-1.39,3.4,7.15,7.15,0,0,0-.13,1.88c.09,1.65.76,2.58.27,4.32a2.25,2.25,0,0,1-.08.24.07.07,0,0,1,0,0h0a7,7,0,0,1-1.86,2.8,8.42,8.42,0,0,1-2,1.37l-.63.27c-1.15.42-1.48.14-2.66.69-1.87.86-2.58,2.19-3.48,3.16-2.21,2.4-5.57,2.64-9.45,3.07-.85.1-1.66.19-2.43.24l-.25,0h-1a8.53,8.53,0,0,1-4.22-1,15.11,15.11,0,0,1-2.61-2q-1.18-2-2.26-4.11l-.18-.34q-1.1-2.08-2.1-4.23c-1.16-2.43-2.22-4.91-3.21-7.43-.18-.47-.37-.95-.54-1.43a113.77,113.77,0,0,1-4.2-13.59c-.06-.24-.12-.47-.17-.71s.2-.49.3-.79c1-3.08-.42-4.18.58-7.47a10.27,10.27,0,0,1,3.77-5.49c2.24-1.53,3.43-.65,5.85-2.28s1.75-2.72,3.67-4.11l.51-.34a7.15,7.15,0,0,1,2.08-.77,11,11,0,0,1,3.66-.09,17.61,17.61,0,0,1,2.42.47l.9.27h0l.38.12c.55.18,1,.35,1.29.46a15.1,15.1,0,0,1,3.15,1.49,8.56,8.56,0,0,1,1.8,1.56,15.8,15.8,0,0,1,1.74,3h0l.12.15a2.75,2.75,0,0,0,.73.64,3.61,3.61,0,0,0,.44.22c1.42.57,2.5-.4,5,.31a6.72,6.72,0,0,1,4,2.78s0,0,0,0c.82,1.48.24,2.47.47,4.42,0,.16,0,.33.07.5.41,2.27,1.4,2.71,2.31,4.18a7.61,7.61,0,0,1,.67,1.37A14.72,14.72,0,0,1,49.24,157.37Z"/><line class="cls-22" x1="23.78" y1="178.64" x2="23.78" y2="186.18"/><path class="cls-22" d="M20.13,176.7a19.58,19.58,0,0,1,2.17,3.2,14.23,14.23,0,0,1,1.48,4.62"/><path class="cls-22" d="M27.66,177.54a7.35,7.35,0,0,0-2.27,2.34,27.29,27.29,0,0,0-1.61,3.51"/><path class="cls-24" d="M120,6A114,114,0,0,1,234,120a112.33,112.33,0,0,1-.75,13c-.31,2.84-.74,5.72-1.3,8.59-.37,2-.78,3.81-1.23,5.6v.07a108.53,108.53,0,0,1-3.52,11.67c-.35.95-.66,1.79-1,2.56-1,2.55-2,4.85-3.06,7.08-.62,1.33-1.28,2.66-2,3.95l-.11.22,0,.07,0,.05,0,0c-1.42,2.72-2.93,5.33-4.47,7.74l0,.06,0,.05c-.22.36-.45.72-.68,1.08A114,114,0,0,1,32.56,193.14a112.25,112.25,0,0,1-8.34-11.29c-1.06-1.64-2.1-3.33-3.07-5v0l0,0c-.7-1.2-1.41-2.49-2.11-3.84l0-.07,0,0,0-.07-.12-.22q-1-1.93-2-4c-1-2.18-2-4.48-3-7l-.13-.32c-.11-.31-.24-.62-.35-.94l0-.06,0-.06a106.15,106.15,0,0,1-4-12.87v-.05l0-.13c0-.12-.06-.23-.08-.35l0-.11,0-.11c-.41-1.67-.76-3.27-1.07-5-.56-2.84-1-5.72-1.3-8.61A114,114,0,0,1,120,6m0-6A120,120,0,0,0,0,120a118.3,118.3,0,0,0,.78,13.65q.5,4.59,1.37,9.06c.33,1.77.71,3.51,1.14,5.25,0,.24.11.47.17.71a113.77,113.77,0,0,0,4.2,13.59c.17.48.36,1,.54,1.43,1,2.52,2.05,5,3.21,7.43q1,2.15,2.1,4.23l.18.34q1.08,2.09,2.26,4.11,1.55,2.7,3.24,5.31A117.59,117.59,0,0,0,28,197a120,120,0,0,0,192.84-11.89c.26-.4.52-.81.77-1.22q2.55-4,4.73-8.2l.18-.34q1.09-2.08,2.1-4.23c1.16-2.43,2.22-4.91,3.21-7.43.35-.89.69-1.8,1-2.71a113.58,113.58,0,0,0,3.72-12.31c.5-2,.93-3.95,1.31-6q.87-4.47,1.37-9.06A118.3,118.3,0,0,0,240,120,120,120,0,0,0,120,0Z"/></svg>