<svg id="图层_1" data-name="图层 1" xmlns="http://www.w3.org/2000/svg" viewBox="0 0 240 240"><defs><style>.cls-1{fill:#fff;}.cls-2{fill:#f9f1d8;}.cls-3{opacity:0.06;}.cls-4{fill:#e6e6e6;}.cls-5{fill:#cd616a;}.cls-6{fill:#f0f0f0;}.cls-7{fill:#e1e1e1;}.cls-8{fill:#d2d2d2;}.cls-9{fill:#987d74;}.cls-10{fill:#f9f1dd;}.cls-11{fill:#aca698;}.cls-12{fill:#d8cbac;}.cls-13{fill:#b6ce6f;}.cls-14,.cls-17{fill:none;}.cls-14{stroke:#987d74;stroke-miterlimit:10;}.cls-15{opacity:0.1;}.cls-16{opacity:0.21;}.cls-17{stroke:#cd9879;stroke-linecap:round;stroke-linejoin:round;}.cls-18{fill:#79b86a;}.cls-19{fill:#74ac61;}.cls-20{fill:#6580a4;}</style></defs><path class="cls-1" d="M239.91,120a118.3,118.3,0,0,1-.78,13.65q-.49,4.59-1.37,9.06c-.38,2-.81,4-1.31,6A113.58,113.58,0,0,1,232.73,161c-.33.91-.67,1.82-1,2.71l-.39,1c-.38,1-.77,1.88-1.17,2.81s-.67,1.54-1,2.3c-.23.5-.46,1-.7,1.49s-.54,1.15-.83,1.72q-.67,1.37-1.38,2.7c-.82,1.58-1.68,3.13-2.58,4.67s-1.91,3.19-2.92,4.75c-.43.66-.86,1.31-1.3,2l-.88,1.29-.93,1.32-1.4,1.92L215,193.16l-.73.93c-.88,1.12-1.77,2.22-2.69,3.3-.54.64-1.09,1.27-1.63,1.9a.12.12,0,0,0,0,.05q-1.83,2.08-3.76,4.07l-.34.35c-.58.59-1.16,1.18-1.75,1.76l-.16.16-2,1.94-.07.06c-.67.63-1.35,1.25-2,1.86-.94.83-1.89,1.66-2.86,2.47-.65.55-1.31,1.09-2,1.63h0c-.79.63-1.58,1.26-2.39,1.87-.65.5-1.31,1-2,1.47l-.59.43-2,1.38-.89.6-1.54,1-1.12.72c-.52.34-1,.66-1.56,1l-1.15.7c-.67.41-1.34.81-2,1.2l-2.26,1.27-.45.25c-.72.39-1.43.77-2.16,1.14s-1.47.75-2.22,1.11-1.4.69-2.11,1l-1,.48-1.35.6c-.45.2-.9.4-1.35.58-.23.11-.46.21-.7.3-.95.4-1.9.78-2.86,1.16-2.41.93-4.87,1.79-7.35,2.57l-1.8.55c-1.21.36-2.42.7-3.64,1l-1.46.38c-1.21.3-2.42.58-3.65.84l-1.54.32-1.38.28L142,238l-1.28.23c-.66.12-1.33.23-2,.33l-1.31.2c-2.14.32-4.3.57-6.48.77-1,.09-1.93.16-2.9.23-1.48.1-3,.17-4.48.22l-1.66,0-2,0A119.89,119.89,0,0,1,19.1,185.11c-1-1.56-2-3.14-2.92-4.75s-1.76-3.09-2.58-4.67a116.2,116.2,0,0,1-5.49-12c-.18-.47-.37-.95-.54-1.43a113.77,113.77,0,0,1-4.2-13.59c-.5-2-.93-3.95-1.31-6q-.87-4.47-1.37-9.06A118.3,118.3,0,0,1-.09,120c0-1,0-2.07,0-3.1v-.1c0-1,.07-2,.12-3a1.48,1.48,0,0,1,0-.21c.05-1,.11-1.9.18-2.84s.17-2,.27-3c.07-.66.14-1.32.22-2,0-.12,0-.25.05-.38l.12-1q.1-.85.24-1.71c.07-.49.14-1,.22-1.48,0,0,0,0,0-.06.1-.62.2-1.24.31-1.86.07-.4.14-.8.22-1.2.2-1.14.43-2.26.68-3.38.18-.87.38-1.74.59-2.61a1.05,1.05,0,0,1,.06-.24c.18-.81.39-1.62.61-2.43.09-.38.19-.75.3-1.12.14-.56.3-1.11.46-1.67.12-.41.24-.82.37-1.23.19-.66.4-1.32.61-2,.06-.2.12-.4.19-.59.22-.69.45-1.38.69-2.06.12-.36.25-.72.38-1.07.25-.73.52-1.45.8-2.17a.52.52,0,0,1,.06-.16c.32-.85.65-1.7,1-2.54a4.07,4.07,0,0,1,.18-.44c.33-.81.67-1.61,1-2.41l.06-.14a.61.61,0,0,0,0-.12c.28-.62.55-1.24.84-1.85.5-1.09,1-2.18,1.55-3.25s.93-1.84,1.42-2.75c.3-.57.61-1.14.92-1.7s.7-1.26,1.05-1.88c.69-1.21,1.41-2.41,2.16-3.59.5-.82,1-1.64,1.56-2.45s1.11-1.68,1.7-2.51l.46-.68c.37-.52.74-1,1.12-1.55s.83-1.14,1.26-1.7q1.29-1.71,2.65-3.38c.45-.56.9-1.11,1.36-1.65s.92-1.09,1.39-1.62,1.16-1.32,1.76-2S32.3,38,32.85,37.42L33.3,37c.37-.39.74-.77,1.12-1.15l.89-.89c.75-.76,1.52-1.5,2.31-2.24.44-.42.89-.83,1.34-1.24s1-.89,1.47-1.32c.91-.81,1.83-1.61,2.77-2.38.35-.3.71-.59,1.07-.88s1-.84,1.56-1.25,1.28-1,1.93-1.49S49.22,23,50,22.5c.5-.37,1-.72,1.52-1.08l.38-.26,1.62-1.1c1.19-.8,2.39-1.57,3.61-2.31.61-.38,1.22-.75,1.84-1.11s1.23-.73,1.86-1.08c.81-.47,1.64-.92,2.47-1.37.62-.33,1.24-.66,1.86-1l.41-.21c.53-.28,1.07-.55,1.61-.8s.86-.43,1.29-.63c.65-.31,1.3-.62,2-.91.37-.18.75-.34,1.13-.5.72-.33,1.45-.64,2.18-.94.45-.2.91-.38,1.37-.57l1.21-.48c1.45-.56,2.91-1.1,4.38-1.61q.84-.3,1.68-.57l.52-.16c.58-.2,1.17-.38,1.75-.56.91-.28,1.83-.55,2.74-.81s1.71-.47,2.57-.69,1.83-.46,2.75-.68l.44-.1,2.62-.56c.71-.15,1.42-.29,2.13-.41s1.18-.22,1.78-.32c1.46-.25,2.94-.48,4.42-.67L105.3.88c.73-.09,1.47-.17,2.21-.24l.23,0c1-.1,2-.19,2.94-.26h.1c1-.07,2-.13,3-.18s1.7-.08,2.55-.1l.77,0c1,0,1.9,0,2.85,0s1.9,0,2.85,0l.77,0c.85,0,1.7.05,2.55.1s2,.11,3,.18h.1c1,.07,2,.16,2.94.26l.23,0c.74.07,1.48.15,2.21.24l1.24.16c1.48.19,3,.42,4.42.67.6.1,1.19.2,1.78.32s1.42.26,2.13.41l2.62.56.44.1c.92.22,1.83.44,2.75.68s1.71.45,2.57.69,1.83.53,2.74.81c.59.18,1.17.36,1.76.56l.51.16q.84.27,1.68.57c1.47.51,2.93,1,4.38,1.61l1.21.48c.46.19.92.37,1.37.57.73.3,1.46.61,2.18.94.38.16.76.32,1.13.5.66.29,1.31.6,2,.91q.65.3,1.29.63c.54.25,1.08.52,1.61.8l.41.21c.62.31,1.24.64,1.86,1,.83.45,1.66.9,2.47,1.37q.94.53,1.86,1.08c.62.36,1.23.73,1.84,1.11,1.22.74,2.42,1.51,3.61,2.31l1.62,1.1.38.26c.51.36,1,.71,1.52,1.08.74.52,1.48,1.06,2.2,1.61s1.29,1,1.93,1.49,1,.82,1.56,1.25c.36.29.72.58,1.07.88.94.77,1.86,1.56,2.77,2.38q.75.64,1.47,1.32c.45.41.9.82,1.34,1.24.79.74,1.56,1.48,2.31,2.24.3.29.6.59.89.89s.75.76,1.12,1.15l.45.47c.55.57,1.09,1.16,1.62,1.75s1.19,1.31,1.76,2,.93,1.08,1.39,1.62.91,1.09,1.36,1.65q1.36,1.67,2.65,3.38c.43.56.85,1.13,1.26,1.7s.75,1,1.12,1.55l.46.68c.58.83,1.15,1.67,1.7,2.51s1.06,1.63,1.56,2.45c.74,1.18,1.46,2.38,2.16,3.59.35.62.71,1.25,1.05,1.88s.62,1.13.92,1.7c.49.91,1,1.82,1.42,2.75s1.06,2.16,1.55,3.25c.29.61.56,1.23.84,1.85a.61.61,0,0,0,.05.12l.06.14c.35.8.69,1.6,1,2.41a4.07,4.07,0,0,1,.18.44c.35.84.68,1.69,1,2.54a.52.52,0,0,1,.06.16c.28.72.55,1.44.8,2.17.13.35.26.71.38,1.07.24.68.47,1.37.69,2.06.07.19.13.39.19.59.21.65.42,1.31.61,2,.13.41.25.82.37,1.23.16.56.32,1.11.46,1.67.11.37.21.74.3,1.12.22.81.43,1.62.61,2.43a1.05,1.05,0,0,1,.06.24c.21.87.41,1.74.59,2.61.25,1.12.48,2.24.68,3.38.08.4.15.8.22,1.2.11.62.21,1.24.31,1.86,0,0,0,0,0,.06.08.49.15,1,.22,1.48s.17,1.14.24,1.71l.12,1c0,.13,0,.26,0,.38.08.66.15,1.32.22,2,.1,1,.19,2,.27,3s.13,1.89.18,2.84a1.48,1.48,0,0,1,0,.21c.05,1,.09,2,.12,3v.1C239.9,117.93,239.91,119,239.91,120Z"/><rect class="cls-2" x="54.45" y="81.53" width="131.11" height="85.8"/><polygon class="cls-2" points="54.45 81.53 45.52 88.61 45.52 167.33 54.45 167.33 54.45 81.53"/><polygon class="cls-2" points="185.55 81.53 194.48 88.61 194.48 167.33 185.55 167.33 185.55 81.53"/><rect class="cls-3" x="61" y="87.35" width="118.01" height="79.98"/><rect class="cls-2" x="157.2" y="87.35" width="6.06" height="79.98"/><rect class="cls-4" x="31.67" y="167.33" width="176.66" height="13.03"/><rect class="cls-5" x="93.97" y="87.35" width="52.06" height="62.07"/><rect class="cls-2" x="76.73" y="87.35" width="6.06" height="79.98"/><rect class="cls-6" x="31.67" y="167.33" width="176.66" height="4.34"/><rect class="cls-7" x="31.67" y="171.67" width="176.66" height="4.34"/><rect class="cls-8" x="31.67" y="176.02" width="176.66" height="4.34"/><rect class="cls-9" x="157.2" y="170.69" width="28.35" height="9.67"/><rect class="cls-9" x="54.57" y="170.69" width="28.35" height="9.67"/><path class="cls-10" d="M239.91,120a118.3,118.3,0,0,1-.78,13.65q-.49,4.59-1.37,9.06c-.38,2-.81,4-1.31,6A113.58,113.58,0,0,1,232.73,161c-.33.91-.67,1.82-1,2.71l-.39,1c-.38,1-.77,1.88-1.17,2.81s-.67,1.54-1,2.3c-.23.5-.46,1-.7,1.49s-.54,1.15-.83,1.72q-.67,1.37-1.38,2.7c-.82,1.58-1.68,3.13-2.58,4.67H208.33V71.82h21.51l.06.14c.35.8.69,1.6,1,2.41a4.07,4.07,0,0,1,.18.44c.35.84.68,1.69,1,2.54a.52.52,0,0,1,.06.16c.28.72.55,1.44.8,2.17.13.35.26.71.38,1.07.24.68.47,1.37.69,2.06.07.19.13.39.19.59.21.65.42,1.31.61,2,.13.41.25.82.37,1.23.16.56.32,1.11.46,1.67.11.37.21.74.3,1.12.22.81.43,1.62.61,2.43a1.05,1.05,0,0,1,.06.24c.21.87.41,1.74.59,2.61.25,1.12.48,2.24.68,3.38.08.4.15.8.22,1.2.11.62.21,1.24.31,1.86,0,0,0,0,0,.06.08.49.15,1,.22,1.48s.17,1.14.24,1.71l.12,1c0,.13,0,.26,0,.38.08.66.15,1.32.22,2,.1,1,.19,2,.27,3s.13,1.89.18,2.84a1.48,1.48,0,0,1,0,.21c.05,1,.09,2,.12,3v.1C239.9,117.93,239.91,119,239.91,120Z"/><path class="cls-10" d="M31.67,71.82V180.36H16.27c-.9-1.54-1.76-3.09-2.58-4.67a116.2,116.2,0,0,1-5.49-12c-.18-.47-.37-.95-.54-1.43a113.77,113.77,0,0,1-4.2-13.59c-.5-2-.93-3.95-1.31-6q-.87-4.47-1.37-9.06a120.19,120.19,0,0,1,9.29-61.83Z"/><path class="cls-11" d="M231.41,158.37v6.3a113.58,113.58,0,0,1-5.1,11c-.82,1.58-1.68,3.13-2.58,4.67h-8.51v-22Z"/><path class="cls-11" d="M24.77,158.37v22h-8.5c-.9-1.54-1.76-3.09-2.58-4.67a116.2,116.2,0,0,1-5.49-12v-5.32Z"/><rect class="cls-11" x="215.23" y="81.53" width="16.19" height="24.77"/><rect class="cls-11" x="8.58" y="81.53" width="16.19" height="24.77"/><rect class="cls-12" x="9.08" y="106.81" width="15.19" height="42.11"/><path class="cls-9" d="M23.77,107.31v41.11H9.58V107.31H23.77m1-1H8.58v43.11H24.77V106.31Z"/><path class="cls-13" d="M50.78,214.59a.52.52,0,0,1-.32-.11L34.68,201.59a.5.5,0,0,1,.32-.89H82.8a.5.5,0,0,1,.18,1L51,214.55A.39.39,0,0,1,50.78,214.59Z"/><path class="cls-13" d="M82.8,201.2h0m0,0-32,12.89L35,201.2H82.8m0-1H35a1,1,0,0,0-.64,1.78l15.78,12.88a1,1,0,0,0,.64.23,1.21,1.21,0,0,0,.37-.07l32-12.88a1,1,0,0,0-.34-1.94Zm0,2Z"/><path class="cls-13" d="M189.16,214.59a.39.39,0,0,1-.18,0l-32-12.88a.49.49,0,0,1-.31-.55.5.5,0,0,1,.49-.41h46.66a.51.51,0,0,1,.47.32.53.53,0,0,1-.14.56l-14.7,12.87A.46.46,0,0,1,189.16,214.59Z"/><path class="cls-13" d="M203.86,201.21l-14.7,12.88-32-12.88h46.66m0-1H157.2a1,1,0,0,0-1,.81,1,1,0,0,0,.61,1.12l32,12.88a1.21,1.21,0,0,0,.37.07,1,1,0,0,0,.66-.25L204.52,202a1,1,0,0,0-.66-1.75Zm0,2Z"/><line class="cls-14" x1="8.58" y1="109.71" x2="24.77" y2="109.71"/><line class="cls-14" x1="8.58" y1="113.75" x2="24.77" y2="113.75"/><line class="cls-14" x1="8.58" y1="117.78" x2="24.77" y2="117.78"/><line class="cls-14" x1="8.58" y1="121.81" x2="24.77" y2="121.81"/><line class="cls-14" x1="8.58" y1="125.85" x2="24.77" y2="125.85"/><line class="cls-14" x1="8.58" y1="129.88" x2="24.77" y2="129.88"/><line class="cls-14" x1="8.58" y1="133.91" x2="24.77" y2="133.91"/><line class="cls-14" x1="8.58" y1="137.95" x2="24.77" y2="137.95"/><line class="cls-14" x1="8.58" y1="141.98" x2="24.77" y2="141.98"/><line class="cls-14" x1="8.58" y1="146.01" x2="24.77" y2="146.01"/><rect class="cls-12" x="215.73" y="106.81" width="15.19" height="42.11"/><path class="cls-9" d="M230.42,107.31v41.11H216.23V107.31h14.19m1-1H215.23v43.11h16.19V106.31Z"/><line class="cls-14" x1="215.23" y1="109.71" x2="231.42" y2="109.71"/><line class="cls-14" x1="215.23" y1="113.75" x2="231.42" y2="113.75"/><line class="cls-14" x1="215.23" y1="117.78" x2="231.42" y2="117.78"/><line class="cls-14" x1="215.23" y1="121.81" x2="231.42" y2="121.81"/><line class="cls-14" x1="215.23" y1="125.85" x2="231.42" y2="125.85"/><line class="cls-14" x1="215.23" y1="129.88" x2="231.42" y2="129.88"/><line class="cls-14" x1="215.23" y1="133.91" x2="231.42" y2="133.91"/><line class="cls-14" x1="215.23" y1="137.95" x2="231.42" y2="137.95"/><line class="cls-14" x1="215.23" y1="141.98" x2="231.42" y2="141.98"/><line class="cls-14" x1="215.23" y1="146.01" x2="231.42" y2="146.01"/><polygon class="cls-3" points="54.45 81.53 45.52 88.61 45.52 167.33 54.45 167.33 54.45 81.53"/><polygon class="cls-15" points="185.55 81.53 194.48 88.61 194.48 167.33 185.55 167.33 185.55 81.53"/><rect class="cls-16" x="61" y="87.35" width="15.74" height="79.98"/><rect class="cls-16" x="163.27" y="87.35" width="15.74" height="79.97"/><rect class="cls-15" x="161.1" y="87.35" width="2.17" height="79.97"/><line class="cls-17" x1="68.74" y1="170.69" x2="68.74" y2="159.96"/><rect class="cls-15" x="80.63" y="87.35" width="2.17" height="79.97"/><line class="cls-17" x1="73.97" y1="163.64" x2="68.74" y2="170.69"/><line class="cls-17" x1="63.51" y1="163.64" x2="68.74" y2="170.69"/><circle class="cls-13" cx="63.51" cy="163.64" r="4.73"/><circle class="cls-18" cx="73.97" cy="163.64" r="4.73"/><circle class="cls-19" cx="68.74" cy="159.96" r="5.23"/><line class="cls-17" x1="171.38" y1="170.69" x2="171.38" y2="159.96"/><line class="cls-17" x1="176.61" y1="163.64" x2="171.38" y2="170.69"/><line class="cls-17" x1="166.15" y1="163.64" x2="171.38" y2="170.69"/><circle class="cls-13" cx="166.15" cy="163.64" r="4.83"/><circle class="cls-18" cx="176.61" cy="163.64" r="4.41"/><circle class="cls-19" cx="171.38" cy="159.96" r="5.23"/><rect class="cls-16" x="82.8" y="87.35" width="74.41" height="6.57"/><path class="cls-20" d="M119.91,6c1,0,1.87,0,2.66,0h.19l.54,0h.09c.88,0,1.65.05,2.39.09.91,0,1.82.1,2.73.17l.26,0c.78.06,1.64.13,2.63.23h.06l.15,0h.14c.68.07,1.36.14,2.06.23.37,0,.73.08,1.08.14H135c1.28.17,2.64.37,4.2.64.52.09,1.05.17,1.57.28l.09,0,.1,0c.56.09,1.18.21,1.93.37l2.43.52.54.12,2.55.63c.82.21,1.63.43,2.41.65s1.76.51,2.64.78c.53.16,1.06.32,1.59.5l.11,0,.12,0,.2.06.08,0,.09,0c.5.16,1,.33,1.49.51h.06c1.33.46,2.7,1,4.16,1.53l1.15.45.39.16.78.33.08,0,.08,0c.78.32,1.4.59,2,.84l.09,0,.08,0c.32.13.61.26.84.37l.1.05.11,0,1.79.84h.05l1.09.53.1.06.11,0c.42.2.87.42,1.33.67l.06,0,.06,0,.25.12.08.05.08,0c.57.28,1.14.59,1.69.88.81.44,1.58.85,2.31,1.28l0,0,.05,0c.56.31,1.12.63,1.66,1l.05,0,0,0c.57.33,1.12.67,1.68,1l0,0,0,0c1.1.67,2.24,1.39,3.39,2.17l1.56,1.06.12.08.08,0,0,0,.07.05.43.3c.33.23.66.46,1,.7l.06.05.06,0c.7.49,1.38,1,2,1.49s1.21.92,1.8,1.39l0,0,0,0c.42.32.9.7,1.36,1.09l.06,0,0,0,.93.77.05,0,0,0c.76.62,1.58,1.33,2.58,2.22l0,0,0,0c.43.37.86.76,1.28,1.15l0,0,0,0c.42.37.83.75,1.24,1.14l0,0,0,0c.84.78,1.52,1.44,2.14,2.07l0,.05.05,0,.75.75,0,0,0,0c.34.35.68.69,1,1l.05.06.06,0,.32.33,0,0,0,0c.43.44.9.94,1.48,1.59l0,0,0,0c.56.61,1.11,1.22,1.63,1.82l0,0,0,0c.33.37.66.75,1,1.13l.33.4c.43.5.84,1,1.26,1.52v0l0,0c.8,1,1.61,2,2.5,3.19l0,0v0c.39.51.78,1,1.15,1.55l0,0,0,0c.33.44.66.9,1,1.35l.24.35.15.22.05.08,0,.08c.57.8,1.1,1.59,1.63,2.4s.95,1.46,1.43,2.24l0,0,0,0c.67,1.07,1.35,2.2,2,3.38l.18.31c.27.48.54,1,.8,1.44l0,0v0c.29.52.58,1,.86,1.58l0,0v0c.46.86.89,1.7,1.33,2.57s1,2.06,1.47,3.09l0,0v0c.19.39.36.78.54,1.18l.17.36a3.24,3.24,0,0,0,.13.31l0,.08c.35.81.66,1.55,1,2.27l.06.15,0,.06,0,.08.08.2c.25.6.51,1.26.81,2v0l.19.47.11.3h0c.24.63.43,1.16.6,1.64l0,.08,0,.07c.1.29.21.58.31.88l0,0v0c.21.59.42,1.22.64,1.88l0,.12.05.12c0,.08,0,.17.08.25v.06l0,.06c.19.59.38,1.19.56,1.79l0,.08,0,.07c.12.37.23.74.32,1.07l.06.19c.12.43.24.85.35,1.29l0,.12,0,.13c.08.26.15.52.21.79l0,.1,0,.09c.24.89.41,1.56.54,2.16l.1.41,0,.07c.21.86.38,1.6.52,2.29V96c.25,1.13.45,2.15.62,3.11v.07l0,.07c.07.35.13.7.19,1.07s.16.9.23,1.35h0l.06.33,0,.19c.06.39.11.77.17,1.15l0,.17v.09c.07.5.15,1,.2,1.47l.07.52.05.49,0,.11v.18l0,.11c.07.63.14,1.26.2,1.85.1,1,.18,1.94.26,2.89s.12,1.81.17,2.72v0h0v.15c.05.92.08,1.85.11,2.77h0v.17c0,.88,0,1.81,0,2.93a114.6,114.6,0,0,1-.74,13c-.31,2.84-.74,5.72-1.3,8.59-.38,2-.78,3.81-1.23,5.59v.08a107.76,107.76,0,0,1-3.53,11.66c-.34,1-.66,1.8-1,2.56L226,162l-.2.49c-.33.82-.69,1.69-1.12,2.7-.28.66-.58,1.33-.95,2.13-.21.46-.42.91-.64,1.36l0,.05,0,.06c-.23.49-.47,1-.74,1.53v0l0,0c-.42.86-.86,1.72-1.32,2.6-.75,1.44-1.55,2.88-2.45,4.43s-1.72,2.88-2.76,4.47c-.41.63-.82,1.26-1.25,1.9-.27.4-.54.8-.8,1.17l-.92,1.3c-.43.61-.88,1.21-1.33,1.83l-.55.72c-.18.24-.36.49-.55.73l-.71.9c-.91,1.17-1.75,2.19-2.55,3.14l-1,1.19-.42.48-.23.26c-.51.57-1,1.14-1.54,1.7-.77.84-1.36,1.47-1.93,2l-.23.24-.11.11c-.54.56-1.09,1.12-1.65,1.67l-.27.26-1.7,1.64-.11.08-.17.17c-.61.58-1.23,1.14-1.82,1.67-.81.72-1.77,1.56-2.76,2.39l-.26.22h-.34L191,209.16c-.69.55-1.34,1.07-2,1.57l0,0h0c-.59.46-1.2.91-1.8,1.35l-.38.28-.18.13-.65.46-1.25.89-.4.26-.41.28,0,0,0,0-1.41,1-1.06.68,0,0,0,0c-.46.3-.91.58-1.38.86l-.05,0-.05,0-1,.6,0,0,0,0c-.68.42-1.29.78-1.88,1.12s-1.43.82-2.09,1.18l-.36.2-.13.06c-.63.35-1.32.72-2,1.07h0l0,0c-.67.35-1.36.69-2,1l-.05,0,0,0c-.75.38-1.35.66-1.89.91l-.07,0,0,0-.94.44-.07,0-1.13.5-.06,0,0,0c-.38.17-.76.34-1.14.49l-.18.07-.18.09-.21.09-.12,0-.11.05c-.91.38-1.84.76-2.71,1.1-2.27.88-4.62,1.7-7,2.45l-1.67.51c-1.17.35-2.33.67-3.5,1l-.73.19-.64.17c-1.18.29-2.29.54-3.44.79l-1.4.29h-.07l-.07,0-1.13.23-.57.1-1.1.2h-.11c-.6.11-1.21.21-1.81.3h-.07l-1.19.18h-.06c-1.93.28-3.93.52-6.15.73-.91.08-1.84.15-2.74.21-1.31.09-2.7.16-4.25.21h-.54l-1,0h-.09l-1.89,0a113.68,113.68,0,0,1-95.77-52.15c-1.05-1.61-1.95-3.08-2.78-4.52s-1.68-3-2.45-4.44a107.51,107.51,0,0,1-5.19-11.35l-.14-.35c-.12-.31-.24-.62-.35-.93l0-.06,0-.06a110.56,110.56,0,0,1-4-12.88v-.07c-.46-1.78-.86-3.61-1.24-5.63-.55-2.83-1-5.71-1.3-8.6a113.06,113.06,0,0,1-.74-13c0-1.12,0-2,0-2.93v-.17H6c0-.92.07-1.85.11-2.77v-.19c0-.91.11-1.82.17-2.69s.17-1.95.26-2.88c.07-.63.13-1.26.21-1.89v-.19l0-.1v-.11l.06-.51.06-.47q.09-.75.21-1.5v-.09l0-.17c0-.33.09-.66.14-1l.12-.49v-.26c.07-.43.14-.86.22-1.31s.13-.7.2-1v-.14c.17-1,.37-2,.63-3.11v-.09c.14-.68.31-1.43.51-2.29l0-.07.09-.41c.13-.6.3-1.27.54-2.16l0-.09,0-.1c.06-.27.14-.53.21-.79l0-.13,0-.12c.11-.44.23-.86.36-1.29l0-.16.33-1.1,0-.07,0-.08c.17-.6.36-1.2.55-1.79l0-.06,0-.06c0-.08.05-.17.07-.24l.05-.12,0-.13c.21-.66.42-1.29.63-1.88l0,0v0c.1-.3.21-.59.32-.88l0-.07,0-.08c.17-.49.36-1,.6-1.63v0l.11-.3.18-.47v0c.3-.79.56-1.45.81-2l.08-.2,0-.08,0-.07.06-.14c.29-.72.61-1.46,1-2.27l0-.08.13-.31.16-.36.54-1.18,0,0,0,0c.47-1,1-2.07,1.47-3.09s.86-1.71,1.32-2.57l0,0v0c.28-.53.57-1.06.86-1.58l0,0v0c.26-.48.54-1,.81-1.44l.17-.31c.68-1.18,1.37-2.31,2-3.38l0,0v0c.48-.78,1-1.54,1.46-2.28s1-1.56,1.6-2.36l.06-.08.05-.08.14-.22.24-.35c.33-.45.65-.91,1-1.35l0,0,0,0c.38-.52.76-1,1.15-1.55l0,0v0c.89-1.18,1.71-2.22,2.5-3.19l0,0,0,0c.41-.52.83-1,1.25-1.52l.34-.4c.32-.38.64-.76,1-1.13l0,0,0,0c.52-.6,1.07-1.21,1.63-1.82l0,0,0,0c.58-.65,1-1.15,1.47-1.59l0,0,0,0,.31-.33.06,0,0-.06,1-1,0,0,0,0,.74-.75.05,0,0-.05c.63-.63,1.31-1.29,2.14-2.07l0,0,0,0c.41-.39.83-.77,1.24-1.14l0,0,0,0c.41-.39.84-.78,1.27-1.15l0,0,0,0c1-.89,1.83-1.6,2.58-2.22l.06,0,0,0c.3-.26.61-.51.93-.77l.05,0,0,0c.46-.39,1-.77,1.36-1.09l0,0,0,0,1.83-1.41q1-.73,2-1.47l.06,0,.06-.05c.32-.24.65-.47,1-.7l.43-.3.07-.05.05,0,.08-.06.13-.08L56.83,25c1.14-.77,2.27-1.49,3.37-2.16l0,0,0,0c.56-.34,1.12-.68,1.69-1l0,0,0,0c.55-.33,1.11-.65,1.67-1l0,0,0,0c.74-.43,1.5-.84,2.28-1.26.58-.31,1.15-.62,1.73-.9l.08,0L68,18.5l.24-.12.06,0,.06,0c.47-.25.91-.47,1.33-.67l.11,0,.1-.06L71,17H71c.63-.3,1.22-.58,1.8-.84l.1,0,.11-.05c.22-.11.52-.24.83-.37l.09,0,.08,0c.56-.25,1.19-.52,2-.84l.08,0,.08,0,.79-.33.4-.16,1.11-.44c1.49-.58,2.86-1.08,4.19-1.54h.05q.75-.27,1.5-.51h0l.08,0,.14,0,.12,0,.13,0,.13-.05,1.36-.44.2-.06L89,10.25c.82-.23,1.63-.45,2.48-.66S93.12,9.16,94,9l.53-.12L97,8.31c.72-.15,1.34-.27,1.89-.36l.1,0,.1,0c.52-.11,1-.19,1.59-.29,1.53-.26,2.9-.46,4.18-.63h.1c.36-.06.72-.1,1.11-.15l2-.22h.15l.13,0h.07c1-.1,1.84-.17,2.63-.23l.26,0c.9-.07,1.81-.12,2.77-.17.7,0,1.46-.07,2.34-.09h.09l.54,0h.19c.79,0,1.66,0,2.66,0m0-6c-1,0-1.9,0-2.85,0l-.77,0c-.85,0-1.7.05-2.55.1s-2,.11-3,.18h-.1c-1,.07-2,.16-2.94.26l-.23,0c-.74.07-1.48.15-2.21.24L104.06,1c-1.48.19-3,.42-4.42.67-.6.1-1.19.2-1.78.32s-1.42.26-2.13.41L93.11,3l-.44.1c-.92.22-1.83.44-2.75.68s-1.71.45-2.57.69-1.83.53-2.74.81c-.58.18-1.17.36-1.75.56L82.34,6q-.84.27-1.68.57c-1.47.51-2.93,1-4.38,1.61l-1.21.48c-.46.19-.92.37-1.37.57-.73.3-1.46.61-2.18.94-.38.16-.76.32-1.13.5-.66.29-1.31.6-2,.91q-.65.3-1.29.63c-.54.25-1.08.52-1.61.8l-.41.21c-.62.31-1.24.64-1.86,1-.83.45-1.66.9-2.47,1.37q-.95.53-1.86,1.08c-.62.36-1.23.73-1.84,1.11-1.22.74-2.42,1.51-3.61,2.31l-1.62,1.1-.38.26c-.51.36-1,.71-1.52,1.08-.74.52-1.48,1.06-2.2,1.61s-1.29,1-1.93,1.49-1,.82-1.56,1.25-.72.58-1.07.88c-.94.77-1.86,1.57-2.77,2.38q-.75.64-1.47,1.32c-.45.41-.9.82-1.34,1.24-.79.74-1.56,1.48-2.31,2.24l-.89.89c-.38.38-.75.76-1.12,1.15l-.45.47c-.55.57-1.09,1.16-1.62,1.75s-1.19,1.31-1.76,2-.93,1.08-1.39,1.62-.91,1.09-1.36,1.65q-1.37,1.67-2.65,3.38c-.43.56-.85,1.13-1.26,1.7s-.75,1-1.12,1.55l-.46.68c-.58.83-1.15,1.67-1.7,2.51S18.47,55.86,18,56.68c-.74,1.18-1.46,2.38-2.16,3.59-.35.62-.71,1.25-1.05,1.88s-.62,1.13-.92,1.7c-.49.91-1,1.82-1.42,2.75s-1.05,2.16-1.55,3.25c-.29.61-.56,1.23-.84,1.85a.61.61,0,0,1,0,.12L9.92,72c-.35.8-.69,1.6-1,2.41a4.07,4.07,0,0,0-.18.44c-.35.84-.68,1.69-1,2.54a.52.52,0,0,0-.06.16c-.28.72-.55,1.44-.8,2.17-.13.35-.26.71-.38,1.07-.24.68-.47,1.37-.69,2.06-.07.19-.13.39-.19.59-.21.65-.42,1.31-.61,2-.13.41-.25.82-.37,1.23-.16.56-.32,1.11-.46,1.67-.11.37-.21.74-.3,1.12-.22.81-.43,1.62-.61,2.43a1.05,1.05,0,0,0-.06.24c-.21.87-.41,1.74-.59,2.61-.25,1.12-.48,2.24-.68,3.38-.08.4-.15.8-.22,1.2-.11.62-.21,1.24-.31,1.86,0,0,0,0,0,.06-.08.49-.15,1-.22,1.48S1,103.79.92,104.36l-.12,1c0,.13,0,.26-.05.38-.08.66-.15,1.32-.22,2-.1,1-.19,2-.27,3s-.13,1.89-.18,2.84a1.48,1.48,0,0,0,0,.21c0,1-.09,2-.12,3v.1c0,1,0,2.06,0,3.1a118.3,118.3,0,0,0,.78,13.65q.5,4.59,1.37,9.06c.38,2,.81,4,1.31,6a113.77,113.77,0,0,0,4.2,13.59c.17.48.36,1,.54,1.43a116.2,116.2,0,0,0,5.49,12c.82,1.58,1.68,3.13,2.58,4.67s1.91,3.19,2.92,4.75A119.89,119.89,0,0,0,119.91,240l2,0,1.66,0c1.5,0,3-.12,4.48-.22,1-.07,1.94-.14,2.9-.23,2.18-.2,4.34-.45,6.48-.77l1.31-.2c.67-.1,1.34-.21,2-.33L142,238l.45-.08,1.38-.28,1.54-.32c1.23-.26,2.44-.54,3.65-.84l1.46-.38c1.22-.32,2.43-.66,3.64-1l1.8-.55c2.48-.78,4.94-1.64,7.35-2.57,1-.38,1.91-.76,2.86-1.16.24-.09.47-.19.7-.3.45-.18.9-.38,1.35-.58l1.35-.6,1-.48c.71-.32,1.41-.66,2.11-1s1.49-.73,2.22-1.11,1.44-.75,2.16-1.14l.45-.25c.76-.41,1.51-.84,2.26-1.27s1.35-.79,2-1.2l1.15-.7c.53-.32,1-.64,1.56-1l1.12-.72,1.54-1,.89-.6,2-1.38.59-.43c.66-.48,1.32-1,2-1.47.81-.61,1.6-1.24,2.39-1.87h0c.67-.54,1.33-1.08,2-1.63,1-.81,1.92-1.64,2.86-2.47.68-.61,1.36-1.23,2-1.86l.07-.06,2-1.94.16-.16c.59-.58,1.17-1.17,1.75-1.76l.34-.35c.7-.72,1.39-1.46,2.07-2.2s1.13-1.24,1.69-1.87a.12.12,0,0,1,0-.05c.54-.63,1.09-1.26,1.63-1.9.92-1.08,1.81-2.18,2.69-3.3l.73-.93,1.18-1.56,1.4-1.92.93-1.32.88-1.29c.44-.65.87-1.3,1.3-2,1-1.56,2-3.14,2.92-4.75s1.76-3.09,2.58-4.67q.71-1.33,1.38-2.7c.29-.57.56-1.14.83-1.72s.47-1,.7-1.49c.35-.76.69-1.52,1-2.3s.79-1.86,1.17-2.81l.39-1c.35-.89.69-1.8,1-2.71a113.58,113.58,0,0,0,3.72-12.31c.5-2,.93-3.95,1.31-6q.87-4.47,1.37-9.06a118.3,118.3,0,0,0,.78-13.65c0-1,0-2.07,0-3.1v-.1c0-1-.07-2-.12-3a1.48,1.48,0,0,0,0-.21c-.05-1-.11-1.9-.18-2.84s-.17-2-.27-3c-.07-.66-.14-1.32-.22-2,0-.12,0-.25,0-.38l-.12-1q-.1-.85-.24-1.71c-.07-.49-.14-1-.22-1.48,0,0,0,0,0-.06-.1-.62-.2-1.24-.31-1.86-.07-.4-.14-.8-.22-1.2-.2-1.14-.43-2.26-.68-3.38-.18-.87-.38-1.74-.59-2.61a1.05,1.05,0,0,0-.06-.24c-.18-.81-.39-1.62-.61-2.43-.09-.38-.19-.75-.3-1.12-.14-.56-.3-1.11-.46-1.67-.12-.41-.24-.82-.37-1.23-.19-.66-.4-1.32-.61-2-.06-.2-.12-.4-.19-.59-.22-.69-.45-1.38-.69-2.06-.12-.36-.25-.72-.38-1.07-.25-.73-.52-1.45-.8-2.17a.52.52,0,0,0-.06-.16c-.32-.85-.65-1.7-1-2.54a4.07,4.07,0,0,0-.18-.44c-.33-.81-.67-1.61-1-2.41l-.06-.14a.61.61,0,0,1-.05-.12c-.28-.62-.55-1.24-.84-1.85-.5-1.09-1-2.18-1.55-3.25s-.93-1.84-1.42-2.75c-.3-.57-.61-1.14-.92-1.7s-.7-1.26-1.05-1.88c-.7-1.21-1.42-2.41-2.16-3.59-.5-.82-1-1.64-1.56-2.45s-1.12-1.68-1.7-2.51l-.46-.68c-.37-.52-.74-1-1.12-1.55s-.83-1.14-1.26-1.7q-1.29-1.71-2.65-3.38c-.45-.56-.9-1.11-1.36-1.65s-.92-1.09-1.39-1.62-1.16-1.32-1.76-2S207.52,38,207,37.42l-.45-.47c-.37-.39-.74-.77-1.12-1.15s-.59-.6-.89-.89c-.75-.76-1.52-1.5-2.31-2.24-.44-.42-.89-.83-1.34-1.24s-1-.89-1.47-1.32c-.91-.81-1.83-1.61-2.77-2.38-.35-.3-.71-.59-1.07-.88-.51-.43-1-.84-1.56-1.25s-1.28-1-1.93-1.49-1.46-1.09-2.2-1.61c-.5-.37-1-.72-1.52-1.08l-.38-.26-1.62-1.1c-1.19-.8-2.39-1.57-3.61-2.31-.61-.38-1.22-.75-1.84-1.11s-1.23-.73-1.86-1.08c-.81-.47-1.64-.92-2.47-1.37-.62-.33-1.24-.66-1.86-1l-.41-.21c-.53-.28-1.07-.55-1.61-.8s-.86-.43-1.29-.63c-.65-.31-1.3-.62-2-.91-.37-.18-.75-.34-1.13-.5-.72-.33-1.45-.64-2.18-.94-.45-.2-.91-.38-1.37-.57l-1.21-.48c-1.45-.56-2.91-1.1-4.38-1.61q-.84-.3-1.68-.57L157,5.84c-.59-.2-1.17-.38-1.76-.56-.91-.28-1.83-.55-2.74-.81s-1.71-.47-2.57-.69-1.83-.46-2.75-.68l-.44-.1-2.62-.56c-.71-.15-1.42-.29-2.13-.41s-1.18-.22-1.78-.32c-1.46-.25-2.94-.48-4.42-.67L134.52.88c-.73-.09-1.47-.17-2.21-.24l-.23,0c-1-.1-2-.19-2.94-.26H129c-1-.07-2-.13-3-.18s-1.7-.08-2.55-.1l-.77,0c-1,0-1.9,0-2.85,0Z"/><rect class="cls-2" x="116.97" y="87.35" width="6.06" height="79.98"/><rect class="cls-15" x="120.87" y="87.35" width="2.17" height="79.98"/></svg>